{
.appVersion = "1354";
DisplayStrings = (
"!\"#$%&'()*+,-.//\0120123456789:;<=>?\012@ABCDEFGHIJKLMNO\012PQRSTUVWXYZ[/backslash ]^_\012`abcdefghijklmno\012pqrstuvwxyz{|}~\012\012"
);
copyright = "Copyright © 2021 by Coji Morishita. All rights reserved.";
customParameters = (
{
name = vendorID;
value = UFDN;
},
{
name = ROS;
value = "Adobe-Identity-0";
},
{
name = "Enforce Compatibility Check";
value = 1;
},
{
name = Axes;
value = (
{
Name = Weight;
Tag = wght;
}
);
},
{
name = "Use Typo Metrics";
value = 1;
},
{
name = note;
value = "%:    60% (Black +20, Thin 20, Medium +20)\012ord*: 80% (Black +10, Thin 20, Medium +10)\012*sup: 60% (Black +20, Thin 20, Medium +20)\012©®:   60% (Black +20, Thin 20, Medium +20)\012TM:   50% (Black +0~10, Thin 20, Medium +20)\012\012*sml: X100、Y-8、W80%、H80% (Black +20, Thin 20, Medium +6)\012\012full-width bracket pairs: X1000, Y720 Rotate180";
}
);
date = "2021-02-26 07:42:34 +0000";
designer = "Coji Morishita";
designerURL = "http://www.underforest.com";
familyName = "Mplus 1";
featurePrefixes = (
{
automatic = 1;
code = "languagesystem DFLT dflt;\012\012languagesystem latn dflt;\012languagesystem latn AZE;\012languagesystem latn CRT;\012languagesystem latn KAZ;\012languagesystem latn TAT;\012languagesystem latn TRK;\012languagesystem latn ROM;\012languagesystem latn MOL;\012languagesystem latn CAT;\012";
name = Languagesystems;
}
);
features = (
{
automatic = 1;
code = "feature locl;\012feature sups;\012feature frac;\012feature ordn;\012feature pnum;\012feature tnum;\012feature case;\012feature fwid;\012feature vert;\012feature vkna;\012feature vrt2;\012";
name = aalt;
},
{
automatic = 1;

glyphs = (
{
color = 10;
glyphname = A;
lastChange = "2021-02-27 02:38:05 +0000";
layers = (
{
anchors = (
{
name = bottom;
position = "{340, 0}";
},
{
name = ogonek;
position = "{660, 0}";
},
{
name = top;
position = "{340, 730}";
},
{
name = top_ring;
position = "{340, 715}";
}
);
layerId = "D65C9A1E-0FCA-4B2D-8EDF-9F36CA9182A1";
leftMetricsKey = "=H*.2";
paths = (
{
closed = 1;
nodes = (
"42 0 LINE",
"339 711 LINE",
"341 711 LINE",
"638 0 LINE",
"660 0 LINE",
"354 730 LINE",
"326 730 LINE",
"20 0 LINE"
);
},
{
closed = 1;
nodes = (
"550 237 LINE",
"550 257 LINE",
"130 257 LINE",
"130 237 LINE"
);
}
);
width = 680;
},
{
anchors = (
{
name = bottom;
position = "{352, 0}";
},
{
name = ogonek;
position = "{692, 0}";
},
{
name = top;
position = "{352, 730}";
},
{
name = top_ring;
position = "{352, 690}";
}
);
layerId = "9527F797-22C1-480E-A1FE-2CDBEBE1FD4C";
paths = (
{
closed = 1;
nodes = (
"133 0 LINE",
"351 636 LINE",
"353 636 LINE",
"571 0 LINE",
"692 0 LINE",
"427 730 LINE",
"278 730 LINE",
"12 0 LINE"
);
},
{
closed = 1;
nodes = (
"555 183 LINE",
"555 283 LINE",
"150 283 LINE",
"150 183 LINE"
);
}
);
width = 704;
},
{
anchors = (
{
name = bottom;
position = "{366, 0}";
},
{
name = ogonek;
position = "{726, 0}";
},
{
name = top;
position = "{366, 730}";
},
{
name = top_ring;
position = "{366, 665}";
}
);
layerId = "9E6B41AB-2970-4C41-8B35-4DBE0D296A43";
leftMetricsKey = "=H*.1";
paths = (
{
closed = 1;
nodes = (
"226 0 LINE",
"365 560 LINE",
"367 560 LINE",
"506 0 LINE",
"726 0 LINE",
"501 730 LINE",
"231 730 LINE",
"6 0 LINE"
);
},
{
closed = 1;
nodes = (
"561 135 LINE",
"561 300 LINE",
"171 300 LINE",
"171 135 LINE"
);
}
);
width = 732;
}
);
leftKerningGroup = A;
leftMetricsKey = "=H*.15";
rightKerningGroup = A;
rightMetricsKey = "=|";
unicode = 0041;
},
{
color = 11;
glyphname = AE;
lastChange = "2021-02-27 02:38:05 +0000";
layers = (
{
anchors = (
{
name = bottom;
position = "{489, 0}";
},
{
name = top;
position = "{489, 730}";
}
);
layerId = "D65C9A1E-0FCA-4B2D-8EDF-9F36CA9182A1";
paths = (
{
closed = 1;
nodes = (
"43 0 LINE",
"458 710 LINE",
"470 710 LINE",
"470 0 LINE",
"830 0 LINE",
"830 20 LINE",
"490 20 LINE",
"490 380 LINE",
"807 380 LINE",
"807 400 LINE",
"490 400 LINE",
"490 710 LINE",
"830 710 LINE",
"830 730 LINE",
"447 730 LINE",
"20 0 LINE"
);
},
{
closed = 1;
nodes = (
"480 237 LINE",
"480 257 LINE",
"176 257 LINE",
"176 237 LINE"
);
}
);
width = 905;
},
{
anchors = (
{
name = bottom;
position = "{483, 0}";
},
{
name = top;
position = "{483, 730}";
}
);
layerId = "9527F797-22C1-480E-A1FE-2CDBEBE1FD4C";
paths = (
{
closed = 1;
nodes = (
"134 0 LINE",
"416 640 LINE",
"437 640 LINE",
"437 0 LINE",
"842 0 LINE",
"842 98 LINE",
"547 98 LINE",
"547 334 LINE",
"821 334 LINE",
"821 430 LINE",
"547 430 LINE",
"547 632 LINE",
"842 632 LINE",
"842 730 LINE",
"346 730 LINE",
"12 0 LINE"
);
},
{
closed = 1;
nodes = (
"497 183 LINE",
"497 283 LINE",
"168 283 LINE",
"168 183 LINE"
);
}
);
width = 906;
},
{
anchors = (
{
name = bottom;
position = "{479, 0}";
},
{
name = top;
position = "{479, 730}";
}
);
layerId = "9E6B41AB-2970-4C41-8B35-4DBE0D296A43";
paths = (
{
closed = 1;
nodes = (
"226 0 LINE",
"376 570 LINE",
"406 570 LINE",
"406 0 LINE",
"856 0 LINE",
"856 160 LINE",
"606 160 LINE",
"606 298 LINE",
"836 298 LINE",
"836 452 LINE",
"606 452 LINE",
"606 570 LINE",
"856 570 LINE",
"856 730 LINE",
"246 730 LINE",
"6 0 LINE"
);
},
{
closed = 1;
nodes = (
"516 135 LINE",
"516 300 LINE",
"161 300 LINE",
"161 135 LINE"
);
}
);
width = 907;
}
);
leftKerningGroup = A;
leftMetricsKey = "=A";
rightKerningGroup = E;
rightMetricsKey = "=E";
unicode = 00C6;
},
{
color = 10;
glyphname = B;
lastChange = "2021-02-27 02:38:05 +0000";
layers = (
{
layerId = "9527F797-22C1-480E-A1FE-2CDBEBE1FD4C";
rightMetricsKey = "=|*.45";
paths = (
{
closed = 1;
nodes = (
"320 0 LINE SMOOTH",
"528 0 OFFCURVE",
"630 67 OFFCURVE",
"630 205 CURVE SMOOTH",
"630 308 OFFCURVE",
"573 370 OFFCURVE",
"463 387 CURVE",
"463 389 LINE",
"550 407 OFFCURVE",
"600 466 OFFCURVE",
"600 553 CURVE SMOOTH",
"600 672 OFFCURVE",
"507 730 OFFCURVE",
"315 730 CURVE SMOOTH",
"80 730 LINE",
"80 0 LINE"
);
},
{
closed = 1;
nodes = (
"190 632 LINE",
"320 632 LINE SMOOTH",
"440 632 OFFCURVE",
"490 603 OFFCURVE",
"490 534 CURVE SMOOTH",
"490 463 OFFCURVE",
"437 430 OFFCURVE",
"320 430 CURVE SMOOTH",
"135 430 LINE",
"135 335 LINE",
"320 335 LINE SMOOTH",
"456 335 OFFCURVE",
"518 298 OFFCURVE",
"518 216 CURVE SMOOTH",
"518 134 OFFCURVE",
"457 98 OFFCURVE",
"320 98 CURVE SMOOTH",
"190 98 LINE"
);
}
);
width = 666;
},
{
layerId = "9E6B41AB-2970-4C41-8B35-4DBE0D296A43";
rightMetricsKey = "=|*.5";
paths = (
{
closed = 1;
nodes = (
"330 0 LINE SMOOTH",
"538 0 OFFCURVE",
"650 73 OFFCURVE",
"650 210 CURVE SMOOTH",
"650 310 OFFCURVE",
"591 370 OFFCURVE",
"480 384 CURVE",
"480 386 LINE",
"574 400 OFFCURVE",
"630 461 OFFCURVE",
"630 550 CURVE SMOOTH",
"630 668 OFFCURVE",
"523 730 OFFCURVE",
"320 730 CURVE SMOOTH",
"60 730 LINE",
"60 0 LINE"
);
},
{
closed = 1;
nodes = (
"260 575 LINE",
"330 575 LINE SMOOTH",
"403 575 OFFCURVE",
"430 558 OFFCURVE",
"430 512 CURVE SMOOTH",
"430 466 OFFCURVE",
"404 450 OFFCURVE",
"330 450 CURVE SMOOTH",
"160 450 LINE",
"160 300 LINE",
"330 300 LINE SMOOTH",
"410 300 OFFCURVE",
"445 278 OFFCURVE",
"445 228 CURVE SMOOTH",
"445 178 OFFCURVE",
"409 155 OFFCURVE",
"330 155 CURVE SMOOTH",
"260 155 LINE"
);
}
);
width = 680;
},
{
layerId = "D65C9A1E-0FCA-4B2D-8EDF-9F36CA9182A1";
rightMetricsKey = "=|*.4";
paths = (
{
closed = 1;
nodes = (
"310 0 LINE SMOOTH",
"514 0 OFFCURVE",
"610 63 OFFCURVE",
"610 200 CURVE SMOOTH",
"610 308 OFFCURVE",
"551 369 OFFCURVE",
"426 390 CURVE",
"426 392 LINE",
"522 414 OFFCURVE",
"570 467 OFFCURVE",
"570 555 CURVE SMOOTH",
"570 673 OFFCURVE",
"483 730 OFFCURVE",
"310 730 CURVE SMOOTH",
"100 730 LINE",
"100 0 LINE"
);
},
{
closed = 1;
nodes = (
"120 710 LINE",
"310 710 LINE SMOOTH",
"473 710 OFFCURVE",
"550 660 OFFCURVE",
"550 555 CURVE SMOOTH",
"550 450 OFFCURVE",
"473 400 OFFCURVE",
"310 400 CURVE SMOOTH",
"110 400 LINE",
"110 380 LINE",
"310 380 LINE SMOOTH",
"503 380 OFFCURVE",
"590 324 OFFCURVE",
"590 200 CURVE SMOOTH",
"590 76 OFFCURVE",
"503 20 OFFCURVE",
"310 20 CURVE SMOOTH",
"120 20 LINE"
);
}
);
width = 650;
}
);
leftKerningGroup = H;
leftMetricsKey = "=H";
rightKerningGroup = B;
rightMetricsKey = "=|*.5";
unicode = 0042;
},
{
color = 10;
glyphname = C;
lastChange = "2021-02-27 02:38:05 +0000";
layers = (
{
anchors = (
{
name = bottom;
position = "{408, 0}";
},
{
name = cedi;
position = "{324, 0}";
},
{
name = top;
position = "{408, 730}";
}
);
layerId = "D65C9A1E-0FCA-4B2D-8EDF-9F36CA9182A1";
paths = (
{
closed = 1;
nodes = (
"505 -10 OFFCURVE",
"583 12 OFFCURVE",
"650 55 CURVE",
"639 72 LINE",
"575 31 OFFCURVE",
"501 10 OFFCURVE",
"419 10 CURVE SMOOTH",
"207 10 OFFCURVE",
"70 150 OFFCURVE",
"70 365 CURVE SMOOTH",
"70 580 OFFCURVE",
"207 720 OFFCURVE",
"419 720 CURVE SMOOTH",
"501 720 OFFCURVE",
"575 699 OFFCURVE",
"639 658 CURVE",
"650 675 LINE",
"583 718 OFFCURVE",
"505 740 OFFCURVE",
"419 740 CURVE SMOOTH",
"196 740 OFFCURVE",
"50 591 OFFCURVE",
"50 365 CURVE SMOOTH",
"50 139 OFFCURVE",
"196 -10 OFFCURVE",
"419 -10 CURVE SMOOTH"
);
}
);
width = 710;
},
{
anchors = (
{
name = bottom;
position = "{402, 0}";
},
{
name = cedi;
position = "{317, 0}";
},
{
name = top;
position = "{402, 730}";
}
);
layerId = "9527F797-22C1-480E-A1FE-2CDBEBE1FD4C";
paths = (
{
closed = 1;
nodes = (
"509 -10 OFFCURVE",
"590 10 OFFCURVE",
"660 50 CURVE",
"633 148 LINE",
"563 109 OFFCURVE",
"495 90 OFFCURVE",
"424 90 CURVE SMOOTH",
"257 90 OFFCURVE",
"154 194 OFFCURVE",
"154 365 CURVE SMOOTH",
"154 536 OFFCURVE",
"257 640 OFFCURVE",
"424 640 CURVE SMOOTH",
"496 640 OFFCURVE",
"565 621 OFFCURVE",
"633 582 CURVE",
"660 680 LINE",
"590 720 OFFCURVE",
"509 740 OFFCURVE",
"420 740 CURVE SMOOTH",
"183 740 OFFCURVE",
"40 599 OFFCURVE",
"40 365 CURVE SMOOTH",
"40 131 OFFCURVE",
"183 -10 OFFCURVE",
"420 -10 CURVE SMOOTH"
);
}
);
width = 708;
},
{
anchors = (
{
name = bottom;
position = "{396, 0}";
},
{
name = cedi;
position = "{311, 0}";
},
{
name = top;
position = "{396, 730}";
}
);
layerId = "9E6B41AB-2970-4C41-8B35-4DBE0D296A43";
paths = (
{
closed = 1;
nodes = (
"514 -10 OFFCURVE",
"597 8 OFFCURVE",
"670 46 CURVE",
"627 216 LINE",
"555 178 OFFCURVE",
"489 160 OFFCURVE",
"429 160 CURVE SMOOTH",
"307 160 OFFCURVE",
"238 234 OFFCURVE",
"238 365 CURVE SMOOTH",
"238 496 OFFCURVE",
"307 570 OFFCURVE",
"429 570 CURVE SMOOTH",
"489 570 OFFCURVE",
"555 552 OFFCURVE",
"627 514 CURVE",
"670 684 LINE",
"597 722 OFFCURVE",
"514 740 OFFCURVE",
"421 740 CURVE SMOOTH",
"170 740 OFFCURVE",
"30 606 OFFCURVE",
"30 365 CURVE SMOOTH",
"30 124 OFFCURVE",
"170 -10 OFFCURVE",
"421 -10 CURVE SMOOTH"
);
}
);
width = 706;
}
);
leftKerningGroup = O;
leftMetricsKey = "=O";
rightKerningGroup = C;
rightMetricsKey = "=H*.6";
unicode = 0043;
},
{
color = 10;
glyphname = D;
lastChange = "2021-02-27 02:38:05 +0000";
layers = (
{
anchors = (
{
name = bottom;
position = "{335, 0}";
},
{
name = center;
position = "{335, 365}";
},
{
name = top;
position = "{335, 730}";
}
);
layerId = "D65C9A1E-0FCA-4B2D-8EDF-9F36CA9182A1";
paths = (
{
closed = 1;
nodes = (
"270 0 LINE SMOOTH",
"525 0 OFFCURVE",
"660 126 OFFCURVE",
"660 365 CURVE SMOOTH",
"660 604 OFFCURVE",
"525 730 OFFCURVE",
"270 730 CURVE SMOOTH",
"100 730 LINE",
"100 0 LINE"
);
},
{
closed = 1;
nodes = (
"120 710 LINE",
"270 710 LINE SMOOTH",
"515 710 OFFCURVE",
"640 592 OFFCURVE",
"640 365 CURVE SMOOTH",
"640 138 OFFCURVE",
"515 20 OFFCURVE",
"270 20 CURVE SMOOTH",
"120 20 LINE"
);
}
);
width = 710;
},
{
anchors = (
{
name = bottom;
position = "{335, 0}";
},
{
name = center;
position = "{335, 365}";
},
{
name = top;
position = "{335, 730}";
}
);
layerId = "9527F797-22C1-480E-A1FE-2CDBEBE1FD4C";
paths = (
{
closed = 1;
nodes = (
"290 0 LINE SMOOTH",
"547 0 OFFCURVE",
"670 118 OFFCURVE",
"670 365 CURVE SMOOTH",
"670 612 OFFCURVE",
"547 730 OFFCURVE",
"290 730 CURVE SMOOTH",
"80 730 LINE",
"80 0 LINE"
);
},
{
closed = 1;
nodes = (
"190 630 LINE",
"297 630 LINE SMOOTH",
"479 630 OFFCURVE",
"558 550 OFFCURVE",
"558 365 CURVE SMOOTH",
"558 180 OFFCURVE",
"479 100 OFFCURVE",
"297 100 CURVE SMOOTH",
"190 100 LINE"
);
}
);
width = 710;
},
{
anchors = (
{
name = bottom;
position = "{335, 0}";
},
{
name = center;
position = "{335, 365}";
},
{
name = top;
position = "{335, 730}";
}
);
layerId = "9E6B41AB-2970-4C41-8B35-4DBE0D296A43";
paths = (
{
closed = 1;
nodes = (
"310 0 LINE SMOOTH",
"569 0 OFFCURVE",
"680 109 OFFCURVE",
"680 365 CURVE SMOOTH",
"680 621 OFFCURVE",
"569 730 OFFCURVE",
"310 730 CURVE",
"60 730 LINE",
"60 0 LINE"
);
},
{
closed = 1;
nodes = (
"260 570 LINE",
"323 570 LINE SMOOTH",
"441 570 OFFCURVE",
"475 524 OFFCURVE",
"475 365 CURVE SMOOTH",
"475 206 OFFCURVE",
"441 160 OFFCURVE",
"323 160 CURVE SMOOTH",
"260 160 LINE"
);
}
);
width = 710;
}
);
leftKerningGroup = H;
leftMetricsKey = "=H";
rightKerningGroup = O;
rightMetricsKey = "=O";
unicode = 0044;
},
{
color = 11;
glyphname = Eth;
lastChange = "2021-02-27 02:38:05 +0000";
layers = (
{
anchors = (
{
name = bottom;
position = "{383, 0}";
},
{
name = center;
position = "{383, 365}";
},
{
name = top;
position = "{383, 730}";
}
);
components = (
{
name = D;
transform = "{1, 0, 0, 1, 47, 0}";
}
);
layerId = "D65C9A1E-0FCA-4B2D-8EDF-9F36CA9182A1";
paths = (
{
closed = 1;
nodes = (
"442 355 LINE",
"442 375 LINE",
"32 375 LINE",
"32 355 LINE"
);
}
);
width = 757;
},
{
anchors = (
{
name = bottom;
position = "{397, 0}";
},
{
name = center;
position = "{397, 365}";
},
{
name = top;
position = "{397, 730}";
}
);
components = (
{
alignment = -1;
name = D;
transform = "{1, 0, 0, 1, 54, 0}";
}
);
layerId = "9527F797-22C1-480E-A1FE-2CDBEBE1FD4C";
paths = (
{
closed = 1;
nodes = (
"444 320 LINE",
"444 410 LINE",
"26 410 LINE",
"26 320 LINE"
);
}
);
width = 764;
},
{
anchors = (
{
name = bottom;
position = "{408, 0}";
},
{
name = center;
position = "{408, 365}";
},
{
name = top;
position = "{408, 730}";
}
);
components = (
{
name = D;
transform = "{1, 0, 0, 1, 59, 0}";
}
);
layerId = "9E6B41AB-2970-4C41-8B35-4DBE0D296A43";
paths = (
{
closed = 1;
nodes = (
"445 295 LINE",
"445 435 LINE",
"19 435 LINE",
"19 295 LINE"
);
}
);
width = 769;
}
);
leftKerningGroup = f;
leftMetricsKey = "=f*1.2";
rightKerningGroup = O;
rightMetricsKey = "=O";
unicode = 00D0;
},
{
color = 10;
glyphname = E;
lastChange = "2021-02-27 02:38:05 +0000";
layers = (
{
anchors = (
{
name = bottom;
position = "{335, 0}";
},
{
name = ogonek;
position = "{570, 0}";
},
{
name = top;
position = "{335, 730}";
},
{
name = topleft;
position = "{-2, 730}";
}
);
layerId = "D65C9A1E-0FCA-4B2D-8EDF-9F36CA9182A1";
rightMetricsKey = "=H*.75";
paths = (
{
closed = 1;
nodes = (
"570 0 LINE",
"570 20 LINE",
"120 20 LINE",
"120 380 LINE",
"550 380 LINE",
"550 400 LINE",
"120 400 LINE",
"120 710 LINE",
"570 710 LINE",
"570 730 LINE",
"100 730 LINE",
"100 0 LINE"
);
}
);
width = 645;
},
{
anchors = (
{
name = bottom;
position = "{330, 0}";
},
{
name = ogonek;
position = "{580, 0}";
},
{
name = top;
position = "{330, 730}";
},
{
name = topleft;
position = "{4, 730}";
}
);
layerId = "9527F797-22C1-480E-A1FE-2CDBEBE1FD4C";
rightMetricsKey = "=H*.8";
paths = (
{
closed = 1;
nodes = (
"580 0 LINE",
"580 98 LINE",
"190 98 LINE",
"190 334 LINE",
"560 334 LINE",
"560 430 LINE",
"190 430 LINE",
"190 632 LINE",
"580 632 LINE",
"580 730 LINE",
"80 730 LINE",
"80 0 LINE"
);
}
);
width = 644;
},
{
anchors = (
{
name = bottom;
position = "{325, 0}";
},
{
name = ogonek;
position = "{590, 0}";
},
{
name = top;
position = "{325, 730}";
},
{
name = topleft;
position = "{10, 730}";
}
);
layerId = "9E6B41AB-2970-4C41-8B35-4DBE0D296A43";
rightMetricsKey = "=H*.85";
paths = (
{
closed = 1;
nodes = (
"590 0 LINE",
"590 160 LINE",
"260 160 LINE",
"260 298 LINE",
"570 298 LINE",
"570 452 LINE",
"260 452 LINE",
"260 570 LINE",
"590 570 LINE",
"590 730 LINE",
"60 730 LINE",
"60 0 LINE"
);
}
);
width = 641;
}
);
leftKerningGroup = H;
leftMetricsKey = "=H";
rightKerningGroup = E;
rightMetricsKey = "=H*.85";
unicode = 0045;
},
{
color = 10;
glyphname = F;
lastChange = "2021-02-27 02:38:05 +0000";
layers = (
{
layerId = "D65C9A1E-0FCA-4B2D-8EDF-9F36CA9182A1";
rightMetricsKey = "=H*.55";
paths = (
{
closed = 1;
nodes = (
"120 0 LINE",
"120 355 LINE",
"560 355 LINE",
"560 375 LINE",
"120 375 LINE",
"120 710 LINE",
"580 710 LINE",
"580 730 LINE",
"100 730 LINE",
"100 0 LINE"
);
}
);
width = 635;
},
{
layerId = "9527F797-22C1-480E-A1FE-2CDBEBE1FD4C";
rightMetricsKey = "=H*.65";
paths = (
{
closed = 1;
nodes = (
"190 0 LINE",
"190 309 LINE",
"570 309 LINE",
"570 407 LINE",
"190 407 LINE",
"190 630 LINE",
"590 630 LINE",
"590 730 LINE",
"80 730 LINE",
"80 0 LINE"
);
}
);
width = 642;
},
{
layerId = "9E6B41AB-2970-4C41-8B35-4DBE0D296A43";
rightMetricsKey = "=H*.75";
paths = (
{
closed = 1;
nodes = (
"260 0 LINE",
"260 270 LINE",
"580 270 LINE",
"580 430 LINE",
"260 430 LINE",
"260 565 LINE",
"600 565 LINE",
"600 730 LINE",
"60 730 LINE",
"60 0 LINE"
);
}
);
width = 645;
}
);
leftKerningGroup = H;
leftMetricsKey = "=H";
rightKerningGroup = F;
rightMetricsKey = "=H*.75";
unicode = 0046;
},
{
color = 10;
glyphname = G;
lastChange = "2021-02-27 02:38:05 +0000";
layers = (
{
anchors = (
{
name = bottom;
position = "{428, 0}";
},
{
name = top;
position = "{428, 730}";
}
);
layerId = "D65C9A1E-0FCA-4B2D-8EDF-9F36CA9182A1";
paths = (
{
closed = 1;
nodes = (
"549 -10 OFFCURVE",
"657 11 OFFCURVE",
"730 44 CURVE",
"730 400 LINE",
"350 400 LINE",
"350 380 LINE",
"710 380 LINE",
"710 45 LINE",
"722 62 LINE",
"651 30 OFFCURVE",
"546 10 OFFCURVE",
"452 10 CURVE SMOOTH",
"212 10 OFFCURVE",
"70 142 OFFCURVE",
"70 365 CURVE SMOOTH",
"70 582 OFFCURVE",
"218 720 OFFCURVE",
"452 720 CURVE SMOOTH",
"541 720 OFFCURVE",
"627 700 OFFCURVE",
"692 663 CURVE",
"702 680 LINE",
"635 718 OFFCURVE",
"546 740 OFFCURVE",
"452 740 CURVE SMOOTH",
"213 740 OFFCURVE",
"50 599 OFFCURVE",
"50 365 CURVE SMOOTH",
"50 131 OFFCURVE",
"201 -10 OFFCURVE",
"452 -10 CURVE SMOOTH"
);
}
);
width = 815;
},
{
anchors = (
{
name = bottom;
position = "{423, 0}";
},
{
name = top;
position = "{423, 730}";
}
);
layerId = "9527F797-22C1-480E-A1FE-2CDBEBE1FD4C";
paths = (
{
closed = 1;
nodes = (
"556 -10 OFFCURVE",
"664 11 OFFCURVE",
"740 47 CURVE",
"740 426 LINE",
"355 426 LINE",
"355 332 LINE",
"630 332 LINE",
"630 88 LINE",
"647 127 LINE",
"594 103 OFFCURVE",
"525 90 OFFCURVE",
"455 90 CURVE SMOOTH",
"263 90 OFFCURVE",
"153 190 OFFCURVE",
"153 365 CURVE SMOOTH",
"153 538 OFFCURVE",
"263 640 OFFCURVE",
"449 640 CURVE SMOOTH",
"530 640 OFFCURVE",
"613 621 OFFCURVE",
"676 587 CURVE",
"702 682 LINE",
"634 720 OFFCURVE",
"545 740 OFFCURVE",
"449 740 CURVE SMOOTH",
"195 740 OFFCURVE",
"40 598 OFFCURVE",
"40 365 CURVE SMOOTH",
"40 131 OFFCURVE",
"196 -10 OFFCURVE",
"455 -10 CURVE SMOOTH"
);
}
);
width = 808;
},
{
anchors = (
{
name = bottom;
position = "{419, 0}";
},
{
name = top;
position = "{419, 730}";
}
);
layerId = "9E6B41AB-2970-4C41-8B35-4DBE0D296A43";
paths = (
{
closed = 1;
nodes = (
"566 -10 OFFCURVE",
"673 12 OFFCURVE",
"750 50 CURVE",
"750 452 LINE",
"360 452 LINE",
"360 287 LINE",
"550 287 LINE",
"550 131 LINE",
"573 177 LINE",
"535 161 OFFCURVE",
"502 155 OFFCURVE",
"458 155 CURVE SMOOTH",
"310 155 OFFCURVE",
"235 225 OFFCURVE",
"235 365 CURVE SMOOTH",
"235 503 OFFCURVE",
"308 575 OFFCURVE",
"447 575 CURVE SMOOTH",
"520 575 OFFCURVE",
"601 556 OFFCURVE",
"661 524 CURVE",
"703 684 LINE",
"636 720 OFFCURVE",
"545 740 OFFCURVE",
"447 740 CURVE SMOOTH",
"185 740 OFFCURVE",
"30 601 OFFCURVE",
"30 365 CURVE SMOOTH",
"30 129 OFFCURVE",
"188 -10 OFFCURVE",
"458 -10 CURVE SMOOTH"
);
}
);
width = 801;
}
);
leftKerningGroup = O;
leftMetricsKey = "=O";
rightKerningGroup = G;
rightMetricsKey = "=H*.85";
unicode = 0047;
},
{
color = 10;
glyphname = H;
lastChange = "2021-02-27 02:38:00 +0000";
layers = (
{
anchors = (
{
name = bottom;
position = "{365, 0}";
},
{
name = center;
position = "{365, 365}";
},
{
name = top;
position = "{365, 730}";
},
{
name = topleft;
position = "{15, 730}";
}
);
layerId = "D65C9A1E-0FCA-4B2D-8EDF-9F36CA9182A1";
paths = (
{
closed = 1;
nodes = (
"630 0 LINE",
"630 730 LINE",
"610 730 LINE",
"610 0 LINE"
);
},
{
closed = 1;
nodes = (
"120 0 LINE",
"120 730 LINE",
"100 730 LINE",
"100 0 LINE"
);
},
{
closed = 1;
nodes = (
"620 380 LINE",
"620 400 LINE",
"110 400 LINE",
"110 380 LINE"
);
}
);
width = 730;
},
{
anchors = (
{
name = bottom;
position = "{365, 0}";
},
{
name = center;
position = "{365, 365}";
},
{
name = top;
position = "{365, 730}";
},
{
name = topleft;
position = "{10, 730}";
}
);
layerId = "9527F797-22C1-480E-A1FE-2CDBEBE1FD4C";
paths = (
{
closed = 1;
nodes = (
"650 0 LINE",
"650 730 LINE",
"540 730 LINE",
"540 0 LINE"
);
},
{
closed = 1;
nodes = (
"190 0 LINE",
"190 730 LINE",
"80 730 LINE",
"80 0 LINE"
);
},
{
closed = 1;
nodes = (
"595 332 LINE",
"595 432 LINE",
"135 432 LINE",
"135 332 LINE"
);
}
);
width = 730;
},
{
anchors = (
{
name = bottom;
position = "{365, 0}";
},
{
name = center;
position = "{365, 365}";
},
{
name = top;
position = "{365, 730}";
},
{
name = topleft;
position = "{5, 730}";
}
);
layerId = "9E6B41AB-2970-4C41-8B35-4DBE0D296A43";
paths = (
{
closed = 1;
nodes = (
"670 0 LINE",
"670 730 LINE",
"470 730 LINE",
"470 0 LINE"
);
},
{
closed = 1;
nodes = (
"260 0 LINE",
"260 730 LINE",
"60 730 LINE",
"60 0 LINE"
);
},
{
closed = 1;
nodes = (
"570 290 LINE",
"570 460 LINE",
"160 460 LINE",
"160 290 LINE"
);
}
);
width = 730;
}
);
leftKerningGroup = H;
rightKerningGroup = H;
rightMetricsKey = "=|";
unicode = 0048;
},
{
color = 11;
glyphname = Hbar;
lastChange = "2021-02-27 02:38:05 +0000";
layers = (
{
components = (
{
name = H;
transform = "{1, 0, 0, 1, 32, 0}";
}
);
layerId = "D65C9A1E-0FCA-4B2D-8EDF-9F36CA9182A1";
paths = (
{
closed = 1;
nodes = (
"772 586 LINE",
"772 606 LINE",
"32 606 LINE",
"32 586 LINE"
);
}
);
width = 804;
},
{
components = (
{
alignment = -1;
name = H;
transform = "{1, 0, 0, 1, 40, 0}";
}
);
layerId = "9527F797-22C1-480E-A1FE-2CDBEBE1FD4C";
paths = (
{
closed = 1;
nodes = (
"802 551 LINE",
"802 641 LINE",
"28 641 LINE",
"28 551 LINE"
);
}
);
width = 830;
},
{
components = (
{
name = H;
transform = "{1, 0, 0, 1, 49, 0}";
}
);
layerId = "9E6B41AB-2970-4C41-8B35-4DBE0D296A43";
paths = (
{
closed = 1;
nodes = (
"834 526 LINE",
"834 666 LINE",
"24 666 LINE",
"24 526 LINE"
);
}
);
width = 858;
}
);
leftKerningGroup = W;
leftMetricsKey = "=W";
rightKerningGroup = W;
rightMetricsKey = "=|";
unicode = 0126;
},
{
color = 10;
glyphname = I;
lastChange = "2021-02-27 02:38:05 +0000";
layers = (
{
anchors = (
{
name = bottom;
position = "{120, 0}";
},
{
name = ogonek;
position = "{130, 0}";
},
{
name = top;
position = "{120, 730}";
},
{
name = topleft;
position = "{25, 730}";
}
);
layerId = "D65C9A1E-0FCA-4B2D-8EDF-9F36CA9182A1";
paths = (
{
closed = 1;
nodes = (
"130 0 LINE",
"130 730 LINE",
"110 730 LINE",
"110 0 LINE"
);
}
);
width = 240;
},
{
anchors = (
{
name = bottom;
position = "{145, 0}";
},
{
name = ogonek;
position = "{202, 0}";
},
{
name = top;
position = "{145, 730}";
},
{
name = topleft;
position = "{20, 730}";
}
);
layerId = "9527F797-22C1-480E-A1FE-2CDBEBE1FD4C";
paths = (
{
closed = 1;
nodes = (
"202 0 LINE",
"202 730 LINE",
"88 730 LINE",
"88 0 LINE"
);
}
);
width = 290;
},
{
anchors = (
{
name = bottom;
position = "{171, 0}";
},
{
name = ogonek;
position = "{276, 0}";
},
{
name = top;
position = "{171, 730}";
},
{
name = topleft;
position = "{14, 730}";
}
);
layerId = "9E6B41AB-2970-4C41-8B35-4DBE0D296A43";
paths = (
{
closed = 1;
nodes = (
"276 0 LINE",
"276 730 LINE",
"66 730 LINE",
"66 0 LINE"
);
}
);
width = 342;
}
);
leftKerningGroup = I;
leftMetricsKey = "=H*1.1";
rightKerningGroup = I;
rightMetricsKey = "=|";
unicode = 0049;
},
{
color = 10;
glyphname = J;
lastChange = "2021-02-27 02:38:05 +0000";
layers = (
{
anchors = (
{
name = bottom;
position = "{300, 0}";
},
{
name = top;
position = "{300, 730}";
}
);
layerId = "9527F797-22C1-480E-A1FE-2CDBEBE1FD4C";
leftMetricsKey = "=H*.2";
paths = (
{
closed = 1;
nodes = (
"438 -10 OFFCURVE",
"526 72 OFFCURVE",
"526 250 CURVE SMOOTH",
"526 730 LINE",
"414 730 LINE",
"414 270 LINE SMOOTH",
"414 143 OFFCURVE",
"364 92 OFFCURVE",
"240 92 CURVE SMOOTH",
"173 92 OFFCURVE",
"113 107 OFFCURVE",
"38 142 CURVE",
"16 40 LINE",
"84 6 OFFCURVE",
"160 -10 OFFCURVE",
"246 -10 CURVE SMOOTH"
);
}
);
width = 598;
},
{
anchors = (
{
name = bottom;
position = "{297, 0}";
},
{
name = top;
position = "{297, 730}";
}
);
layerId = "9E6B41AB-2970-4C41-8B35-4DBE0D296A43";
leftMetricsKey = "=H*.1";
paths = (
{
closed = 1;
nodes = (
"454 -10 OFFCURVE",
"546 72 OFFCURVE",
"546 260 CURVE SMOOTH",
"546 730 LINE",
"341 730 LINE",
"341 300 LINE SMOOTH",
"341 195 OFFCURVE",
"316 165 OFFCURVE",
"230 165 CURVE SMOOTH",
"180 165 OFFCURVE",
"132 175 OFFCURVE",
"36 204 CURVE",
"6 29 LINE",
"78 4 OFFCURVE",
"161 -10 OFFCURVE",
"243 -10 CURVE SMOOTH"
);
}
);
width = 600;
},
{
anchors = (
{
name = bottom;
position = "{306, 0}";
},
{
name = top;
position = "{306, 730}";
}
);
layerId = "D65C9A1E-0FCA-4B2D-8EDF-9F36CA9182A1";
leftMetricsKey = "=H*.3";
paths = (
{
closed = 1;
nodes = (
"426 -10 OFFCURVE",
"510 72 OFFCURVE",
"510 240 CURVE SMOOTH",
"510 730 LINE",
"490 730 LINE",
"490 240 LINE SMOOTH",
"490 83 OFFCURVE",
"415 10 OFFCURVE",
"253 10 CURVE SMOOTH",
"170 10 OFFCURVE",
"98 29 OFFCURVE",
"41 67 CURVE",
"30 50 LINE",
"91 10 OFFCURVE",
"167 -10 OFFCURVE",
"253 -10 CURVE SMOOTH"
);
}
);
width = 600;
}
);
leftKerningGroup = J;
leftMetricsKey = "=H*.05";
rightKerningGroup = U;
rightMetricsKey = "=U";
unicode = 004A;
},
{
color = 10;
glyphname = K;
lastChange = "2021-02-27 02:38:05 +0000";
layers = (
{
anchors = (
{
name = bottom;
position = "{315, 0}";
},
{
name = top;
position = "{315, 730}";
}
);
layerId = "D65C9A1E-0FCA-4B2D-8EDF-9F36CA9182A1";
rightMetricsKey = "=H*.3";
paths = (
{
closed = 1;
nodes = (
"120 0 LINE",
"120 376 LINE",
"122 376 LINE",
"608 0 LINE",
"640 0 LINE",
"136 390 LINE",
"630 730 LINE",
"596 730 LINE",
"122 404 LINE",
"120 404 LINE",
"120 730 LINE",
"100 730 LINE",
"100 0 LINE"
);
}
);
width = 670;
},
{
anchors = (
{
name = bottom;
position = "{333, 0}";
},
{
name = top;
position = "{333, 730}";
}
);
layerId = "9527F797-22C1-480E-A1FE-2CDBEBE1FD4C";
rightMetricsKey = "=H*.25";
paths = (
{
closed = 1;
nodes = (
"190 0 LINE",
"190 351 LINE",
"192 351 LINE",
"540 0 LINE",
"680 0 LINE",
"301 382 LINE",
"670 730 LINE",
"530 730 LINE",
"192 413 LINE",
"190 413 LINE",
"190 730 LINE",
"80 730 LINE",
"80 0 LINE"
);
}
);
width = 700;
},
{
anchors = (
{
name = bottom;
position = "{350, 0}";
},
{
name = top;
position = "{350, 730}";
}
);
layerId = "9E6B41AB-2970-4C41-8B35-4DBE0D296A43";
rightMetricsKey = "=H*.2";
paths = (
{
closed = 1;
nodes = (
"260 0 LINE",
"260 335 LINE",
"262 335 LINE",
"490 0 LINE",
"720 0 LINE",
"465 375 LINE",
"710 730 LINE",
"480 730 LINE",
"262 415 LINE",
"260 415 LINE",
"260 730 LINE",
"60 730 LINE",
"60 0 LINE"
);
}
);
width = 732;
}
);
leftKerningGroup = H;
leftMetricsKey = "=H";
rightKerningGroup = K;
rightMetricsKey = "=H*.2";
unicode = 004B;
},
{
color = 10;
glyphname = L;
lastChange = "2021-02-27 02:38:05 +0000";
layers = (
{
anchors = (
{
name = bottom;
position = "{322, 0}";
},
{
name = center;
position = "{322, 375}";
},
{
name = pdcenter;
position = "{525, 375}";
},
{
name = top;
position = "{322, 730}";
},
{
name = topright;
position = "{593, 730}";
}
);
layerId = "D65C9A1E-0FCA-4B2D-8EDF-9F36CA9182A1";
rightMetricsKey = "=H*.5";
paths = (
{
closed = 1;
nodes = (
"590 0 LINE",
"590 20 LINE",
"120 20 LINE",
"120 730 LINE",
"100 730 LINE",
"100 0 LINE"
);
}
);
width = 640;
},
{
anchors = (
{
name = bottom;
position = "{318, 0}";
},
{
name = center;
position = "{318, 375}";
},
{
name = pdcenter;
position = "{565, 375}";
},
{
name = top;
position = "{318, 730}";
},
{
name = topright;
position = "{611, 730}";
}
);
layerId = "9527F797-22C1-480E-A1FE-2CDBEBE1FD4C";
rightMetricsKey = "=H*.45";
paths = (
{
closed = 1;
nodes = (
"600 0 LINE",
"600 100 LINE",
"193 100 LINE",
"193 730 LINE",
"80 730 LINE",
"80 0 LINE"
);
}
);
width = 636;
},
{
anchors = (
{
name = bottom;
position = "{316, 0}";
},
{
name = center;
position = "{316, 375}";
},
{
name = pdcenter;
position = "{605, 375}";
},
{
name = top;
position = "{316, 730}";
},
{
name = topright;
position = "{611, 730}";
}
);
layerId = "9E6B41AB-2970-4C41-8B35-4DBE0D296A43";
rightMetricsKey = "=H*.4";
paths = (
{
closed = 1;
nodes = (
"610 0 LINE",
"610 170 LINE",
"265 170 LINE",
"265 730 LINE",
"60 730 LINE",
"60 0 LINE"
);
}
);
width = 634;
}
);
leftKerningGroup = H;
leftMetricsKey = "=H";
rightKerningGroup = L;
rightMetricsKey = "=H*.4";
unicode = 004C;
},
{
color = 11;
glyphname = Lslash;
lastChange = "2021-02-27 02:38:05 +0000";
layers = (
{
components = (
{
name = L;
transform = "{1, 0, 0, 1, 83, 0}";
}
);
layerId = "D65C9A1E-0FCA-4B2D-8EDF-9F36CA9182A1";
paths = (
{
closed = 1;
nodes = (
"357 431 LINE",
"349 449 LINE",
"19 299 LINE",
"27 281 LINE"
);
}
);
width = 723;
},
{
components = (
{
name = L;
transform = "{1, 0, 0, 1, 89, 0}";
}
);
layerId = "9527F797-22C1-480E-A1FE-2CDBEBE1FD4C";
paths = (
{
closed = 1;
nodes = (
"445 407 LINE",
"409 491 LINE",
"9 323 LINE",
"45 239 LINE"
);
}
);
width = 725;
},
{
components = (
{
name = L;
transform = "{1, 0, 0, 1, 99, 0}";
}
);
layerId = "9E6B41AB-2970-4C41-8B35-4DBE0D296A43";
paths = (
{
closed = 1;
nodes = (
"531 393 LINE",
"476 523 LINE",
"7 337 LINE",
"62 207 LINE"
);
}
);
width = 733;
}
);
leftKerningGroup = t;
leftMetricsKey = "=t*.5";
rightKerningGroup = L;
rightMetricsKey = "=L";
unicode = 0141;
},
{
color = 10;
glyphname = M;
lastChange = "2021-02-27 02:38:05 +0000";
layers = (
{
layerId = "D65C9A1E-0FCA-4B2D-8EDF-9F36CA9182A1";
paths = (
{
closed = 1;
nodes = (
"120 0 LINE",
"120 709 LINE",
"122 709 LINE",
"418 155 LINE",
"442 155 LINE",
"738 709 LINE",
"740 709 LINE",
"740 0 LINE",
"760 0 LINE",
"760 730 LINE",
"729 730 LINE",
"431 174 LINE",
"429 174 LINE",
"131 730 LINE",
"100 730 LINE",
"100 0 LINE"
);
}
);
width = 860;
},
{
layerId = "9527F797-22C1-480E-A1FE-2CDBEBE1FD4C";
paths = (
{
closed = 1;
nodes = (
"190 0 LINE",
"190 555 LINE",
"192 555 LINE",
"383 155 LINE",
"487 155 LINE",
"678 555 LINE",
"680 555 LINE",
"680 0 LINE",
"790 0 LINE",
"790 730 LINE",
"650 730 LINE",
"436 283 LINE",
"434 283 LINE",
"220 730 LINE",
"80 730 LINE",
"80 0 LINE"
);
}
);
width = 870;
},
{
layerId = "9E6B41AB-2970-4C41-8B35-4DBE0D296A43";
paths = (
{
closed = 1;
nodes = (
"260 0 LINE",
"260 420 LINE",
"262 420 LINE",
"350 155 LINE",
"530 155 LINE",
"618 420 LINE",
"620 420 LINE",
"620 0 LINE",
"820 0 LINE",
"820 730 LINE",
"572 730 LINE",
"441 340 LINE",
"439 340 LINE",
"308 730 LINE",
"60 730 LINE",
"60 0 LINE"
);
}
);
width = 880;
}
);
leftKerningGroup = H;
leftMetricsKey = "=H";
rightKerningGroup = H;
rightMetricsKey = "=|";
unicode = 004D;
},
{
color = 10;
glyphname = N;
lastChange = "2021-02-27 02:38:05 +0000";
layers = (
{
anchors = (
{
name = bottom;
position = "{370, 0}";
},
{
name = top;
position = "{370, 730}";
}
);
layerId = "D65C9A1E-0FCA-4B2D-8EDF-9F36CA9182A1";
paths = (
{
closed = 1;
nodes = (
"120 0 LINE",
"120 709 LINE",
"122 709 LINE",
"609 0 LINE",
"640 0 LINE",
"640 730 LINE",
"620 730 LINE",
"620 21 LINE",
"618 21 LINE",
"131 730 LINE",
"100 730 LINE",
"100 0 LINE"
);
}
);
width = 740;
},
{
anchors = (
{
name = bottom;
position = "{370, 0}";
},
{
name = top;
position = "{370, 730}";
}
);
layerId = "9527F797-22C1-480E-A1FE-2CDBEBE1FD4C";
paths = (
{
closed = 1;
nodes = (
"190 0 LINE",
"190 550 LINE",
"192 550 LINE",
"540 0 LINE",
"660 0 LINE",
"660 730 LINE",
"550 730 LINE",
"550 180 LINE",
"548 180 LINE",
"200 730 LINE",
"80 730 LINE",
"80 0 LINE"
);
}
);
width = 740;
},
{
anchors = (
{
name = bottom;
position = "{370, 0}";
},
{
name = top;
position = "{370, 730}";
}
);
layerId = "9E6B41AB-2970-4C41-8B35-4DBE0D296A43";
paths = (
{
closed = 1;
nodes = (
"260 0 LINE",
"260 390 LINE",
"262 390 LINE",
"480 0 LINE",
"680 0 LINE",
"680 730 LINE",
"480 730 LINE",
"480 340 LINE",
"478 340 LINE",
"260 730 LINE",
"60 730 LINE",
"60 0 LINE"
);
}
);
width = 740;
}
);
leftKerningGroup = H;
leftMetricsKey = "=H";
rightKerningGroup = H;
rightMetricsKey = "=|";
unicode = 004E;
},
{
color = 11;
glyphname = Eng;
lastChange = "2021-02-27 02:38:05 +0000";
layers = (
{
anchors = (
{
name = bottom;
position = "{370, 0}";
},
{
name = top;
position = "{370, 730}";
}
);
background = {
components = (
{
name = N;
transform = "{1, 0, 0, 1, -15, 0}";
}
);
};
layerId = "D65C9A1E-0FCA-4B2D-8EDF-9F36CA9182A1";
paths = (
{
closed = 1;
nodes = (
"597 -211 OFFCURVE",
"640 -164 OFFCURVE",
"640 -61 CURVE SMOOTH",
"640 730 LINE",
"620 730 LINE",
"620 21 LINE",
"618 21 LINE",
"131 730 LINE",
"100 730 LINE",
"100 0 LINE",
"120 0 LINE",
"120 709 LINE",
"122 709 LINE",
"631 -32 LINE",
"620 0 LINE",
"620 -61 LINE SMOOTH",
"620 -153 OFFCURVE",
"585 -191 OFFCURVE",
"500 -191 CURVE SMOOTH",
"475 -191 OFFCURVE",
"449 -186 OFFCURVE",
"427 -177 CURVE",
"420 -196 LINE",
"444 -205 OFFCURVE",
"473 -211 OFFCURVE",
"500 -211 CURVE SMOOTH"
);
}
);
width = 740;
},
{
anchors = (
{
name = bottom;
position = "{370, 0}";
},
{
name = top;
position = "{370, 730}";
}
);
background = {
components = (
{
name = N;
transform = "{1, 0, 0, 1, -15, 0}";
}
);
};
layerId = "9527F797-22C1-480E-A1FE-2CDBEBE1FD4C";
paths = (
{
closed = 1;
nodes = (
"608 -221 OFFCURVE",
"660 -163 OFFCURVE",
"660 -26 CURVE SMOOTH",
"660 730 LINE",
"550 730 LINE",
"550 180 LINE",
"548 180 LINE",
"200 730 LINE",
"80 730 LINE",
"80 0 LINE",
"190 0 LINE",
"190 550 LINE",
"192 550 LINE",
"566 -41 LINE",
"552 9 LINE",
"552 -26 LINE SMOOTH",
"552 -97 OFFCURVE",
"526 -126 OFFCURVE",
"462 -126 CURVE SMOOTH",
"437 -126 OFFCURVE",
"411 -122 OFFCURVE",
"387 -114 CURVE",
"370 -205 LINE",
"408 -216 OFFCURVE",
"446 -221 OFFCURVE",
"484 -221 CURVE SMOOTH"
);
}
);
width = 740;
},
{
anchors = (
{
name = bottom;
position = "{370, 0}";
},
{
name = top;
position = "{370, 730}";
}
);
background = {
components = (
{
name = N;
transform = "{1, 0, 0, 1, -15, 0}";
}
);
};
layerId = "9E6B41AB-2970-4C41-8B35-4DBE0D296A43";
paths = (
{
closed = 1;
nodes = (
"625 -229 OFFCURVE",
"680 -169 OFFCURVE",
"680 0 CURVE SMOOTH",
"680 730 LINE",
"480 730 LINE",
"480 340 LINE",
"478 340 LINE",
"260 730 LINE",
"60 730 LINE",
"60 0 LINE",
"260 0 LINE",
"260 390 LINE",
"262 390 LINE",
"524 -79 LINE",
"480 90 LINE",
"480 0 LINE",
"480 -55 OFFCURVE",
"468 -70 OFFCURVE",
"425 -70 CURVE SMOOTH",
"404 -70 OFFCURVE",
"370 -66 OFFCURVE",
"342 -59 CURVE",
"322 -214 LINE",
"370 -223 OFFCURVE",
"420 -229 OFFCURVE",
"468 -229 CURVE SMOOTH"
);
}
);
width = 740;
}
);
leftKerningGroup = H;
leftMetricsKey = "=N";
rightKerningGroup = H;
rightMetricsKey = "=N";
unicode = 014A;
},
{
color = 10;
glyphname = O;
lastChange = "2021-02-27 02:38:05 +0000";
layers = (
{
anchors = (
{
name = bottom;
position = "{420, 0}";
},
{
name = center;
position = "{420, 365}";
},
{
name = ogonek;
position = "{470, 0}";
},
{
name = top;
position = "{420, 730}";
},
{
name = topleft;
position = "{42, 730}";
},
{
name = topright;
position = "{617, 690}";
}
);
layerId = "D65C9A1E-0FCA-4B2D-8EDF-9F36CA9182A1";
paths = (
{
closed = 1;
nodes = (
"640 -10 OFFCURVE",
"790 142 OFFCURVE",
"790 365 CURVE SMOOTH",
"790 588 OFFCURVE",
"640 740 OFFCURVE",
"420 740 CURVE SMOOTH",
"200 740 OFFCURVE",
"50 588 OFFCURVE",
"50 365 CURVE SMOOTH",
"50 142 OFFCURVE",
"200 -10 OFFCURVE",
"420 -10 CURVE SMOOTH"
);
},
{
closed = 1;
nodes = (
"211 10 OFFCURVE",
"70 153 OFFCURVE",
"70 365 CURVE SMOOTH",
"70 577 OFFCURVE",
"211 720 OFFCURVE",
"420 720 CURVE SMOOTH",
"629 720 OFFCURVE",
"770 577 OFFCURVE",
"770 365 CURVE SMOOTH",
"770 153 OFFCURVE",
"629 10 OFFCURVE",
"420 10 CURVE SMOOTH"
);
}
);
width = 840;
},
{
anchors = (
{
name = bottom;
position = "{415, 0}";
},
{
name = center;
position = "{415, 365}";
},
{
name = ogonek;
position = "{482, 0}";
},
{
name = top;
position = "{415, 730}";
},
{
name = topleft;
position = "{33, 730}";
},
{
name = topright;
position = "{620, 690}";
}
);
layerId = "9527F797-22C1-480E-A1FE-2CDBEBE1FD4C";
paths = (
{
closed = 1;
nodes = (
"644 -10 OFFCURVE",
"790 136 OFFCURVE",
"790 365 CURVE SMOOTH",
"790 594 OFFCURVE",
"644 740 OFFCURVE",
"415 740 CURVE SMOOTH",
"186 740 OFFCURVE",
"40 594 OFFCURVE",
"40 365 CURVE SMOOTH",
"40 136 OFFCURVE",
"186 -10 OFFCURVE",
"415 -10 CURVE SMOOTH"
);
},
{
closed = 1;
nodes = (
"252 90 OFFCURVE",
"153 195 OFFCURVE",
"153 365 CURVE SMOOTH",
"153 535 OFFCURVE",
"252 640 OFFCURVE",
"415 640 CURVE SMOOTH",
"577 640 OFFCURVE",
"677 535 OFFCURVE",
"677 365 CURVE SMOOTH",
"677 195 OFFCURVE",
"577 90 OFFCURVE",
"415 90 CURVE SMOOTH"
);
}
);
width = 830;
},
{
anchors = (
{
name = bottom;
position = "{410, 0}";
},
{
name = center;
position = "{410, 365}";
},
{
name = ogonek;
position = "{493, 0}";
},
{
name = top;
position = "{410, 730}";
},
{
name = topleft;
position = "{23, 730}";
},
{
name = topright;
position = "{622, 690}";
}
);
layerId = "9E6B41AB-2970-4C41-8B35-4DBE0D296A43";
paths = (
{
closed = 1;
nodes = (
"649 -10 OFFCURVE",
"790 129 OFFCURVE",
"790 365 CURVE SMOOTH",
"790 601 OFFCURVE",
"649 740 OFFCURVE",
"410 740 CURVE SMOOTH",
"171 740 OFFCURVE",
"30 601 OFFCURVE",
"30 365 CURVE SMOOTH",
"30 129 OFFCURVE",
"171 -10 OFFCURVE",
"410 -10 CURVE SMOOTH"
);
},
{
closed = 1;
nodes = (
"294 160 OFFCURVE",
"235 229 OFFCURVE",
"235 365 CURVE SMOOTH",
"235 501 OFFCURVE",
"294 570 OFFCURVE",
"410 570 CURVE SMOOTH",
"526 570 OFFCURVE",
"585 501 OFFCURVE",
"585 365 CURVE SMOOTH",
"585 229 OFFCURVE",
"526 160 OFFCURVE",
"410 160 CURVE SMOOTH"
);
}
);
width = 820;
}
);
leftKerningGroup = O;
leftMetricsKey = "=H*.5";
rightKerningGroup = O;
rightMetricsKey = "=|";
unicode = 004F;
},
{
color = 11;
glyphname = Oslash;
lastChange = "2020-12-14 03:36:41 +0000";
layers = (
{
anchors = (
{
name = bottom;
position = "{418, 0}";
},
{
name = top;
position = "{418, 730}";
}
);
components = (
{
name = O;
}
);
layerId = "D65C9A1E-0FCA-4B2D-8EDF-9F36CA9182A1";
paths = (
{
closed = 1;
nodes = (
"205 63 LINE",
"205 63 LINE",
"647 655 LINE",
"647 655 LINE",
"706 734 LINE",
"690 746 LINE",
"631 667 LINE",
"631 667 LINE",
"189 75 LINE",
"189 75 LINE",
"130 -4 LINE",
"146 -16 LINE"
);
}
);
width = 794;
},
{
anchors = (
{
name = bottom;
position = "{415, 0}";
},
{
name = top;
position = "{415, 730}";
}
);
components = (
{
alignment = -1;
name = O;
}
);
layerId = "9527F797-22C1-480E-A1FE-2CDBEBE1FD4C";
paths = (
{
closed = 1;
nodes = (
"230 41 LINE",
"230 41 LINE",
"670 629 LINE",
"670 629 LINE",
"732 713 LINE",
"659 768 LINE",
"601 689 LINE",
"601 689 LINE",
"161 101 LINE",
"161 101 LINE",
"98 18 LINE",
"171 -38 LINE"
);
}
);
width = 804;
},
{
anchors = (
{
name = bottom;
position = "{413, 0}";
},
{
name = top;
position = "{413, 730}";
}
);
components = (
{
name = O;
}
);
layerId = "9E6B41AB-2970-4C41-8B35-4DBE0D296A43";
paths = (
{
closed = 1;
nodes = (
"255 28 LINE",
"243 37 LINE",
"679 621 LINE",
"691 612 LINE",
"753 695 LINE",
"633 785 LINE",
"571 702 LINE",
"583 693 LINE",
"147 109 LINE",
"135 118 LINE",
"73 35 LINE",
"193 -55 LINE"
);
}
);
width = 814;
}
);
leftKerningGroup = O;
rightKerningGroup = O;
unicode = 00D8;
},
{
color = 11;
glyphname = OE;
lastChange = "2021-02-27 02:38:05 +0000";
layers = (
{
components = (
{
name = E;
transform = "{1, 0, 0, 1, 450, 0}";
}
);
layerId = "D65C9A1E-0FCA-4B2D-8EDF-9F36CA9182A1";
paths = (
{
closed = 1;
nodes = (
"454 -10 OFFCURVE",
"524 -4 OFFCURVE",
"570 4 CURVE",
"556 33 LINE",
"572 25 LINE",
"527 16 OFFCURVE",
"455 10 OFFCURVE",
"408 10 CURVE SMOOTH",
"197 10 OFFCURVE",
"70 144 OFFCURVE",
"70 365 CURVE SMOOTH",
"70 586 OFFCURVE",
"197 720 OFFCURVE",
"408 720 CURVE SMOOTH",
"455 720 OFFCURVE",
"527 714 OFFCURVE",
"572 705 CURVE",
"556 697 LINE",
"570 726 LINE",
"524 734 OFFCURVE",
"454 740 OFFCURVE",
"408 740 CURVE SMOOTH",
"186 740 OFFCURVE",
"50 597 OFFCURVE",
"50 365 CURVE SMOOTH",
"50 133 OFFCURVE",
"186 -10 OFFCURVE",
"408 -10 CURVE SMOOTH"
);
}
);
width = 1095;
},
{
components = (
{
alignment = -1;
name = E;
transform = "{1, 0, 0, 1, 424, 0}";
}
);
layerId = "9527F797-22C1-480E-A1FE-2CDBEBE1FD4C";
paths = (
{
closed = 1;
nodes = (
"490 -10 OFFCURVE",
"574 12 OFFCURVE",
"629 50 CURVE",
"520 166 LINE",
"570 165 LINE",
"539 116 OFFCURVE",
"476 90 OFFCURVE",
"406 90 CURVE SMOOTH",
"245 90 OFFCURVE",
"153 190 OFFCURVE",
"153 365 CURVE SMOOTH",
"153 541 OFFCURVE",
"245 640 OFFCURVE",
"406 640 CURVE SMOOTH",
"476 640 OFFCURVE",
"539 614 OFFCURVE",
"570 565 CURVE",
"520 565 LINE",
"629 680 LINE",
"574 719 OFFCURVE",
"490 740 OFFCURVE",
"406 740 CURVE SMOOTH",
"177 740 OFFCURVE",
"40 599 OFFCURVE",
"40 365 CURVE SMOOTH",
"40 131 OFFCURVE",
"177 -10 OFFCURVE",
"406 -10 CURVE SMOOTH"
);
}
);
width = 1068;
},
{
components = (
{
name = E;
transform = "{1, 0, 0, 1, 443, 0}";
}
);
layerId = "9E6B41AB-2970-4C41-8B35-4DBE0D296A43";
paths = (
{
closed = 1;
nodes = (
"527 -10 OFFCURVE",
"624 27 OFFCURVE",
"688 96 CURVE",
"484 298 LINE",
"569 297 LINE",
"552 206 OFFCURVE",
"497 160 OFFCURVE",
"405 160 CURVE SMOOTH",
"292 160 OFFCURVE",
"235 229 OFFCURVE",
"235 365 CURVE SMOOTH",
"235 501 OFFCURVE",
"292 570 OFFCURVE",
"405 570 CURVE SMOOTH",
"497 570 OFFCURVE",
"552 524 OFFCURVE",
"569 433 CURVE",
"484 432 LINE",
"688 634 LINE",
"624 703 OFFCURVE",
"527 740 OFFCURVE",
"405 740 CURVE SMOOTH",
"169 740 OFFCURVE",
"30 601 OFFCURVE",
"30 365 CURVE SMOOTH",
"30 129 OFFCURVE",
"169 -10 OFFCURVE",
"405 -10 CURVE SMOOTH"
);
}
);
width = 1084;
},
{
associatedMasterId = "9527F797-22C1-480E-A1FE-2CDBEBE1FD4C";
components = (
{
name = E;
transform = "{1, 0, 0, 1, 419, 0}";
}
);
layerId = "98E51C1D-8AF7-4854-9D9A-43A5CE2B2063";
name = "Dec 30 20, 15:23";
paths = (
{
closed = 1;
nodes = (
"473 -10 OFFCURVE",
"534 4 OFFCURVE",
"586 31 CURVE",
"534 121 LINE",
"497 101 OFFCURVE",
"453 90 OFFCURVE",
"403 90 CURVE SMOOTH",
"247 90 OFFCURVE",
"153 193 OFFCURVE",
"153 365 CURVE SMOOTH",
"153 537 OFFCURVE",
"247 640 OFFCURVE",
"403 640 CURVE SMOOTH",
"453 640 OFFCURVE",
"497 629 OFFCURVE",
"534 609 CURVE",
"586 699 LINE",
"534 726 OFFCURVE",
"473 740 OFFCURVE",
"403 740 CURVE SMOOTH",
"180 740 OFFCURVE",
"40 595 OFFCURVE",
"40 365 CURVE SMOOTH",
"40 135 OFFCURVE",
"180 -10 OFFCURVE",
"403 -10 CURVE SMOOTH"
);
}
);
width = 1073;
}
);
leftKerningGroup = O;
leftMetricsKey = "=O";
rightKerningGroup = E;
rightMetricsKey = "=E";
unicode = 0152;
},
{
color = 10;
glyphname = P;
lastChange = "2021-02-27 02:38:05 +0000";
layers = (
{
layerId = "D65C9A1E-0FCA-4B2D-8EDF-9F36CA9182A1";
rightMetricsKey = "=H*.3";
paths = (
{
closed = 1;
nodes = (
"120 0 LINE",
"120 710 LINE",
"277 710 LINE SMOOTH",
"477 710 OFFCURVE",
"560 651 OFFCURVE",
"560 510 CURVE SMOOTH",
"560 369 OFFCURVE",
"477 310 OFFCURVE",
"277 310 CURVE SMOOTH",
"110 310 LINE",
"110 290 LINE",
"277 290 LINE SMOOTH",
"488 290 OFFCURVE",
"580 357 OFFCURVE",
"580 510 CURVE SMOOTH",
"580 663 OFFCURVE",
"488 730 OFFCURVE",
"277 730 CURVE SMOOTH",
"100 730 LINE",
"100 0 LINE"
);
}
);
width = 610;
},
{
layerId = "9527F797-22C1-480E-A1FE-2CDBEBE1FD4C";
rightMetricsKey = "=H*.35";
paths = (
{
closed = 1;
nodes = (
"190 0 LINE",
"190 630 LINE",
"292 630 LINE SMOOTH",
"436 630 OFFCURVE",
"498 587 OFFCURVE",
"498 487 CURVE SMOOTH",
"498 387 OFFCURVE",
"436 344 OFFCURVE",
"292 344 CURVE SMOOTH",
"135 344 LINE",
"135 244 LINE",
"305 244 LINE SMOOTH",
"510 244 OFFCURVE",
"610 324 OFFCURVE",
"610 487 CURVE SMOOTH",
"610 652 OFFCURVE",
"507 730 OFFCURVE",
"290 730 CURVE SMOOTH",
"80 730 LINE",
"80 0 LINE"
);
}
);
width = 638;
},
{
layerId = "9E6B41AB-2970-4C41-8B35-4DBE0D296A43";
rightMetricsKey = "=H*.4";
paths = (
{
closed = 1;
nodes = (
"260 0 LINE",
"260 570 LINE",
"307 570 LINE SMOOTH",
"395 570 OFFCURVE",
"435 537 OFFCURVE",
"435 465 CURVE SMOOTH",
"435 393 OFFCURVE",
"395 360 OFFCURVE",
"307 360 CURVE SMOOTH",
"160 360 LINE",
"160 200 LINE",
"333 200 LINE SMOOTH",
"532 200 OFFCURVE",
"640 293 OFFCURVE",
"640 465 CURVE SMOOTH",
"640 641 OFFCURVE",
"527 730 OFFCURVE",
"302 730 CURVE SMOOTH",
"60 730 LINE",
"60 0 LINE"
);
}
);
width = 664;
}
);
leftKerningGroup = H;
leftMetricsKey = "=H";
rightKerningGroup = P;
rightMetricsKey = "=H*.4";
unicode = 0050;
},
{
color = 11;
glyphname = Thorn;
lastChange = "2021-02-27 02:38:05 +0000";
layers = (
{
background = {
components = (
{
name = P;
transform = "{1, 0, 0, 1, 5, 0}";
}
);
};
layerId = "D65C9A1E-0FCA-4B2D-8EDF-9F36CA9182A1";
paths = (
{
closed = 1;
nodes = (
"277 155 LINE SMOOTH",
"516 155 OFFCURVE",
"620 222 OFFCURVE",
"620 375 CURVE SMOOTH",
"620 528 OFFCURVE",
"516 595 OFFCURVE",
"277 595 CURVE SMOOTH",
"110 595 LINE",
"110 575 LINE",
"277 575 LINE SMOOTH",
"505 575 OFFCURVE",
"600 515 OFFCURVE",
"600 375 CURVE SMOOTH",
"600 235 OFFCURVE",
"505 175 OFFCURVE",
"277 175 CURVE SMOOTH",
"110 175 LINE",
"110 155 LINE"
);
},
{
closed = 1;
nodes = (
"120 0 LINE",
"120 730 LINE",
"100 730 LINE",
"100 0 LINE"
);
}
);
width = 650;
},
{
background = {
components = (
{
name = P;
}
);
};
layerId = "9527F797-22C1-480E-A1FE-2CDBEBE1FD4C";
paths = (
{
closed = 1;
nodes = (
"305 132 LINE SMOOTH",
"531 132 OFFCURVE",
"640 211 OFFCURVE",
"640 375 CURVE SMOOTH",
"640 541 OFFCURVE",
"528 618 OFFCURVE",
"290 618 CURVE SMOOTH",
"135 618 LINE",
"135 518 LINE",
"292 518 LINE SMOOTH",
"457 518 OFFCURVE",
"528 475 OFFCURVE",
"528 375 CURVE SMOOTH",
"528 275 OFFCURVE",
"457 232 OFFCURVE",
"292 232 CURVE SMOOTH",
"135 232 LINE",
"135 132 LINE"
);
},
{
closed = 1;
nodes = (
"190 0 LINE",
"190 730 LINE",
"80 730 LINE",
"80 0 LINE"
);
}
);
width = 668;
},
{
background = {
components = (
{
name = P;
transform = "{1, 0, 0, 1, -5, 0}";
}
);
};
layerId = "9E6B41AB-2970-4C41-8B35-4DBE0D296A43";
paths = (
{
closed = 1;
nodes = (
"333 110 LINE SMOOTH",
"545 110 OFFCURVE",
"660 203 OFFCURVE",
"660 375 CURVE SMOOTH",
"660 551 OFFCURVE",
"540 640 OFFCURVE",
"302 640 CURVE SMOOTH",
"160 640 LINE",
"160 480 LINE",
"307 480 LINE SMOOTH",
"409 480 OFFCURVE",
"455 447 OFFCURVE",
"455 375 CURVE SMOOTH",
"455 303 OFFCURVE",
"409 270 OFFCURVE",
"307 270 CURVE SMOOTH",
"160 270 LINE",
"160 110 LINE"
);
},
{
closed = 1;
nodes = (
"260 0 LINE",
"260 730 LINE",
"60 730 LINE",
"60 0 LINE"
);
}
);
width = 684;
}
);
leftKerningGroup = H;
leftMetricsKey = "=P";
rightKerningGroup = O;
rightMetricsKey = "=P";
unicode = 00DE;
},
{
color = 10;
glyphname = Q;
lastChange = "2021-02-27 02:38:05 +0000";
layers = (
{
background = {
paths = (
{
closed = 1;
nodes = (
"793 -71 LINE",
"745 -19 OFFCURVE",
"679 17 OFFCURVE",
"598 36 CURVE",
"598 38 LINE",
"718 90 OFFCURVE",
"790 209 OFFCURVE",
"790 365 CURVE SMOOTH",
"790 595 OFFCURVE",
"645 740 OFFCURVE",
"415 740 CURVE SMOOTH",
"186 740 OFFCURVE",
"41 595 OFFCURVE",
"41 365 CURVE SMOOTH",
"41 136 OFFCURVE",
"186 -10 OFFCURVE",
"415 -10 CURVE SMOOTH",
"550 -10 OFFCURVE",
"635 -44 OFFCURVE",
"705 -133 CURVE"
);
},
{
closed = 1;
nodes = (
"253 85 OFFCURVE",
"153 191 OFFCURVE",
"153 365 CURVE SMOOTH",
"153 539 OFFCURVE",
"253 645 OFFCURVE",
"416 645 CURVE SMOOTH",
"578 645 OFFCURVE",
"678 539 OFFCURVE",
"678 365 CURVE SMOOTH",
"678 191 OFFCURVE",
"578 85 OFFCURVE",
"416 85 CURVE SMOOTH"
);
}
);
};
layerId = "9527F797-22C1-480E-A1FE-2CDBEBE1FD4C";
rightMetricsKey = "=O-11";
paths = (
{
closed = 1;
nodes = (
"792 -71 LINE",
"748 -24 OFFCURVE",
"689 13 OFFCURVE",
"618 37 CURVE",
"618 39 LINE",
"729 100 OFFCURVE",
"790 216 OFFCURVE",
"790 365 CURVE SMOOTH",
"790 594 OFFCURVE",
"644 740 OFFCURVE",
"415 740 CURVE SMOOTH",
"186 740 OFFCURVE",
"40 594 OFFCURVE",
"40 365 CURVE SMOOTH",
"40 136 OFFCURVE",
"186 -10 OFFCURVE",
"415 -10 CURVE SMOOTH",
"539 -10 OFFCURVE",
"643 -54 OFFCURVE",
"705 -133 CURVE"
);
},
{
closed = 1;
nodes = (
"252 90 OFFCURVE",
"153 195 OFFCURVE",
"153 365 CURVE SMOOTH",
"153 535 OFFCURVE",
"252 640 OFFCURVE",
"415 640 CURVE SMOOTH",
"577 640 OFFCURVE",
"677 535 OFFCURVE",
"677 365 CURVE SMOOTH",
"677 195 OFFCURVE",
"577 90 OFFCURVE",
"415 90 CURVE SMOOTH"
);
}
);
width = 821;
},
{
layerId = "D65C9A1E-0FCA-4B2D-8EDF-9F36CA9182A1";
rightMetricsKey = "=O";
paths = (
{
closed = 1;
nodes = (
"785 -102 LINE",
"725 -46 OFFCURVE",
"637 -11 OFFCURVE",
"525 2 CURVE",
"525 4 LINE",
"686 44 OFFCURVE",
"789 180 OFFCURVE",
"789 365 CURVE SMOOTH",
"789 588 OFFCURVE",
"640 740 OFFCURVE",
"419 740 CURVE SMOOTH",
"200 740 OFFCURVE",
"50 588 OFFCURVE",
"50 365 CURVE SMOOTH",
"50 142 OFFCURVE",
"200 -10 OFFCURVE",
"419 -10 CURVE SMOOTH",
"577 -10 OFFCURVE",
"696 -46 OFFCURVE",
"769 -116 CURVE"
);
},
{
closed = 1;
nodes = (
"210 10 OFFCURVE",
"70 153 OFFCURVE",
"70 365 CURVE SMOOTH",
"70 577 OFFCURVE",
"210 720 OFFCURVE",
"420 720 CURVE SMOOTH",
"629 720 OFFCURVE",
"770 577 OFFCURVE",
"770 365 CURVE SMOOTH",
"770 153 OFFCURVE",
"629 10 OFFCURVE",
"420 10 CURVE SMOOTH"
);
}
);
width = 839;
},
{
layerId = "9E6B41AB-2970-4C41-8B35-4DBE0D296A43";
rightMetricsKey = "=O-12";
paths = (
{
closed = 1;
nodes = (
"800 -40 LINE",
"763 8 OFFCURVE",
"720 44 OFFCURVE",
"669 69 CURVE",
"669 71 LINE",
"748 135 OFFCURVE",
"790 237 OFFCURVE",
"790 365 CURVE SMOOTH",
"790 601 OFFCURVE",
"649 740 OFFCURVE",
"410 740 CURVE SMOOTH",
"171 740 OFFCURVE",
"30 601 OFFCURVE",
"30 365 CURVE SMOOTH",
"30 129 OFFCURVE",
"171 -10 OFFCURVE",
"410 -10 CURVE SMOOTH",
"521 -10 OFFCURVE",
"572 -41 OFFCURVE",
"640 -150 CURVE"
);
},
{
closed = 1;
nodes = (
"294 160 OFFCURVE",
"235 229 OFFCURVE",
"235 365 CURVE SMOOTH",
"235 501 OFFCURVE",
"294 570 OFFCURVE",
"410 570 CURVE SMOOTH",
"526 570 OFFCURVE",
"585 501 OFFCURVE",
"585 365 CURVE SMOOTH",
"585 229 OFFCURVE",
"526 160 OFFCURVE",
"410 160 CURVE SMOOTH"
);
}
);
width = 818;
}
);
leftKerningGroup = O;
leftMetricsKey = "=O";
rightKerningGroup = O;
rightMetricsKey = "=O-12";
unicode = 0051;
},
{
color = 10;
glyphname = R;
lastChange = "2021-02-27 02:38:05 +0000";
layers = (
{
anchors = (
{
name = bottom;
position = "{325, 0}";
},
{
name = top;
position = "{325, 730}";
}
);
layerId = "9E6B41AB-2970-4C41-8B35-4DBE0D296A43";
paths = (
{
closed = 1;
nodes = (
"260 0 LINE",
"260 570 LINE",
"329 570 LINE SMOOTH",
"402 570 OFFCURVE",
"435 544 OFFCURVE",
"435 485 CURVE SMOOTH",
"435 426 OFFCURVE",
"402 400 OFFCURVE",
"329 400 CURVE SMOOTH",
"160 400 LINE",
"160 254 LINE",
"360 254 LINE SMOOTH",
"542 254 OFFCURVE",
"640 339 OFFCURVE",
"640 495 CURVE SMOOTH",
"640 654 OFFCURVE",
"536 730 OFFCURVE",
"319 730 CURVE SMOOTH",
"60 730 LINE",
"60 0 LINE"
);
},
{
closed = 1;
nodes = (
"660 0 LINE",
"423 327 LINE",
"211 327 LINE",
"440 0 LINE"
);
}
);
width = 684;
},
{
anchors = (
{
name = bottom;
position = "{320, 0}";
},
{
name = top;
position = "{320, 730}";
}
);
layerId = "9527F797-22C1-480E-A1FE-2CDBEBE1FD4C";
paths = (
{
closed = 1;
nodes = (
"190 0 LINE",
"190 630 LINE",
"311 630 LINE SMOOTH",
"443 630 OFFCURVE",
"498 594 OFFCURVE",
"498 509 CURVE SMOOTH",
"498 424 OFFCURVE",
"443 388 OFFCURVE",
"311 388 CURVE SMOOTH",
"135 388 LINE",
"135 292 LINE",
"327 292 LINE SMOOTH",
"517 292 OFFCURVE",
"610 364 OFFCURVE",
"610 513 CURVE SMOOTH",
"610 662 OFFCURVE",
"515 730 OFFCURVE",
"306 730 CURVE SMOOTH",
"80 730 LINE",
"80 0 LINE"
);
},
{
closed = 1;
nodes = (
"630 0 LINE",
"305 328 LINE",
"165 328 LINE",
"488 0 LINE"
);
}
);
width = 662;
},
{
anchors = (
{
name = bottom;
position = "{315, 0}";
},
{
name = top;
position = "{315, 730}";
}
);
layerId = "D65C9A1E-0FCA-4B2D-8EDF-9F36CA9182A1";
paths = (
{
closed = 1;
nodes = (
"120 0 LINE",
"120 710 LINE",
"293 710 LINE SMOOTH",
"483 710 OFFCURVE",
"560 657 OFFCURVE",
"560 530 CURVE SMOOTH",
"560 403 OFFCURVE",
"483 350 OFFCURVE",
"293 350 CURVE SMOOTH",
"110 350 LINE",
"110 330 LINE",
"293 330 LINE SMOOTH",
"494 330 OFFCURVE",
"580 390 OFFCURVE",
"580 530 CURVE SMOOTH",
"580 670 OFFCURVE",
"494 730 OFFCURVE",
"293 730 CURVE SMOOTH",
"100 730 LINE",
"100 0 LINE"
);
},
{
closed = 1;
nodes = (
"600 0 LINE",
"173 340 LINE",
"141 340 LINE",
"568 0 LINE"
);
}
);
width = 640;
}
);
leftKerningGroup = H;
leftMetricsKey = "=H";
rightKerningGroup = R;
rightMetricsKey = "=H*.4";
unicode = 0052;
},
{
color = 10;
glyphname = S;
lastChange = "2021-02-27 02:38:05 +0000";
layers = (
{
anchors = (
{
name = bottom;
position = "{317, 0}";
},
{
name = cedi;
position = "{259, 0}";
},
{
name = top;
position = "{317, 730}";
}
);
background = {
paths = (
{
closed = 0;
nodes = (
"75 57 LINE",
"143 20 OFFCURVE",
"230 0 OFFCURVE",
"314 0 CURVE SMOOTH",
"468 0 OFFCURVE",
"560 68 OFFCURVE",
"560 183 CURVE SMOOTH",
"560 445 OFFCURVE",
"81 313 OFFCURVE",
"81 561 CURVE SMOOTH",
"81 667 OFFCURVE",
"168 730 OFFCURVE",
"314 730 CURVE SMOOTH",
"398 730 OFFCURVE",
"495 709 OFFCURVE",
"547 681 CURVE"
);
}
);
};
layerId = "D65C9A1E-0FCA-4B2D-8EDF-9F36CA9182A1";
leftMetricsKey = "=H*.7";
paths = (
{
closed = 1;
nodes = (
"473 -10 OFFCURVE",
"570 62 OFFCURVE",
"570 183 CURVE SMOOTH",
"570 324 OFFCURVE",
"439 357 OFFCURVE",
"318 388 CURVE SMOOTH",
"199 419 OFFCURVE",
"91 446 OFFCURVE",
"91 561 CURVE SMOOTH",
"91 661 OFFCURVE",
"173 720 OFFCURVE",
"314 720 CURVE SMOOTH",
"395 720 OFFCURVE",
"491 700 OFFCURVE",
"542 672 CURVE",
"551 690 LINE",
"497 719 OFFCURVE",
"397 740 OFFCURVE",
"314 740 CURVE SMOOTH",
"162 740 OFFCURVE",
"71 673 OFFCURVE",
"70 561 CURVE SMOOTH",
"70 431 OFFCURVE",
"194 399 OFFCURVE",
"313 369 CURVE SMOOTH",
"434 338 OFFCURVE",
"549 308 OFFCURVE",
"549 183 CURVE SMOOTH",
"550 74 OFFCURVE",
"463 10 OFFCURVE",
"314 10 CURVE SMOOTH",
"229 10 OFFCURVE",
"144 30 OFFCURVE",
"79 66 CURVE",
"70 48 LINE",
"138 11 OFFCURVE",
"227 -10 OFFCURVE",
"314 -10 CURVE SMOOTH"
);
}
);
width = 640;
},
{
anchors = (
{
name = bottom;
position = "{324, 0}";
},
{
name = cedi;
position = "{255, 0}";
},
{
name = top;
position = "{324, 730}";
}
);
layerId = "9527F797-22C1-480E-A1FE-2CDBEBE1FD4C";
leftMetricsKey = "=H*.65";
paths = (
{
closed = 1;
nodes = (
"497 -10 OFFCURVE",
"602 66 OFFCURVE",
"602 197 CURVE SMOOTH",
"602 306 OFFCURVE",
"533 366 OFFCURVE",
"356 415 CURVE SMOOTH",
"210 457 OFFCURVE",
"167 486 OFFCURVE",
"167 542 CURVE SMOOTH",
"167 606 OFFCURVE",
"221 640 OFFCURVE",
"326 640 CURVE SMOOTH",
"407 640 OFFCURVE",
"491 621 OFFCURVE",
"553 589 CURVE",
"578 691 LINE",
"518 721 OFFCURVE",
"418 740 OFFCURVE",
"328 740 CURVE SMOOTH",
"153 740 OFFCURVE",
"52 668 OFFCURVE",
"52 543 CURVE SMOOTH",
"52 437 OFFCURVE",
"122 375 OFFCURVE",
"291 329 CURVE SMOOTH",
"441 288 OFFCURVE",
"487 258 OFFCURVE",
"487 198 CURVE SMOOTH",
"487 129 OFFCURVE",
"429 90 OFFCURVE",
"324 90 CURVE SMOOTH",
"242 90 OFFCURVE",
"147 114 OFFCURVE",
"80 153 CURVE",
"55 51 LINE",
"123 12 OFFCURVE",
"219 -10 OFFCURVE",
"317 -10 CURVE SMOOTH"
);
}
);
width = 654;
},
{
anchors = (
{
name = bottom;
position = "{333, 0}";
},
{
name = cedi;
position = "{252, 0}";
},
{
name = top;
position = "{333, 730}";
}
);
layerId = "9E6B41AB-2970-4C41-8B35-4DBE0D296A43";
leftMetricsKey = "=H*.6";
paths = (
{
closed = 1;
nodes = (
"523 -10 OFFCURVE",
"636 69 OFFCURVE",
"636 210 CURVE SMOOTH",
"636 320 OFFCURVE",
"568 384 OFFCURVE",
"398 434 CURVE SMOOTH",
"275 470 OFFCURVE",
"246 488 OFFCURVE",
"246 526 CURVE SMOOTH",
"246 560 OFFCURVE",
"276 575 OFFCURVE",
"341 575 CURVE SMOOTH",
"414 575 OFFCURVE",
"497 555 OFFCURVE",
"565 522 CURVE",
"607 692 LINE",
"538 722 OFFCURVE",
"439 740 OFFCURVE",
"344 740 CURVE SMOOTH",
"146 740 OFFCURVE",
"36 663 OFFCURVE",
"36 525 CURVE SMOOTH",
"36 410 OFFCURVE",
"106 342 OFFCURVE",
"270 297 CURVE SMOOTH",
"399 261 OFFCURVE",
"426 246 OFFCURVE",
"426 210 CURVE SMOOTH",
"426 175 OFFCURVE",
"393 155 OFFCURVE",
"336 155 CURVE SMOOTH",
"264 155 OFFCURVE",
"151 186 OFFCURVE",
"84 224 CURVE",
"42 54 LINE",
"107 14 OFFCURVE",
"210 -10 OFFCURVE",
"323 -10 CURVE SMOOTH"
);
}
);
width = 672;
},
{
anchors = (
{
name = bottom;
position = "{323, 0}";
},
{
name = cedi;
position = "{265, 0}";
},
{
name = top;
position = "{323, 730}";
}
);
associatedMasterId = "D65C9A1E-0FCA-4B2D-8EDF-9F36CA9182A1";
background = {
paths = (
{
closed = 0;
nodes = (
"71 57 LINE",
"142 20 OFFCURVE",
"232 0 OFFCURVE",
"320 0 CURVE SMOOTH",
"480 0 OFFCURVE",
"576 68 OFFCURVE",
"576 183 CURVE SMOOTH",
"576 445 OFFCURVE",
"77 313 OFFCURVE",
"77 561 CURVE SMOOTH",
"77 667 OFFCURVE",
"168 730 OFFCURVE",
"320 730 CURVE SMOOTH",
"407 730 OFFCURVE",
"508 709 OFFCURVE",
"562 681 CURVE"
);
}
);
};
layerId = "7169C470-F6A3-419B-8CE3-30F113AF60AE";
leftMetricsKey = "=H*.7";
name = "Dec 30 20, 19:35";
paths = (
{
closed = 1;
nodes = (
"486 -10 OFFCURVE",
"586 62 OFFCURVE",
"586 183 CURVE SMOOTH",
"586 324 OFFCURVE",
"450 357 OFFCURVE",
"324 388 CURVE SMOOTH",
"201 419 OFFCURVE",
"87 447 OFFCURVE",
"87 561 CURVE SMOOTH",
"87 661 OFFCURVE",
"173 720 OFFCURVE",
"320 720 CURVE SMOOTH",
"404 720 OFFCURVE",
"504 700 OFFCURVE",
"557 672 CURVE",
"567 690 LINE",
"510 719 OFFCURVE",
"407 740 OFFCURVE",
"320 740 CURVE SMOOTH",
"162 740 OFFCURVE",
"67 673 OFFCURVE",
"67 561 CURVE SMOOTH",
"67 431 OFFCURVE",
"196 399 OFFCURVE",
"319 369 CURVE SMOOTH",
"445 338 OFFCURVE",
"566 308 OFFCURVE",
"566 183 CURVE SMOOTH",
"566 74 OFFCURVE",
"475 10 OFFCURVE",
"320 10 CURVE SMOOTH",
"232 10 OFFCURVE",
"144 30 OFFCURVE",
"76 66 CURVE",
"66 48 LINE",
"138 11 OFFCURVE",
"229 -10 OFFCURVE",
"320 -10 CURVE SMOOTH"
);
}
);
width = 652;
},
{
anchors = (
{
name = bottom;
position = "{329, 0}";
},
{
name = cedi;
position = "{260, 0}";
},
{
name = top;
position = "{329, 730}";
}
);
associatedMasterId = "9527F797-22C1-480E-A1FE-2CDBEBE1FD4C";
layerId = "9D1F873A-193B-4E41-8E22-97BC499EDB51";
leftMetricsKey = "=H*.65";
name = "Dec 30 20, 19:36";
paths = (
{
closed = 1;
nodes = (
"505 -10 OFFCURVE",
"612 66 OFFCURVE",
"612 197 CURVE SMOOTH",
"612 306 OFFCURVE",
"542 366 OFFCURVE",
"362 415 CURVE SMOOTH",
"211 457 OFFCURVE",
"167 486 OFFCURVE",
"167 542 CURVE SMOOTH",
"167 606 OFFCURVE",
"223 640 OFFCURVE",
"331 640 CURVE SMOOTH",
"413 640 OFFCURVE",
"499 621 OFFCURVE",
"562 589 CURVE",
"588 691 LINE",
"526 721 OFFCURVE",
"425 740 OFFCURVE",
"333 740 CURVE SMOOTH",
"155 740 OFFCURVE",
"52 668 OFFCURVE",
"52 543 CURVE SMOOTH",
"52 437 OFFCURVE",
"123 375 OFFCURVE",
"295 329 CURVE SMOOTH",
"450 288 OFFCURVE",
"497 258 OFFCURVE",
"497 198 CURVE SMOOTH",
"497 129 OFFCURVE",
"437 90 OFFCURVE",
"329 90 CURVE SMOOTH",
"245 90 OFFCURVE",
"149 114 OFFCURVE",
"81 153 CURVE",
"55 51 LINE",
"124 12 OFFCURVE",
"222 -10 OFFCURVE",
"322 -10 CURVE SMOOTH"
);
}
);
width = 664;
}
);
leftKerningGroup = S;
leftMetricsKey = "=H*.6";
rightKerningGroup = S;
rightMetricsKey = "=|";
unicode = 0053;
},
{
color = 11;
glyphname = Germandbls;
lastChange = "2021-02-27 02:38:05 +0000";
layers = (
{
layerId = "D65C9A1E-0FCA-4B2D-8EDF-9F36CA9182A1";
paths = (
{
closed = 1;
nodes = (
"531 -10 OFFCURVE",
"620 58 OFFCURVE",
"620 180 CURVE SMOOTH",
"620 302 OFFCURVE",
"532 370 OFFCURVE",
"374 370 CURVE",
"374 372 LINE",
"533 565 LINE",
"533 681 OFFCURVE",
"464 740 OFFCURVE",
"328 740 CURVE SMOOTH",
"174 740 OFFCURVE",
"100 664 OFFCURVE",
"100 505 CURVE SMOOTH",
"100 0 LINE",
"120 0 LINE",
"120 505 LINE SMOOTH",
"120 653 OFFCURVE",
"185 720 OFFCURVE",
"328 720 CURVE SMOOTH",
"450 720 OFFCURVE",
"510 672 OFFCURVE",
"513 572 CURVE",
"354 379 LINE",
"354 350 LINE",
"374 350 LINE SMOOTH",
"521 350 OFFCURVE",
"600 290 OFFCURVE",
"600 180 CURVE SMOOTH",
"600 70 OFFCURVE",
"520 10 OFFCURVE",
"371 10 CURVE SMOOTH",
"327 10 OFFCURVE",
"289 15 OFFCURVE",
"252 26 CURVE",
"246 7 LINE",
"287 -5 OFFCURVE",
"328 -10 OFFCURVE",
"371 -10 CURVE SMOOTH"
);
}
);
width = 648;
},
{
layerId = "9527F797-22C1-480E-A1FE-2CDBEBE1FD4C";
paths = (
{
closed = 1;
nodes = (
"568 -10 OFFCURVE",
"655 63 OFFCURVE",
"655 195 CURVE SMOOTH",
"655 307 OFFCURVE",
"592 373 OFFCURVE",
"474 383 CURVE",
"474 385 LINE",
"582 533 LINE",
"582 670 OFFCURVE",
"500 740 OFFCURVE",
"337 740 CURVE SMOOTH",
"164 740 OFFCURVE",
"80 662 OFFCURVE",
"80 503 CURVE SMOOTH",
"80 0 LINE",
"190 0 LINE",
"190 503 LINE SMOOTH",
"190 602 OFFCURVE",
"231 640 OFFCURVE",
"337 640 CURVE SMOOTH",
"424 640 OFFCURVE",
"470 613 OFFCURVE",
"472 561 CURVE",
"355 400 LINE",
"355 300 LINE",
"365 300 LINE SMOOTH",
"487 300 OFFCURVE",
"543 267 OFFCURVE",
"543 195 CURVE SMOOTH",
"543 128 OFFCURVE",
"490 90 OFFCURVE",
"396 90 CURVE SMOOTH",
"362 90 OFFCURVE",
"333 95 OFFCURVE",
"293 111 CURVE",
"278 11 LINE",
"321 -3 OFFCURVE",
"364 -10 OFFCURVE",
"411 -10 CURVE SMOOTH"
);
}
);
width = 680;
},
{
layerId = "9E6B41AB-2970-4C41-8B35-4DBE0D296A43";
paths = (
{
closed = 1;
nodes = (
"605 -10 OFFCURVE",
"690 68 OFFCURVE",
"690 210 CURVE SMOOTH",
"690 313 OFFCURVE",
"640 376 OFFCURVE",
"543 395 CURVE",
"543 397 LINE",
"630 500 LINE",
"630 660 OFFCURVE",
"535 740 OFFCURVE",
"345 740 CURVE SMOOTH",
"155 740 OFFCURVE",
"60 660 OFFCURVE",
"60 500 CURVE",
"60 0 LINE",
"260 0 LINE",
"260 500 LINE",
"260 550 OFFCURVE",
"284 570 OFFCURVE",
"345 570 CURVE SMOOTH",
"406 570 OFFCURVE",
"430 550 OFFCURVE",
"430 500 CURVE",
"355 400 LINE",
"355 280 LINE",
"355 280 LINE",
"456 280 OFFCURVE",
"485 267 OFFCURVE",
"485 220 CURVE SMOOTH",
"485 180 OFFCURVE",
"464 160 OFFCURVE",
"420 160 CURVE SMOOTH",
"396 160 OFFCURVE",
"369 166 OFFCURVE",
"335 180 CURVE",
"310 15 LINE",
"352 -1 OFFCURVE",
"400 -10 OFFCURVE",
"450 -10 CURVE SMOOTH"
);
}
);
width = 711;
}
);
leftKerningGroup = H;
leftMetricsKey = "=B";
rightKerningGroup = B;
rightMetricsKey = "=B*.7";
unicode = 1E9E;
},
{
color = 11;
glyphname = Schwa;
lastChange = "2021-02-27 02:38:05 +0000";
layers = (
{
background = {
paths = (
{
closed = 1;
nodes = (
"505 -10 OFFCURVE",
"603 14 OFFCURVE",
"679 54 CURVE",
"670 72 LINE",
"595 32 OFFCURVE",
"500 10 OFFCURVE",
"409 10 CURVE SMOOTH",
"189 10 OFFCURVE",
"69 134 OFFCURVE",
"69 365 CURVE",
"69 365 LINE",
"69 591 OFFCURVE",
"183 720 OFFCURVE",
"379 720 CURVE SMOOTH",
"575 720 OFFCURVE",
"689 591 OFFCURVE",
"689 365 CURVE",
"704 382 LINE",
"59 382 LINE",
"59 362 LINE",
"709 362 LINE",
"709 364 OFFCURVE",
"709 364 OFFCURVE",
"709 365 CURVE SMOOTH",
"709 601 OFFCURVE",
"587 740 OFFCURVE",
"379 740 CURVE SMOOTH",
"171 740 OFFCURVE",
"48 601 OFFCURVE",
"48 365 CURVE SMOOTH",
"48 124 OFFCURVE",
"177 -10 OFFCURVE",
"409 -10 CURVE SMOOTH"
);
}
);
};
layerId = "D65C9A1E-0FCA-4B2D-8EDF-9F36CA9182A1";
paths = (
{
closed = 1;
nodes = (
"253 740 OFFCURVE",
"155 716 OFFCURVE",
"79 676 CURVE",
"88 658 LINE",
"163 698 OFFCURVE",
"258 720 OFFCURVE",
"349 720 CURVE SMOOTH",
"569 720 OFFCURVE",
"689 596 OFFCURVE",
"689 365 CURVE",
"689 365 LINE",
"689 139 OFFCURVE",
"575 10 OFFCURVE",
"379 10 CURVE SMOOTH",
"183 10 OFFCURVE",
"69 139 OFFCURVE",
"69 365 CURVE",
"53 348 LINE",
"699 348 LINE",
"699 368 LINE",
"48 368 LINE",
"48 366 OFFCURVE",
"48 366 OFFCURVE",
"48 365 CURVE SMOOTH",
"48 129 OFFCURVE",
"171 -10 OFFCURVE",
"379 -10 CURVE SMOOTH",
"587 -10 OFFCURVE",
"709 129 OFFCURVE",
"709 365 CURVE SMOOTH",
"709 606 OFFCURVE",
"581 740 OFFCURVE",
"349 740 CURVE SMOOTH"
);
}
);
width = 759;
},
{
background = {
paths = (
{
closed = 1;
nodes = (
"514 -10 OFFCURVE",
"608 10 OFFCURVE",
"677 42 CURVE",
"655 137 LINE",
"582 107 OFFCURVE",
"499 90 OFFCURVE",
"416 90 CURVE SMOOTH",
"235 90 OFFCURVE",
"148 171 OFFCURVE",
"148 334 CURVE",
"148 376 LINE",
"148 550 OFFCURVE",
"228 640 OFFCURVE",
"378 640 CURVE SMOOTH",
"528 640 OFFCURVE",
"608 550 OFFCURVE",
"608 376 CURVE",
"649 416 LINE",
"116 416 LINE",
"116 317 LINE",
"715 317 LINE",
"717 327 OFFCURVE",
"718 353 OFFCURVE",
"718 372 CURVE SMOOTH",
"718 604 OFFCURVE",
"593 740 OFFCURVE",
"381 740 CURVE SMOOTH",
"166 740 OFFCURVE",
"38 600 OFFCURVE",
"38 365 CURVE SMOOTH",
"38 124 OFFCURVE",
"175 -10 OFFCURVE",
"423 -10 CURVE SMOOTH"
);
}
);
};
layerId = "9527F797-22C1-480E-A1FE-2CDBEBE1FD4C";
paths = (
{
closed = 1;
nodes = (
"242 740 OFFCURVE",
"148 720 OFFCURVE",
"79 688 CURVE",
"104 588 LINE",
"178 622 OFFCURVE",
"260 640 OFFCURVE",
"340 640 CURVE SMOOTH",
"521 640 OFFCURVE",
"608 559 OFFCURVE",
"608 396 CURVE",
"608 354 LINE",
"608 180 OFFCURVE",
"528 90 OFFCURVE",
"378 90 CURVE SMOOTH",
"228 90 OFFCURVE",
"148 180 OFFCURVE",
"148 354 CURVE",
"107 314 LINE",
"640 314 LINE",
"640 413 LINE",
"41 413 LINE",
"39 403 OFFCURVE",
"38 377 OFFCURVE",
"38 358 CURVE SMOOTH",
"38 126 OFFCURVE",
"163 -10 OFFCURVE",
"375 -10 CURVE SMOOTH",
"590 -10 OFFCURVE",
"718 130 OFFCURVE",
"718 365 CURVE SMOOTH",
"718 606 OFFCURVE",
"581 740 OFFCURVE",
"333 740 CURVE SMOOTH"
);
}
);
width = 758;
},
{
background = {
paths = (
{
closed = 1;
nodes = (
"526 -10 OFFCURVE",
"616 5 OFFCURVE",
"677 29 CURVE",
"643 194 LINE",
"572 171 OFFCURVE",
"501 160 OFFCURVE",
"426 160 CURVE SMOOTH",
"284 160 OFFCURVE",
"229 199 OFFCURVE",
"229 300 CURVE SMOOTH",
"229 387 LINE SMOOTH",
"229 515 OFFCURVE",
"275 570 OFFCURVE",
"379 570 CURVE SMOOTH",
"483 570 OFFCURVE",
"529 515 OFFCURVE",
"529 387 CURVE",
"596 440 LINE",
"175 440 LINE",
"175 282 LINE",
"724 282 LINE",
"727 297 OFFCURVE",
"729 346 OFFCURVE",
"729 379 CURVE SMOOTH",
"729 607 OFFCURVE",
"602 740 OFFCURVE",
"386 740 CURVE SMOOTH",
"164 740 OFFCURVE",
"29 599 OFFCURVE",
"29 365 CURVE SMOOTH",
"29 124 OFFCURVE",
"176 -10 OFFCURVE",
"439 -10 CURVE SMOOTH"
);
}
);
};
layerId = "9E6B41AB-2970-4C41-8B35-4DBE0D296A43";
paths = (
{
closed = 1;
nodes = (
"232 740 OFFCURVE",
"142 725 OFFCURVE",
"81 701 CURVE",
"116 536 LINE",
"187 559 OFFCURVE",
"257 570 OFFCURVE",
"332 570 CURVE SMOOTH",
"474 570 OFFCURVE",
"529 531 OFFCURVE",
"529 430 CURVE SMOOTH",
"529 343 LINE SMOOTH",
"529 215 OFFCURVE",
"483 160 OFFCURVE",
"379 160 CURVE SMOOTH",
"275 160 OFFCURVE",
"229 215 OFFCURVE",
"229 343 CURVE",
"162 290 LINE",
"583 290 LINE",
"583 448 LINE",
"34 448 LINE",
"31 433 OFFCURVE",
"29 384 OFFCURVE",
"29 351 CURVE SMOOTH",
"29 123 OFFCURVE",
"156 -10 OFFCURVE",
"372 -10 CURVE SMOOTH",
"594 -10 OFFCURVE",
"729 131 OFFCURVE",
"729 365 CURVE SMOOTH",
"729 606 OFFCURVE",
"582 740 OFFCURVE",
"319 740 CURVE SMOOTH"
);
}
);
width = 759;
}
);
leftKerningGroup = O;
leftMetricsKey = "=O*.95";
rightKerningGroup = O;
rightMetricsKey = "=O";
unicode = 018F;
},
{
color = 10;
glyphname = T;
lastChange = "2021-02-27 02:38:05 +0000";
layers = (
{
anchors = (
{
name = bottom;
position = "{330, 0}";
},
{
name = cedi;
position = "{320, 0}";
},
{
name = center;
position = "{330, 365}";
},
{
name = top;
position = "{330, 730}";
}
);
layerId = "D65C9A1E-0FCA-4B2D-8EDF-9F36CA9182A1";
leftMetricsKey = "=H*.3";
paths = (
{
closed = 1;
nodes = (
"340 0 LINE",
"340 710 LINE",
"630 710 LINE",
"630 730 LINE",
"30 730 LINE",
"30 710 LINE",
"320 710 LINE",
"320 0 LINE"
);
}
);
width = 660;
},
{
anchors = (
{
name = bottom;
position = "{333, 0}";
},
{
name = cedi;
position = "{276, 0}";
},
{
name = center;
position = "{333, 365}";
},
{
name = top;
position = "{333, 730}";
}
);
layerId = "9527F797-22C1-480E-A1FE-2CDBEBE1FD4C";
leftMetricsKey = "=H*.35";
paths = (
{
closed = 1;
nodes = (
"390 0 LINE",
"390 630 LINE",
"638 630 LINE",
"638 730 LINE",
"28 730 LINE",
"28 630 LINE",
"276 630 LINE",
"276 0 LINE"
);
}
);
width = 666;
},
{
anchors = (
{
name = bottom;
position = "{334, 0}";
},
{
name = cedi;
position = "{231, 0}";
},
{
name = center;
position = "{334, 365}";
},
{
name = top;
position = "{334, 730}";
}
);
layerId = "9E6B41AB-2970-4C41-8B35-4DBE0D296A43";
leftMetricsKey = "=H*.4";
paths = (
{
closed = 1;
nodes = (
"437 0 LINE",
"437 560 LINE",
"644 560 LINE",
"644 730 LINE",
"24 730 LINE",
"24 560 LINE",
"231 560 LINE",
"231 0 LINE"
);
}
);
width = 668;
}
);
leftKerningGroup = T;
leftMetricsKey = "=H*0.4";
rightKerningGroup = T;
rightMetricsKey = "=|";
unicode = 0054;
},
{
color = 11;
glyphname = Tbar;
lastChange = "2021-02-27 02:38:05 +0000";
layers = (
{
components = (
{
name = T;
transform = "{1, 0, 0, 1, 30, 0}";
}
);
layerId = "D65C9A1E-0FCA-4B2D-8EDF-9F36CA9182A1";
paths = (
{
closed = 1;
nodes = (
"568 305 LINE",
"568 325 LINE",
"148 325 LINE",
"148 305 LINE"
);
}
);
width = 720;
},
{
components = (
{
alignment = -1;
name = T;
transform = "{1, 0, 0, 1, 28, 0}";
}
);
layerId = "9527F797-22C1-480E-A1FE-2CDBEBE1FD4C";
paths = (
{
closed = 1;
nodes = (
"591 270 LINE",
"591 360 LINE",
"131 360 LINE",
"131 270 LINE"
);
}
);
width = 722;
},
{
components = (
{
name = T;
transform = "{1, 0, 0, 1, 24, 0}";
}
);
layerId = "9E6B41AB-2970-4C41-8B35-4DBE0D296A43";
paths = (
{
closed = 1;
nodes = (
"610 245 LINE",
"610 385 LINE",
"110 385 LINE",
"110 245 LINE"
);
}
);
width = 716;
}
);
leftKerningGroup = W;
leftMetricsKey = "=T*2";
rightKerningGroup = W;
rightMetricsKey = "=|";
unicode = 0166;
},
{
color = 10;
glyphname = U;
lastChange = "2021-02-27 02:38:05 +0000";
layers = (
{
anchors = (
{
name = bottom;
position = "{360, 0}";
},
{
name = ogonek;
position = "{473, 10}";
},
{
name = top;
position = "{360, 730}";
},
{
name = top_ring;
position = "{360, 700}";
},
{
name = topright;
position = "{630, 690}";
}
);
layerId = "D65C9A1E-0FCA-4B2D-8EDF-9F36CA9182A1";
paths = (
{
closed = 1;
nodes = (
"536 -10 OFFCURVE",
"630 77 OFFCURVE",
"630 240 CURVE SMOOTH",
"630 730 LINE",
"610 730 LINE",
"610 240 LINE SMOOTH",
"610 88 OFFCURVE",
"525 10 OFFCURVE",
"360 10 CURVE SMOOTH",
"195 10 OFFCURVE",
"110 88 OFFCURVE",
"110 240 CURVE SMOOTH",
"110 730 LINE",
"90 730 LINE",
"90 240 LINE SMOOTH",
"90 77 OFFCURVE",
"184 -10 OFFCURVE",
"360 -10 CURVE SMOOTH"
);
}
);
width = 720;
},
{
anchors = (
{
name = bottom;
position = "{362, 0}";
},
{
name = ogonek;
position = "{484, 10}";
},
{
name = top;
position = "{362, 730}";
},
{
name = top_ring;
position = "{362, 710}";
},
{
name = topright;
position = "{637, 690}";
}
);
layerId = "9527F797-22C1-480E-A1FE-2CDBEBE1FD4C";
paths = (
{
closed = 1;
nodes = (
"552 -10 OFFCURVE",
"652 80 OFFCURVE",
"652 250 CURVE SMOOTH",
"652 730 LINE",
"542 730 LINE",
"542 270 LINE SMOOTH",
"542 145 OFFCURVE",
"487 90 OFFCURVE",
"362 90 CURVE SMOOTH",
"237 90 OFFCURVE",
"182 145 OFFCURVE",
"182 270 CURVE SMOOTH",
"182 730 LINE",
"72 730 LINE",
"72 250 LINE SMOOTH",
"72 80 OFFCURVE",
"172 -10 OFFCURVE",
"362 -10 CURVE SMOOTH"
);
}
);
width = 724;
},
{
anchors = (
{
name = bottom;
position = "{364, 0}";
},
{
name = ogonek;
position = "{494, 10}";
},
{
name = top;
position = "{364, 730}";
},
{
name = top_ring;
position = "{364, 720}";
},
{
name = topright;
position = "{644, 690}";
}
);
layerId = "9E6B41AB-2970-4C41-8B35-4DBE0D296A43";
paths = (
{
closed = 1;
nodes = (
"567 -10 OFFCURVE",
"674 82 OFFCURVE",
"674 260 CURVE SMOOTH",
"674 730 LINE",
"474 730 LINE",
"474 300 LINE SMOOTH",
"474 193 OFFCURVE",
"447 160 OFFCURVE",
"364 160 CURVE SMOOTH",
"280 160 OFFCURVE",
"254 193 OFFCURVE",
"254 300 CURVE SMOOTH",
"254 730 LINE",
"54 730 LINE",
"54 260 LINE SMOOTH",
"54 82 OFFCURVE",
"159 -10 OFFCURVE",
"364 -10 CURVE SMOOTH"
);
}
);
width = 728;
}
);
leftKerningGroup = U;
leftMetricsKey = "=H*.9";
rightKerningGroup = U;
rightMetricsKey = "=|";
unicode = 0055;
},
{
color = 10;
glyphname = V;
lastChange = "2021-02-27 02:38:05 +0000";
layers = (
{
layerId = "D65C9A1E-0FCA-4B2D-8EDF-9F36CA9182A1";
paths = (
{
closed = 1;
nodes = (
"355 0 LINE",
"660 730 LINE",
"638 730 LINE",
"341 18 LINE",
"339 18 LINE",
"42 730 LINE",
"20 730 LINE",
"325 0 LINE"
);
}
);
width = 680;
},
{
layerId = "9527F797-22C1-480E-A1FE-2CDBEBE1FD4C";
paths = (
{
closed = 1;
nodes = (
"419 0 LINE",
"682 730 LINE",
"561 730 LINE",
"348 110 LINE",
"346 110 LINE",
"133 730 LINE",
"12 730 LINE",
"275 0 LINE"
);
}
);
width = 694;
},
{
layerId = "9E6B41AB-2970-4C41-8B35-4DBE0D296A43";
paths = (
{
closed = 1;
nodes = (
"486 0 LINE",
"706 730 LINE",
"486 730 LINE",
"357 200 LINE",
"355 200 LINE",
"226 730 LINE",
"6 730 LINE",
"226 0 LINE"
);
}
);
width = 712;
}
);
leftKerningGroup = V;
leftMetricsKey = "=A";
rightKerningGroup = V;
rightMetricsKey = "=|";
unicode = 0056;
},
{
color = 10;
glyphname = W;
lastChange = "2021-02-27 02:38:05 +0000";
layers = (
{
anchors = (
{
name = bottom;
position = "{447, 0}";
},
{
name = top;
position = "{447, 730}";
}
);
layerId = "D65C9A1E-0FCA-4B2D-8EDF-9F36CA9182A1";
leftMetricsKey = "=V*1.6";
paths = (
{
closed = 1;
nodes = (
"253 0 LINE",
"446 650 LINE",
"448 650 LINE",
"641 0 LINE",
"673 0 LINE",
"862 730 LINE",
"841 730 LINE",
"658 20 LINE",
"656 20 LINE",
"463 670 LINE",
"431 670 LINE",
"238 20 LINE",
"236 20 LINE",
"53 730 LINE",
"32 730 LINE",
"221 0 LINE"
);
}
);
width = 894;
},
{
anchors = (
{
name = bottom;
position = "{466, 0}";
},
{
name = top;
position = "{466, 730}";
}
);
layerId = "9527F797-22C1-480E-A1FE-2CDBEBE1FD4C";
leftMetricsKey = "=V*2.3";
paths = (
{
closed = 1;
nodes = (
"334 0 LINE",
"465 525 LINE",
"467 525 LINE",
"598 0 LINE",
"734 0 LINE",
"904 730 LINE",
"791 730 LINE",
"665 145 LINE",
"663 145 LINE",
"534 670 LINE",
"398 670 LINE",
"269 145 LINE",
"267 145 LINE",
"141 730 LINE",
"28 730 LINE",
"198 0 LINE"
);
}
);
width = 932;
},
{
anchors = (
{
name = bottom;
position = "{484, 0}";
},
{
name = top;
position = "{484, 730}";
}
);
layerId = "9E6B41AB-2970-4C41-8B35-4DBE0D296A43";
leftMetricsKey = "=V*4";
paths = (
{
closed = 1;
nodes = (
"414 0 LINE",
"483 460 LINE",
"485 460 LINE",
"554 0 LINE",
"794 0 LINE",
"944 730 LINE",
"739 730 LINE",
"670 210 LINE",
"668 210 LINE",
"604 670 LINE",
"364 670 LINE",
"300 210 LINE",
"298 210 LINE",
"229 730 LINE",
"24 730 LINE",
"174 0 LINE"
);
}
);
width = 968;
}
);
leftKerningGroup = W;
leftMetricsKey = "=V*3";
rightKerningGroup = W;
rightMetricsKey = "=|";
unicode = 0057;
},
{
color = 10;
glyphname = X;
lastChange = "2021-02-27 02:38:05 +0000";
layers = (
{
layerId = "D65C9A1E-0FCA-4B2D-8EDF-9F36CA9182A1";
paths = (
{
closed = 1;
nodes = (
"91 0 LINE",
"355 351 LINE",
"357 351 LINE",
"621 0 LINE",
"646 0 LINE",
"368 369 LINE",
"640 730 LINE",
"615 730 LINE",
"357 387 LINE",
"355 387 LINE",
"97 730 LINE",
"72 730 LINE",
"344 369 LINE",
"66 0 LINE"
);
}
);
width = 712;
},
{
layerId = "9527F797-22C1-480E-A1FE-2CDBEBE1FD4C";
paths = (
{
closed = 1;
nodes = (
"169 0 LINE",
"353 304 LINE",
"355 304 LINE",
"539 0 LINE",
"664 0 LINE",
"435 367 LINE",
"661 730 LINE",
"536 730 LINE",
"355 431 LINE",
"353 431 LINE",
"172 730 LINE",
"47 730 LINE",
"273 367 LINE",
"44 0 LINE"
);
}
);
width = 708;
},
{
layerId = "9E6B41AB-2970-4C41-8B35-4DBE0D296A43";
paths = (
{
closed = 1;
nodes = (
"251 0 LINE",
"355 255 LINE",
"357 255 LINE",
"461 0 LINE",
"686 0 LINE",
"506 365 LINE",
"686 730 LINE",
"461 730 LINE",
"357 475 LINE",
"355 475 LINE",
"251 730 LINE",
"26 730 LINE",
"206 365 LINE",
"26 0 LINE"
);
}
);
width = 712;
}
);
leftKerningGroup = X;
leftMetricsKey = "=|K*2.2";
rightKerningGroup = X;
rightMetricsKey = "=|";
unicode = 0058;
},
{
color = 10;
glyphname = Y;
lastChange = "2021-02-27 02:38:05 +0000";
layers = (
{
anchors = (
{
name = bottom;
position = "{332, 0}";
},
{
name = top;
position = "{332, 730}";
},
{
name = topleft;
position = "{40, 730}";
}
);
layerId = "D65C9A1E-0FCA-4B2D-8EDF-9F36CA9182A1";
paths = (
{
closed = 1;
nodes = (
"342 0 LINE",
"342 297 LINE",
"652 730 LINE",
"627 730 LINE",
"333 318 LINE",
"331 318 LINE",
"37 730 LINE",
"12 730 LINE",
"322 297 LINE",
"322 0 LINE"
);
}
);
width = 664;
},
{
anchors = (
{
name = bottom;
position = "{342, 0}";
},
{
name = top;
position = "{342, 730}";
},
{
name = topleft;
position = "{29, 730}";
}
);
layerId = "9527F797-22C1-480E-A1FE-2CDBEBE1FD4C";
paths = (
{
closed = 1;
nodes = (
"399 0 LINE",
"399 274 LINE",
"677 730 LINE",
"551 730 LINE",
"343 373 LINE",
"341 373 LINE",
"133 730 LINE",
"7 730 LINE",
"285 274 LINE",
"285 0 LINE"
);
}
);
width = 684;
},
{
anchors = (
{
name = bottom;
position = "{354, 0}";
},
{
name = top;
position = "{354, 730}";
},
{
name = topleft;
position = "{20, 730}";
}
);
layerId = "9E6B41AB-2970-4C41-8B35-4DBE0D296A43";
paths = (
{
closed = 1;
nodes = (
"459 0 LINE",
"459 250 LINE",
"704 730 LINE",
"484 730 LINE",
"355 420 LINE",
"353 420 LINE",
"224 730 LINE",
"4 730 LINE",
"249 250 LINE",
"249 0 LINE"
);
}
);
width = 708;
}
);
leftKerningGroup = Y;
leftMetricsKey = "=V*.6";
rightKerningGroup = Y;
rightMetricsKey = "=|";
unicode = 0059;
},
{
color = 10;
glyphname = Z;
lastChange = "2021-02-27 02:38:05 +0000";
layers = (
{
anchors = (
{
name = bottom;
position = "{330, 0}";
},
{
name = center;
position = "{330, 365}";
},
{
name = top;
position = "{330, 730}";
}
);
layerId = "D65C9A1E-0FCA-4B2D-8EDF-9F36CA9182A1";
paths = (
{
closed = 1;
nodes = (
"580 0 LINE",
"580 20 LINE",
"105 20 LINE",
"105 22 LINE",
"580 710 LINE",
"580 730 LINE",
"80 730 LINE",
"80 710 LINE",
"555 710 LINE",
"555 708 LINE",
"80 20 LINE",
"80 0 LINE"
);
}
);
width = 660;
},
{
anchors = (
{
name = bottom;
position = "{324, 0}";
},
{
name = center;
position = "{324, 365}";
},
{
name = top;
position = "{324, 730}";
}
);
layerId = "9527F797-22C1-480E-A1FE-2CDBEBE1FD4C";
paths = (
{
closed = 1;
nodes = (
"584 0 LINE",
"584 100 LINE",
"199 100 LINE",
"199 102 LINE",
"584 630 LINE",
"584 730 LINE",
"64 730 LINE",
"64 630 LINE",
"449 630 LINE",
"449 628 LINE",
"64 100 LINE",
"64 0 LINE"
);
}
);
width = 648;
},
{
anchors = (
{
name = bottom;
position = "{318, 0}";
},
{
name = center;
position = "{318, 365}";
},
{
name = top;
position = "{318, 730}";
}
);
layerId = "9E6B41AB-2970-4C41-8B35-4DBE0D296A43";
paths = (
{
closed = 1;
nodes = (
"588 0 LINE",
"588 165 LINE",
"283 165 LINE",
"283 167 LINE",
"588 565 LINE",
"588 730 LINE",
"48 730 LINE",
"48 565 LINE",
"353 565 LINE",
"353 563 LINE",
"48 165 LINE",
"48 0 LINE"
);
}
);
width = 636;
}
);
leftKerningGroup = Z;
leftMetricsKey = "=H*.8";
rightKerningGroup = Z;
rightMetricsKey = "=|";
unicode = 005A;
},
{
color = 10;
glyphname = a;
lastChange = "2021-02-27 02:38:05 +0000";
layers = (
{
anchors = (
{
name = bottom;
position = "{246, 0}";
},
{
name = ogonek;
position = "{446, 0}";
},
{
name = top;
position = "{246, 520}";
}
);
layerId = "D65C9A1E-0FCA-4B2D-8EDF-9F36CA9182A1";
paths = (
{
closed = 1;
nodes = (
"304 -10 OFFCURVE",
"388 35 OFFCURVE",
"425 104 CURVE",
"426 104 LINE",
"426 0 LINE",
"446 0 LINE",
"446 325 LINE SMOOTH",
"446 477 OFFCURVE",
"399 530 OFFCURVE",
"263 530 CURVE SMOOTH",
"187 530 OFFCURVE",
"115 513 OFFCURVE",
"49 480 CURVE",
"58 462 LINE",
"122 494 OFFCURVE",
"190 510 OFFCURVE",
"263 510 CURVE SMOOTH",
"387 510 OFFCURVE",
"426 466 OFFCURVE",
"426 325 CURVE",
"330 325 LINE SMOOTH",
"139 325 OFFCURVE",
"36 262 OFFCURVE",
"36 145 CURVE SMOOTH",
"36 50 OFFCURVE",
"104 -10 OFFCURVE",
"212 -10 CURVE SMOOTH"
);
},
{
closed = 1;
nodes = (
"114 10 OFFCURVE",
"56 62 OFFCURVE",
"56 145 CURVE SMOOTH",
"56 249 OFFCURVE",
"150 305 OFFCURVE",
"330 305 CURVE SMOOTH",
"426 305 LINE",
"426 190 LINE SMOOTH",
"426 89 OFFCURVE",
"332 10 OFFCURVE",
"212 10 CURVE SMOOTH"
);
}
);
width = 518;
},
{
anchors = (
{
name = bottom;
position = "{264, 0}";
},
{
name = ogonek;
position = "{489, 0}";
},
{
name = top;
position = "{264, 520}";
}
);
background = {
anchors = (
{
name = bottom;
position = "{262, 0}";
},
{
name = ogonek;
position = "{489, 0}";
},
{
name = top;
position = "{262, 520}";
}
);
paths = (
{
closed = 1;
nodes = (
"279 -10 OFFCURVE",
"348 17 OFFCURVE",
"383 60 CURVE",
"385 60 LINE",
"386 0 LINE",
"489 0 LINE",
"489 338 LINE SMOOTH",
"489 480 OFFCURVE",
"434 530 OFFCURVE",
"281 530 CURVE SMOOTH",
"195 530 OFFCURVE",
"109 515 OFFCURVE",
"38 486 CURVE",
"53 396 LINE",
"120 425 OFFCURVE",
"197 440 OFFCURVE",
"267 440 CURVE SMOOTH",
"356 440 OFFCURVE",
"381 417 OFFCURVE",
"381 338 CURVE",
"304 338 LINE SMOOTH",
"126 338 OFFCURVE",
"24 269 OFFCURVE",
"24 148 CURVE SMOOTH",
"24 50 OFFCURVE",
"92 -10 OFFCURVE",
"204 -10 CURVE SMOOTH"
);
},
{
closed = 1;
nodes = (
"168 78 OFFCURVE",
"132 108 OFFCURVE",
"132 158 CURVE SMOOTH",
"132 223 OFFCURVE",
"194 256 OFFCURVE",
"319 256 CURVE SMOOTH",
"381 256 LINE",
"381 188 LINE SMOOTH",
"381 132 OFFCURVE",
"306 78 OFFCURVE",
"227 78 CURVE SMOOTH"
);
}
);
};
layerId = "9527F797-22C1-480E-A1FE-2CDBEBE1FD4C";
paths = (
{
closed = 1;
nodes = (
"269 -10 OFFCURVE",
"347 19 OFFCURVE",
"383 60 CURVE",
"385 60 LINE",
"386 0 LINE",
"489 0 LINE",
"489 328 LINE SMOOTH",
"489 478 OFFCURVE",
"436 530 OFFCURVE",
"283 530 CURVE SMOOTH",
"198 530 OFFCURVE",
"111 514 OFFCURVE",
"43 486 CURVE",
"57 397 LINE",
"122 425 OFFCURVE",
"198 440 OFFCURVE",
"269 440 CURVE SMOOTH",
"355 440 OFFCURVE",
"381 417 OFFCURVE",
"381 338 CURVE",
"306 338 LINE SMOOTH",
"129 338 OFFCURVE",
"29 269 OFFCURVE",
"29 148 CURVE SMOOTH",
"29 51 OFFCURVE",
"93 -10 OFFCURVE",
"197 -10 CURVE SMOOTH"
);
},
{
closed = 1;
nodes = (
"172 78 OFFCURVE",
"137 108 OFFCURVE",
"137 158 CURVE SMOOTH",
"137 223 OFFCURVE",
"198 256 OFFCURVE",
"321 256 CURVE SMOOTH",
"381 256 LINE",
"381 188 LINE SMOOTH",
"381 127 OFFCURVE",
"316 78 OFFCURVE",
"235 78 CURVE SMOOTH"
);
}
);
width = 547;
},
{
anchors = (
{
name = bottom;
position = "{283, 0}";
},
{
name = ogonek;
position = "{532, 0}";
},
{
name = top;
position = "{283, 520}";
}
);
layerId = "9E6B41AB-2970-4C41-8B35-4DBE0D296A43";
paths = (
{
closed = 1;
nodes = (
"244 -10 OFFCURVE",
"303 16 OFFCURVE",
"342 60 CURVE",
"344 60 LINE",
"346 0 LINE",
"532 0 LINE",
"532 330 LINE SMOOTH",
"532 476 OFFCURVE",
"470 530 OFFCURVE",
"303 530 CURVE SMOOTH",
"209 530 OFFCURVE",
"111 516 OFFCURVE",
"37 491 CURVE",
"57 351 LINE",
"124 375 OFFCURVE",
"209 390 OFFCURVE",
"276 390 CURVE SMOOTH",
"326 390 OFFCURVE",
"336 380 OFFCURVE",
"336 330 CURVE",
"282 330 LINE SMOOTH",
"116 330 OFFCURVE",
"22 265 OFFCURVE",
"22 150 CURVE SMOOTH",
"22 53 OFFCURVE",
"85 -10 OFFCURVE",
"182 -10 CURVE SMOOTH"
);
},
{
closed = 1;
nodes = (
"219 125 OFFCURVE",
"198 141 OFFCURVE",
"198 170 CURVE SMOOTH",
"198 208 OFFCURVE",
"233 225 OFFCURVE",
"312 225 CURVE SMOOTH",
"336 225 LINE",
"336 185 LINE SMOOTH",
"336 148 OFFCURVE",
"305 125 OFFCURVE",
"258 125 CURVE SMOOTH"
);
}
);
width = 575;
},
{
anchors = (
{
name = bottom;
position = "{257, 0}";
},
{
name = ogonek;
position = "{469, 0}";
},
{
name = top;
position = "{257, 520}";
}
);
associatedMasterId = "D65C9A1E-0FCA-4B2D-8EDF-9F36CA9182A1";
layerId = "37E9DD48-F59F-412B-917A-B9493104890B";
name = "Light {232}";
paths = (
{
closed = 1;
nodes = (
"300 -10 OFFCURVE",
"379 26 OFFCURVE",
"419 82 CURVE",
"421 82 LINE",
"421 0 LINE",
"469 0 LINE",
"469 329 LINE SMOOTH",
"469 478 OFFCURVE",
"418 530 OFFCURVE",
"275 530 CURVE SMOOTH",
"194 530 OFFCURVE",
"116 514 OFFCURVE",
"47 482 CURVE",
"58 440 LINE",
"124 471 OFFCURVE",
"197 487 OFFCURVE",
"270 487 CURVE SMOOTH",
"384 487 OFFCURVE",
"420 450 OFFCURVE",
"420 329 CURVE",
"328 329 LINE SMOOTH",
"138 329 OFFCURVE",
"34 264 OFFCURVE",
"34 146 CURVE SMOOTH",
"34 50 OFFCURVE",
"103 -10 OFFCURVE",
"214 -10 CURVE SMOOTH"
);
},
{
closed = 1;
nodes = (
"135 32 OFFCURVE",
"83 77 OFFCURVE",
"83 149 CURVE SMOOTH",
"83 240 OFFCURVE",
"168 289 OFFCURVE",
"333 289 CURVE SMOOTH",
"420 289 LINE",
"420 189 LINE SMOOTH",
"420 103 OFFCURVE",
"330 32 OFFCURVE",
"221 32 CURVE SMOOTH"
);
}
);
width = 536;
}
);
leftKerningGroup = a;
leftMetricsKey = "=h*.4";
rightKerningGroup = h;
rightMetricsKey = "=h";
unicode = 0061;
},
{
color = 11;
glyphname = ae;
lastChange = "2021-02-27 02:38:05 +0000";
layers = (
{
anchors = (
{
name = bottom;
position = "{460, 0}";
},
{
name = top;
position = "{460, 520}";
}
);
background = {
components = (
{
name = a;
transform = "{1, 0, 0, 1, -6, 0}";
},
{
name = e;
transform = "{1, 0, 0, 1, 374, -3}";
}
);
};
layerId = "D65C9A1E-0FCA-4B2D-8EDF-9F36CA9182A1";
paths = (
{
closed = 1;
nodes = (
"114 10 OFFCURVE",
"56 62 OFFCURVE",
"56 145 CURVE SMOOTH",
"56 249 OFFCURVE",
"150 305 OFFCURVE",
"330 305 CURVE SMOOTH",
"426 305 LINE",
"426 190 LINE SMOOTH",
"426 89 OFFCURVE",
"332 10 OFFCURVE",
"212 10 CURVE SMOOTH"
);
},
{
closed = 1;
nodes = (
"343 -10 OFFCURVE",
"446 78 OFFCURVE",
"446 190 CURVE SMOOTH",
"446 325 LINE SMOOTH",
"446 477 OFFCURVE",
"399 530 OFFCURVE",
"263 530 CURVE SMOOTH",
"187 530 OFFCURVE",
"115 513 OFFCURVE",
"49 480 CURVE",
"58 462 LINE",
"122 494 OFFCURVE",
"190 510 OFFCURVE",
"263 510 CURVE SMOOTH",
"387 510 OFFCURVE",
"426 466 OFFCURVE",
"426 325 CURVE",
"330 325 LINE SMOOTH",
"139 325 OFFCURVE",
"36 262 OFFCURVE",
"36 145 CURVE SMOOTH",
"36 50 OFFCURVE",
"104 -10 OFFCURVE",
"212 -10 CURVE SMOOTH"
);
},
{
closed = 1;
nodes = (
"740 -13 OFFCURVE",
"804 1 OFFCURVE",
"856 27 CURVE",
"847 45 LINE",
"798 21 OFFCURVE",
"738 7 OFFCURVE",
"678 7 CURVE SMOOTH",
"528 7 OFFCURVE",
"446 94 OFFCURVE",
"446 257 CURVE",
"446 257 LINE",
"446 415 OFFCURVE",
"526 507 OFFCURVE",
"661 507 CURVE SMOOTH",
"789 507 OFFCURVE",
"856 425 OFFCURVE",
"856 265 CURVE",
"866 275 LINE",
"436 275 LINE",
"436 255 LINE",
"876 255 LINE",
"876 260 OFFCURVE",
"876 260 OFFCURVE",
"876 265 CURVE SMOOTH",
"876 435 OFFCURVE",
"801 527 OFFCURVE",
"661 527 CURVE SMOOTH",
"514 527 OFFCURVE",
"426 425 OFFCURVE",
"426 257 CURVE SMOOTH",
"426 84 OFFCURVE",
"516 -13 OFFCURVE",
"678 -13 CURVE SMOOTH"
);
}
);
width = 919;
},
{
anchors = (
{
name = bottom;
position = "{454, 0}";
},
{
name = top;
position = "{454, 520}";
}
);
background = {
components = (
{
name = a;
transform = "{1, 0, 0, 1, -5, 0}";
},
{
name = e;
transform = "{1, 0, 0, 1, 338, 0}";
}
);
};
layerId = "9527F797-22C1-480E-A1FE-2CDBEBE1FD4C";
paths = (
{
closed = 1;
nodes = (
"172 78 OFFCURVE",
"137 108 OFFCURVE",
"137 158 CURVE SMOOTH",
"137 223 OFFCURVE",
"198 256 OFFCURVE",
"321 256 CURVE SMOOTH",
"381 256 LINE",
"381 188 LINE SMOOTH",
"381 127 OFFCURVE",
"316 78 OFFCURVE",
"235 78 CURVE SMOOTH"
);
},
{
closed = 1;
nodes = (
"378 -10 OFFCURVE",
"487 95 OFFCURVE",
"487 250 CURVE SMOOTH",
"487 328 LINE SMOOTH",
"487 478 OFFCURVE",
"435 530 OFFCURVE",
"283 530 CURVE SMOOTH",
"198 530 OFFCURVE",
"111 514 OFFCURVE",
"43 486 CURVE",
"57 397 LINE",
"122 425 OFFCURVE",
"198 440 OFFCURVE",
"269 440 CURVE SMOOTH",
"355 440 OFFCURVE",
"381 417 OFFCURVE",
"381 338 CURVE",
"306 338 LINE SMOOTH",
"129 338 OFFCURVE",
"29 269 OFFCURVE",
"29 148 CURVE SMOOTH",
"29 48 OFFCURVE",
"98 -10 OFFCURVE",
"217 -10 CURVE SMOOTH"
);
},
{
closed = 1;
nodes = (
"727 -10 OFFCURVE",
"795 3 OFFCURVE",
"846 24 CURVE",
"832 111 LINE",
"783 92 OFFCURVE",
"714 80 OFFCURVE",
"658 80 CURVE SMOOTH",
"543 80 OFFCURVE",
"487 132 OFFCURVE",
"487 240 CURVE",
"487 270 LINE",
"487 382 OFFCURVE",
"538 442 OFFCURVE",
"634 442 CURVE SMOOTH",
"725 442 OFFCURVE",
"770 387 OFFCURVE",
"770 274 CURVE",
"787 300 LINE",
"441 300 LINE",
"441 215 LINE",
"869 215 LINE",
"870 227 OFFCURVE",
"871 251 OFFCURVE",
"871 269 CURVE SMOOTH",
"871 436 OFFCURVE",
"786 530 OFFCURVE",
"634 530 CURVE SMOOTH",
"476 530 OFFCURVE",
"381 428 OFFCURVE",
"381 260 CURVE SMOOTH",
"381 87 OFFCURVE",
"482 -10 OFFCURVE",
"662 -10 CURVE SMOOTH"
);
}
);
width = 905;
},
{
anchors = (
{
name = bottom;
position = "{444, 0}";
},
{
name = top;
position = "{444, 520}";
}
);
background = {
components = (
{
name = a;
transform = "{1, 0, 0, 1, -5, 0}";
},
{
name = e;
transform = "{1, 0, 0, 1, 301, 0}";
}
);
};
layerId = "9E6B41AB-2970-4C41-8B35-4DBE0D296A43";
paths = (
{
closed = 1;
nodes = (
"219 125 OFFCURVE",
"198 141 OFFCURVE",
"198 170 CURVE SMOOTH",
"198 208 OFFCURVE",
"233 225 OFFCURVE",
"312 225 CURVE SMOOTH",
"336 225 LINE",
"336 185 LINE SMOOTH",
"336 148 OFFCURVE",
"305 125 OFFCURVE",
"258 125 CURVE SMOOTH"
);
},
{
closed = 1;
nodes = (
"409 -10 OFFCURVE",
"527 114 OFFCURVE",
"527 310 CURVE SMOOTH",
"527 330 LINE SMOOTH",
"527 476 OFFCURVE",
"466 530 OFFCURVE",
"303 530 CURVE SMOOTH",
"209 530 OFFCURVE",
"111 516 OFFCURVE",
"37 491 CURVE",
"57 351 LINE",
"124 375 OFFCURVE",
"209 390 OFFCURVE",
"276 390 CURVE SMOOTH",
"326 390 OFFCURVE",
"336 380 OFFCURVE",
"336 330 CURVE",
"282 330 LINE SMOOTH",
"116 330 OFFCURVE",
"22 265 OFFCURVE",
"22 150 CURVE SMOOTH",
"22 49 OFFCURVE",
"96 -10 OFFCURVE",
"222 -10 CURVE SMOOTH"
);
},
{
closed = 1;
nodes = (
"714 -10 OFFCURVE",
"788 1 OFFCURVE",
"835 18 CURVE",
"815 158 LINE",
"768 142 OFFCURVE",
"694 130 OFFCURVE",
"637 130 CURVE SMOOTH",
"559 130 OFFCURVE",
"527 156 OFFCURVE",
"527 220 CURVE SMOOTH",
"527 280 LINE SMOOTH",
"527 367 OFFCURVE",
"551 405 OFFCURVE",
"605 405 CURVE SMOOTH",
"659 405 OFFCURVE",
"683 367 OFFCURVE",
"683 280 CURVE",
"706 315 LINE",
"445 315 LINE",
"445 200 LINE",
"861 200 LINE",
"863 211 OFFCURVE",
"865 246 OFFCURVE",
"865 270 CURVE SMOOTH",
"865 434 OFFCURVE",
"769 530 OFFCURVE",
"605 530 CURVE SMOOTH",
"437 530 OFFCURVE",
"335 428 OFFCURVE",
"335 260 CURVE SMOOTH",
"335 86 OFFCURVE",
"445 -10 OFFCURVE",
"645 -10 CURVE SMOOTH"
);
}
);
width = 891;
}
);
leftKerningGroup = a;
leftMetricsKey = "=a";
rightKerningGroup = o;
rightMetricsKey = "=e";
unicode = 00E6;
},
{
color = 10;
glyphname = b;
lastChange = "2021-02-27 02:38:05 +0000";
layers = (
{
layerId = "D65C9A1E-0FCA-4B2D-8EDF-9F36CA9182A1";
paths = (
{
closed = 1;
nodes = (
"449 -10 OFFCURVE",
"530 90 OFFCURVE",
"530 260 CURVE SMOOTH",
"530 430 OFFCURVE",
"449 530 OFFCURVE",
"311 530 CURVE SMOOTH",
"220 530 OFFCURVE",
"146 486 OFFCURVE",
"112 412 CURVE",
"110 412 LINE",
"110 730 LINE",
"90 730 LINE",
"90 0 LINE",
"110 0 LINE",
"110 108 LINE",
"112 108 LINE",
"146 34 OFFCURVE",
"220 -10 OFFCURVE",
"311 -10 CURVE SMOOTH"
);
},
{
closed = 1;
nodes = (
"193 10 OFFCURVE",
"110 88 OFFCURVE",
"110 200 CURVE SMOOTH",
"110 320 LINE SMOOTH",
"110 432 OFFCURVE",
"193 510 OFFCURVE",
"311 510 CURVE SMOOTH",
"437 510 OFFCURVE",
"510 420 OFFCURVE",
"510 260 CURVE SMOOTH",
"510 100 OFFCURVE",
"437 10 OFFCURVE",
"311 10 CURVE SMOOTH"
);
}
);
width = 575;
},
{
layerId = "9E6B41AB-2970-4C41-8B35-4DBE0D296A43";
paths = (
{
closed = 1;
nodes = (
"540 -10 OFFCURVE",
"614 85 OFFCURVE",
"614 260 CURVE SMOOTH",
"614 435 OFFCURVE",
"540 530 OFFCURVE",
"405 530 CURVE SMOOTH",
"343 530 OFFCURVE",
"300 510 OFFCURVE",
"252 460 CURVE",
"250 460 LINE",
"250 730 LINE",
"54 730 LINE",
"54 0 LINE",
"240 0 LINE",
"242 60 LINE",
"244 60 LINE",
"293 11 OFFCURVE",
"341 -10 OFFCURVE",
"405 -10 CURVE SMOOTH"
);
},
{
closed = 1;
nodes = (
"284 140 OFFCURVE",
"250 172 OFFCURVE",
"250 220 CURVE SMOOTH",
"250 300 LINE SMOOTH",
"250 348 OFFCURVE",
"284 380 OFFCURVE",
"334 380 CURVE SMOOTH",
"391 380 OFFCURVE",
"422 338 OFFCURVE",
"422 260 CURVE SMOOTH",
"422 182 OFFCURVE",
"391 140 OFFCURVE",
"334 140 CURVE SMOOTH"
);
}
);
width = 641;
},
{
associatedMasterId = "D65C9A1E-0FCA-4B2D-8EDF-9F36CA9182A1";
layerId = "4577C09C-2268-4FDD-969E-4BC558CAFA0A";
name = "Light {232}";
paths = (
{
closed = 1;
nodes = (
"462 -10 OFFCURVE",
"544 90 OFFCURVE",
"544 260 CURVE SMOOTH",
"544 430 OFFCURVE",
"462 530 OFFCURVE",
"324 530 CURVE SMOOTH",
"243 530 OFFCURVE",
"169 495 OFFCURVE",
"135 441 CURVE",
"133 441 LINE",
"133 730 LINE",
"84 730 LINE",
"84 0 LINE",
"131 0 LINE",
"131 79 LINE",
"133 79 LINE",
"168 25 OFFCURVE",
"243 -10 OFFCURVE",
"324 -10 CURVE SMOOTH"
);
},
{
closed = 1;
nodes = (
"209 33 OFFCURVE",
"133 104 OFFCURVE",
"133 204 CURVE SMOOTH",
"133 316 LINE SMOOTH",
"133 416 OFFCURVE",
"209 487 OFFCURVE",
"315 487 CURVE SMOOTH",
"429 487 OFFCURVE",
"495 405 OFFCURVE",
"495 260 CURVE SMOOTH",
"495 115 OFFCURVE",
"429 33 OFFCURVE",
"315 33 CURVE SMOOTH"
);
}
);
width = 586;
},
{
layerId = "9527F797-22C1-480E-A1FE-2CDBEBE1FD4C";
paths = (
{
closed = 1;
nodes = (
"489 -10 OFFCURVE",
"572 91 OFFCURVE",
"572 260 CURVE SMOOTH",
"572 429 OFFCURVE",
"489 530 OFFCURVE",
"350 530 CURVE SMOOTH",
"280 530 OFFCURVE",
"219 504 OFFCURVE",
"182 458 CURVE",
"180 458 LINE",
"180 730 LINE",
"72 730 LINE",
"72 0 LINE",
"175 0 LINE",
"176 62 LINE",
"178 62 LINE",
"216 16 OFFCURVE",
"279 -10 OFFCURVE",
"350 -10 CURVE SMOOTH"
);
},
{
closed = 1;
nodes = (
"242 80 OFFCURVE",
"180 136 OFFCURVE",
"180 211 CURVE SMOOTH",
"180 309 LINE SMOOTH",
"180 384 OFFCURVE",
"242 440 OFFCURVE",
"325 440 CURVE SMOOTH",
"415 440 OFFCURVE",
"466 375 OFFCURVE",
"466 260 CURVE SMOOTH",
"466 145 OFFCURVE",
"415 80 OFFCURVE",
"325 80 CURVE SMOOTH"
);
}
);
width = 608;
}
);
leftKerningGroup = b;
leftMetricsKey = "=h";
rightKerningGroup = o;
rightMetricsKey = "=o";
unicode = 0062;
},
{
color = 10;
glyphname = c;
lastChange = "2021-02-27 02:38:05 +0000";
layers = (
{
anchors = (
{
name = bottom;
position = "{295, 0}";
},
{
name = cedi;
position = "{232, 0}";
},
{
name = top;
position = "{295, 520}";
}
);
layerId = "9E6B41AB-2970-4C41-8B35-4DBE0D296A43";
paths = (
{
closed = 1;
nodes = (
"400 -10 OFFCURVE",
"453 2 OFFCURVE",
"507 30 CURVE",
"477 170 LINE",
"429 143 OFFCURVE",
"389 130 OFFCURVE",
"347 130 CURVE SMOOTH",
"269 130 OFFCURVE",
"227 175 OFFCURVE",
"227 260 CURVE SMOOTH",
"227 345 OFFCURVE",
"269 390 OFFCURVE",
"347 390 CURVE SMOOTH",
"389 390 OFFCURVE",
"429 377 OFFCURVE",
"477 350 CURVE",
"507 490 LINE",
"453 518 OFFCURVE",
"400 530 OFFCURVE",
"332 530 CURVE SMOOTH",
"137 530 OFFCURVE",
"27 433 OFFCURVE",
"27 260 CURVE SMOOTH",
"27 87 OFFCURVE",
"137 -10 OFFCURVE",
"332 -10 CURVE SMOOTH"
);
}
);
width = 550;
},
{
anchors = (
{
name = bottom;
position = "{284, 0}";
},
{
name = cedi;
position = "{237, 0}";
},
{
name = top;
position = "{284, 520}";
}
);
layerId = "9527F797-22C1-480E-A1FE-2CDBEBE1FD4C";
paths = (
{
closed = 1;
nodes = (
"376 -10 OFFCURVE",
"426 1 OFFCURVE",
"476 27 CURVE",
"457 114 LINE",
"411 90 OFFCURVE",
"368 80 OFFCURVE",
"324 80 CURVE SMOOTH",
"211 80 OFFCURVE",
"146 146 OFFCURVE",
"146 260 CURVE SMOOTH",
"146 374 OFFCURVE",
"211 440 OFFCURVE",
"324 440 CURVE SMOOTH",
"368 440 OFFCURVE",
"411 430 OFFCURVE",
"457 406 CURVE",
"476 493 LINE",
"426 519 OFFCURVE",
"376 530 OFFCURVE",
"317 530 CURVE SMOOTH",
"140 530 OFFCURVE",
"36 430 OFFCURVE",
"36 260 CURVE SMOOTH",
"36 90 OFFCURVE",
"140 -10 OFFCURVE",
"317 -10 CURVE SMOOTH"
);
}
);
width = 534;
},
{
anchors = (
{
name = bottom;
position = "{272, 0}";
},
{
name = cedi;
position = "{242, 0}";
},
{
name = top;
position = "{272, 520}";
}
);
layerId = "D65C9A1E-0FCA-4B2D-8EDF-9F36CA9182A1";
paths = (
{
closed = 1;
nodes = (
"352 -10 OFFCURVE",
"398 1 OFFCURVE",
"445 25 CURVE",
"436 43 LINE",
"392 20 OFFCURVE",
"349 10 OFFCURVE",
"301 10 CURVE SMOOTH",
"154 10 OFFCURVE",
"65 105 OFFCURVE",
"65 260 CURVE SMOOTH",
"65 415 OFFCURVE",
"154 510 OFFCURVE",
"301 510 CURVE SMOOTH",
"349 510 OFFCURVE",
"392 500 OFFCURVE",
"436 477 CURVE",
"445 495 LINE",
"398 519 OFFCURVE",
"352 530 OFFCURVE",
"301 530 CURVE SMOOTH",
"143 530 OFFCURVE",
"45 426 OFFCURVE",
"45 260 CURVE SMOOTH",
"45 94 OFFCURVE",
"143 -10 OFFCURVE",
"301 -10 CURVE SMOOTH"
);
}
);
width = 517;
},
{
anchors = (
{
name = bottom;
position = "{279, 0}";
},
{
name = bottom_cd;
position = "{284, 0}";
},
{
name = top;
position = "{279, 520}";
}
);
associatedMasterId = "D65C9A1E-0FCA-4B2D-8EDF-9F36CA9182A1";
layerId = "82FD5E7F-C346-4B05-9AAB-FDE0116205A8";
name = "Feb 17 21, 16:42";
paths = (
{
closed = 1;
nodes = (
"359 -10 OFFCURVE",
"405 1 OFFCURVE",
"452 25 CURVE",
"443 43 LINE",
"399 20 OFFCURVE",
"356 10 OFFCURVE",
"308 10 CURVE SMOOTH",
"161 10 OFFCURVE",
"72 105 OFFCURVE",
"72 260 CURVE SMOOTH",
"72 415 OFFCURVE",
"161 510 OFFCURVE",
"308 510 CURVE SMOOTH",
"356 510 OFFCURVE",
"399 500 OFFCURVE",
"443 477 CURVE",
"452 495 LINE",
"405 519 OFFCURVE",
"359 530 OFFCURVE",
"308 530 CURVE SMOOTH",
"150 530 OFFCURVE",
"52 426 OFFCURVE",
"52 260 CURVE SMOOTH",
"52 94 OFFCURVE",
"150 -10 OFFCURVE",
"308 -10 CURVE SMOOTH"
);
}
);
width = 535;
}
);
leftKerningGroup = o;
leftMetricsKey = "=o";
rightKerningGroup = c;
rightMetricsKey = "=h";
unicode = 0063;
},
{
color = 11;
glyphname = eth;
lastChange = "2021-02-27 02:44:18 +0000";
layers = (
{
layerId = "D65C9A1E-0FCA-4B2D-8EDF-9F36CA9182A1";
rightMetricsKey = "=d*.3";
paths = (
{
closed = 1;
nodes = (
"425 -10 OFFCURVE",
"515 84 OFFCURVE",
"515 235 CURVE SMOOTH",
"515 445 OFFCURVE",
"336 735 OFFCURVE",
"172 790 CURVE",
"165 772 LINE",
"281 733 OFFCURVE",
"409 566 OFFCURVE",
"466 399 CURVE",
"464 398 LINE",
"423 451 OFFCURVE",
"360 480 OFFCURVE",
"280 480 CURVE SMOOTH",
"135 480 OFFCURVE",
"45 386 OFFCURVE",
"45 235 CURVE SMOOTH",
"45 84 OFFCURVE",
"135 -10 OFFCURVE",
"280 -10 CURVE SMOOTH"
);
},
{
closed = 1;
nodes = (
"146 10 OFFCURVE",
"65 95 OFFCURVE",
"65 235 CURVE SMOOTH",
"65 375 OFFCURVE",
"146 460 OFFCURVE",
"280 460 CURVE SMOOTH",
"414 460 OFFCURVE",
"495 375 OFFCURVE",
"495 235 CURVE SMOOTH",
"495 95 OFFCURVE",
"414 10 OFFCURVE",
"280 10 CURVE SMOOTH"
);
},
{
closed = 1;
nodes = (
"546 697 LINE",
"538 715 LINE",
"98 540 LINE",
"106 522 LINE"
);
}
);
width = 573;
},
{
layerId = "9527F797-22C1-480E-A1FE-2CDBEBE1FD4C";
rightMetricsKey = "=d*.5";
paths = (
{
closed = 1;
nodes = (
"455 -10 OFFCURVE",
"546 88 OFFCURVE",
"546 263 CURVE SMOOTH",
"546 544 OFFCURVE",
"381 758 OFFCURVE",
"141 790 CURVE",
"121 700 LINE",
"259 681 OFFCURVE",
"372 579 OFFCURVE",
"415 435 CURVE",
"413 434 LINE",
"380 465 OFFCURVE",
"335 480 OFFCURVE",
"276 480 CURVE SMOOTH",
"127 480 OFFCURVE",
"36 391 OFFCURVE",
"36 243 CURVE SMOOTH",
"36 84 OFFCURVE",
"131 -10 OFFCURVE",
"291 -10 CURVE SMOOTH"
);
},
{
closed = 1;
nodes = (
"198 80 OFFCURVE",
"144 140 OFFCURVE",
"144 243 CURVE SMOOTH",
"144 341 OFFCURVE",
"193 390 OFFCURVE",
"291 390 CURVE SMOOTH",
"389 390 OFFCURVE",
"438 341 OFFCURVE",
"438 243 CURVE SMOOTH",
"438 140 OFFCURVE",
"384 80 OFFCURVE",
"291 80 CURVE SMOOTH"
);
},
{
closed = 1;
nodes = (
"556 665 LINE",
"520 749 LINE",
"80 574 LINE",
"116 490 LINE"
);
}
);
width = 592;
},
{
layerId = "9E6B41AB-2970-4C41-8B35-4DBE0D296A43";
rightMetricsKey = "=d*.7";
paths = (
{
closed = 1;
nodes = (
"488 -10 OFFCURVE",
"577 84 OFFCURVE",
"577 280 CURVE SMOOTH",
"577 601 OFFCURVE",
"419 776 OFFCURVE",
"117 790 CURVE",
"77 660 LINE",
"241 652 OFFCURVE",
"358 575 OFFCURVE",
"364 471 CURVE",
"362 470 LINE",
"338 476 OFFCURVE",
"306 480 OFFCURVE",
"272 480 CURVE SMOOTH",
"116 480 OFFCURVE",
"27 397 OFFCURVE",
"27 250 CURVE SMOOTH",
"27 89 OFFCURVE",
"131 -10 OFFCURVE",
"302 -10 CURVE SMOOTH"
);
},
{
closed = 1;
nodes = (
"246 125 OFFCURVE",
"221 163 OFFCURVE",
"221 250 CURVE SMOOTH",
"221 337 OFFCURVE",
"246 375 OFFCURVE",
"302 375 CURVE SMOOTH",
"358 375 OFFCURVE",
"383 337 OFFCURVE",
"383 250 CURVE SMOOTH",
"383 163 OFFCURVE",
"358 125 OFFCURVE",
"302 125 CURVE SMOOTH"
);
},
{
closed = 1;
nodes = (
"562 643 LINE",
"507 773 LINE",
"67 598 LINE",
"122 468 LINE"
);
}
);
width = 615;
},
{
associatedMasterId = "D65C9A1E-0FCA-4B2D-8EDF-9F36CA9182A1";
layerId = "7EB7DD1D-0E67-4B53-AED1-36A39ED50BF4";
rightMetricsKey = "=d*.3";
name = "Light {232}";
paths = (
{
closed = 1;
nodes = (
"435 -10 OFFCURVE",
"525 85 OFFCURVE",
"525 244 CURVE SMOOTH",
"525 478 OFFCURVE",
"351 743 OFFCURVE",
"161 790 CURVE",
"146 749 LINE",
"268 720 OFFCURVE",
"391 578 OFFCURVE",
"446 423 CURVE",
"444 422 LINE",
"405 459 OFFCURVE",
"349 480 OFFCURVE",
"278 480 CURVE SMOOTH",
"132 480 OFFCURVE",
"42 388 OFFCURVE",
"42 238 CURVE SMOOTH",
"42 84 OFFCURVE",
"133 -10 OFFCURVE",
"283 -10 CURVE SMOOTH"
);
},
{
closed = 1;
nodes = (
"163 33 OFFCURVE",
"91 110 OFFCURVE",
"91 238 CURVE SMOOTH",
"91 364 OFFCURVE",
"161 437 OFFCURVE",
"283 437 CURVE SMOOTH",
"405 437 OFFCURVE",
"476 364 OFFCURVE",
"476 238 CURVE SMOOTH",
"476 110 OFFCURVE",
"404 33 OFFCURVE",
"283 33 CURVE SMOOTH"
);
},
{
closed = 1;
nodes = (
"549 686 LINE",
"532 726 LINE",
"92 551 LINE",
"109 511 LINE"
);
}
);
width = 574;
}
);
leftKerningGroup = o;
leftMetricsKey = "=o";
rightKerningGroup = o;
rightMetricsKey = "=d*.6";
unicode = 00F0;
},
{
color = 11;
glyphname = dcroat;
lastChange = "2021-02-27 02:44:18 +0000";
layers = (
{
components = (
{
name = d;
}
);
layerId = "D65C9A1E-0FCA-4B2D-8EDF-9F36CA9182A1";
paths = (
{
closed = 1;
nodes = (
"587 605 LINE",
"587 625 LINE",
"167 625 LINE",
"167 605 LINE"
);
}
);
width = 619;
},
{
components = (
{
alignment = -1;
name = d;
}
);
layerId = "9527F797-22C1-480E-A1FE-2CDBEBE1FD4C";
paths = (
{
closed = 1;
nodes = (
"633 570 LINE",
"633 660 LINE",
"213 660 LINE",
"213 570 LINE"
);
}
);
width = 661;
},
{
components = (
{
name = d;
}
);
layerId = "9E6B41AB-2970-4C41-8B35-4DBE0D296A43";
paths = (
{
closed = 1;
nodes = (
"679 545 LINE",
"679 685 LINE",
"259 685 LINE",
"259 545 LINE"
);
}
);
width = 703;
}
);
leftKerningGroup = o;
leftMetricsKey = "=d";
rightKerningGroup = W;
rightMetricsKey = "=W";
unicode = 0111;
},
{
color = 10;
glyphname = e;
lastChange = "2021-02-27 02:38:05 +0000";
layers = (
{
anchors = (
{
name = bottom;
position = "{284, 0}";
},
{
name = ogonek;
position = "{501, 24}";
},
{
name = top;
position = "{284, 520}";
}
);
layerId = "9527F797-22C1-480E-A1FE-2CDBEBE1FD4C";
paths = (
{
closed = 1;
nodes = (
"382 -10 OFFCURVE",
"450 3 OFFCURVE",
"501 24 CURVE",
"487 111 LINE",
"438 92 OFFCURVE",
"369 80 OFFCURVE",
"313 80 CURVE SMOOTH",
"198 80 OFFCURVE",
"142 132 OFFCURVE",
"142 240 CURVE",
"142 270 LINE",
"142 382 OFFCURVE",
"193 442 OFFCURVE",
"289 442 CURVE SMOOTH",
"380 442 OFFCURVE",
"425 387 OFFCURVE",
"425 274 CURVE",
"442 300 LINE",
"96 300 LINE",
"96 215 LINE",
"524 215 LINE",
"525 227 OFFCURVE",
"526 251 OFFCURVE",
"526 269 CURVE SMOOTH",
"526 436 OFFCURVE",
"441 530 OFFCURVE",
"289 530 CURVE SMOOTH",
"131 530 OFFCURVE",
"36 428 OFFCURVE",
"36 260 CURVE SMOOTH",
"36 87 OFFCURVE",
"137 -10 OFFCURVE",
"317 -10 CURVE SMOOTH"
);
}
);
width = 560;
},
{
anchors = (
{
name = bottom;
position = "{297, 0}";
},
{
name = ogonek;
position = "{527, 18}";
},
{
name = top;
position = "{297, 520}";
}
);
layerId = "9E6B41AB-2970-4C41-8B35-4DBE0D296A43";
paths = (
{
closed = 1;
nodes = (
"406 -10 OFFCURVE",
"480 1 OFFCURVE",
"527 18 CURVE",
"507 158 LINE",
"460 142 OFFCURVE",
"386 130 OFFCURVE",
"329 130 CURVE SMOOTH",
"251 130 OFFCURVE",
"219 156 OFFCURVE",
"219 220 CURVE SMOOTH",
"219 280 LINE SMOOTH",
"219 367 OFFCURVE",
"243 405 OFFCURVE",
"297 405 CURVE SMOOTH",
"351 405 OFFCURVE",
"375 367 OFFCURVE",
"375 280 CURVE",
"398 315 LINE",
"137 315 LINE",
"137 200 LINE",
"553 200 LINE",
"555 211 OFFCURVE",
"557 246 OFFCURVE",
"557 270 CURVE SMOOTH",
"557 434 OFFCURVE",
"461 530 OFFCURVE",
"297 530 CURVE SMOOTH",
"129 530 OFFCURVE",
"27 428 OFFCURVE",
"27 260 CURVE SMOOTH",
"27 86 OFFCURVE",
"137 -10 OFFCURVE",
"337 -10 CURVE SMOOTH"
);
}
);
width = 583;
},
{
anchors = (
{
name = bottom;
position = "{271, 0}";
},
{
name = ogonek;
position = "{475, 30}";
},
{
name = top;
position = "{271, 520}";
}
);
layerId = "D65C9A1E-0FCA-4B2D-8EDF-9F36CA9182A1";
paths = (
{
closed = 1;
nodes = (
"359 -10 OFFCURVE",
"423 4 OFFCURVE",
"475 30 CURVE",
"466 48 LINE",
"417 24 OFFCURVE",
"357 10 OFFCURVE",
"297 10 CURVE SMOOTH",
"147 10 OFFCURVE",
"65 97 OFFCURVE",
"65 260 CURVE",
"65 260 LINE",
"65 418 OFFCURVE",
"145 510 OFFCURVE",
"280 510 CURVE SMOOTH",
"408 510 OFFCURVE",
"475 428 OFFCURVE",
"475 268 CURVE",
"485 278 LINE",
"55 278 LINE",
"55 258 LINE",
"495 258 LINE",
"495 263 OFFCURVE",
"495 263 OFFCURVE",
"495 268 CURVE SMOOTH",
"495 438 OFFCURVE",
"420 530 OFFCURVE",
"280 530 CURVE SMOOTH",
"133 530 OFFCURVE",
"45 428 OFFCURVE",
"45 260 CURVE SMOOTH",
"45 87 OFFCURVE",
"135 -10 OFFCURVE",
"297 -10 CURVE SMOOTH"
);
}
);
width = 538;
}
);
leftKerningGroup = o;
leftMetricsKey = "=o";
rightKerningGroup = o;
rightMetricsKey = "=o*.95";
unicode = 0065;
},
{
color = 10;
glyphname = f;
lastChange = "2021-02-27 02:44:18 +0000";
layers = (
{
layerId = "9527F797-22C1-480E-A1FE-2CDBEBE1FD4C";
paths = (
{
closed = 1;
nodes = (
"269 0 LINE",
"269 430 LINE",
"439 430 LINE",
"439 520 LINE",
"269 520 LINE",
"269 577 LINE SMOOTH",
"269 650 OFFCURVE",
"293 677 OFFCURVE",
"358 677 CURVE SMOOTH",
"382 677 OFFCURVE",
"405 673 OFFCURVE",
"429 665 CURVE",
"442 755 LINE",
"414 764 OFFCURVE",
"378 770 OFFCURVE",
"341 770 CURVE SMOOTH",
"221 770 OFFCURVE",
"160 708 OFFCURVE",
"160 585 CURVE SMOOTH",
"160 520 LINE",
"22 520 LINE",
"22 430 LINE",
"160 430 LINE",
"160 0 LINE"
);
}
);
width = 464;
},
{
layerId = "9E6B41AB-2970-4C41-8B35-4DBE0D296A43";
paths = (
{
closed = 1;
nodes = (
"325 0 LINE",
"325 380 LINE",
"461 380 LINE",
"461 520 LINE",
"325 520 LINE",
"325 550 LINE SMOOTH",
"325 605 OFFCURVE",
"338 620 OFFCURVE",
"380 620 CURVE SMOOTH",
"399 620 OFFCURVE",
"421 617 OFFCURVE",
"446 610 CURVE",
"466 755 LINE",
"427 765 OFFCURVE",
"381 770 OFFCURVE",
"345 770 CURVE SMOOTH",
"203 770 OFFCURVE",
"127 693 OFFCURVE",
"127 550 CURVE SMOOTH",
"127 520 LINE",
"16 520 LINE",
"16 380 LINE",
"127 380 LINE",
"127 0 LINE"
);
}
);
width = 482;
},
{
layerId = "D65C9A1E-0FCA-4B2D-8EDF-9F36CA9182A1";
paths = (
{
closed = 1;
nodes = (
"211 0 LINE",
"211 500 LINE",
"415 500 LINE",
"415 520 LINE",
"211 520 LINE",
"211 620 LINE SMOOTH",
"211 711 OFFCURVE",
"248 750 OFFCURVE",
"335 750 CURVE SMOOTH",
"362 750 OFFCURVE",
"383 746 OFFCURVE",
"410 736 CURVE",
"417 755 LINE",
"387 766 OFFCURVE",
"363 770 OFFCURVE",
"335 770 CURVE SMOOTH",
"237 770 OFFCURVE",
"191 722 OFFCURVE",
"191 620 CURVE SMOOTH",
"191 520 LINE",
"27 520 LINE",
"27 500 LINE",
"191 500 LINE",
"191 0 LINE"
);
}
);
width = 444;
}
);
leftKerningGroup = f;
leftMetricsKey = "=h*.3";
rightKerningGroup = f;
rightMetricsKey = "=d*.3";
unicode = 0066;
},
{
color = 10;
glyphname = g;
lastChange = "2021-02-27 02:44:18 +0000";
layers = (
{
anchors = (
{
name = bottom;
position = "{287, -140}";
},
{
name = top;
position = "{287, 520}";
}
);
layerId = "D65C9A1E-0FCA-4B2D-8EDF-9F36CA9182A1";
paths = (
{
closed = 1;
nodes = (
"415 -220 OFFCURVE",
"485 -142 OFFCURVE",
"485 40 CURVE SMOOTH",
"485 520 LINE",
"465 520 LINE",
"465 416 LINE",
"463 416 LINE",
"428 489 OFFCURVE",
"356 530 OFFCURVE",
"265 530 CURVE SMOOTH",
"127 530 OFFCURVE",
"45 435 OFFCURVE",
"45 275 CURVE SMOOTH",
"45 115 OFFCURVE",
"127 20 OFFCURVE",
"265 20 CURVE SMOOTH",
"356 20 OFFCURVE",
"428 61 OFFCURVE",
"463 134 CURVE",
"465 134 LINE",
"465 40 LINE SMOOTH",
"465 -131 OFFCURVE",
"404 -200 OFFCURVE",
"253 -200 CURVE SMOOTH",
"182 -200 OFFCURVE",
"122 -185 OFFCURVE",
"73 -155 CURVE",
"63 -172 LINE",
"115 -204 OFFCURVE",
"179 -220 OFFCURVE",
"253 -220 CURVE SMOOTH"
);
},
{
closed = 1;
nodes = (
"139 40 OFFCURVE",
"65 125 OFFCURVE",
"65 275 CURVE SMOOTH",
"65 425 OFFCURVE",
"139 510 OFFCURVE",
"265 510 CURVE SMOOTH",
"383 510 OFFCURVE",
"465 436 OFFCURVE",
"465 331 CURVE SMOOTH",
"465 219 LINE SMOOTH",
"465 114 OFFCURVE",
"383 40 OFFCURVE",
"265 40 CURVE SMOOTH"
);
}
);
width = 575;
},
{
anchors = (
{
name = bottom;
position = "{304, -140}";
},
{
name = top;
position = "{304, 520}";
}
);
layerId = "9527F797-22C1-480E-A1FE-2CDBEBE1FD4C";
paths = (
{
closed = 1;
nodes = (
"452 -220 OFFCURVE",
"536 -133 OFFCURVE",
"536 55 CURVE SMOOTH",
"536 520 LINE",
"433 520 LINE",
"432 462 LINE",
"430 462 LINE",
"392 505 OFFCURVE",
"329 530 OFFCURVE",
"258 530 CURVE SMOOTH",
"119 530 OFFCURVE",
"36 435 OFFCURVE",
"36 275 CURVE SMOOTH",
"36 115 OFFCURVE",
"119 20 OFFCURVE",
"258 20 CURVE SMOOTH",
"327 20 OFFCURVE",
"388 44 OFFCURVE",
"426 88 CURVE",
"428 88 LINE",
"428 55 LINE SMOOTH",
"428 -77 OFFCURVE",
"380 -130 OFFCURVE",
"259 -130 CURVE SMOOTH",
"192 -130 OFFCURVE",
"124 -114 OFFCURVE",
"76 -86 CURVE",
"61 -174 LINE",
"110 -203 OFFCURVE",
"187 -220 OFFCURVE",
"269 -220 CURVE SMOOTH"
);
},
{
closed = 1;
nodes = (
"193 110 OFFCURVE",
"142 170 OFFCURVE",
"142 275 CURVE SMOOTH",
"142 380 OFFCURVE",
"193 440 OFFCURVE",
"283 440 CURVE SMOOTH",
"366 440 OFFCURVE",
"428 391 OFFCURVE",
"428 325 CURVE SMOOTH",
"428 225 LINE SMOOTH",
"428 159 OFFCURVE",
"366 110 OFFCURVE",
"283 110 CURVE SMOOTH"
);
}
);
width = 608;
},
{
anchors = (
{
name = bottom;
position = "{322, -140}";
},
{
name = top;
position = "{322, 520}";
}
);
layerId = "9E6B41AB-2970-4C41-8B35-4DBE0D296A43";
paths = (
{
closed = 1;
nodes = (
"486 -220 OFFCURVE",
"587 -123 OFFCURVE",
"587 70 CURVE SMOOTH",
"587 520 LINE",
"401 520 LINE",
"399 464 LINE",
"397 464 LINE",
"348 510 OFFCURVE",
"299 530 OFFCURVE",
"236 530 CURVE SMOOTH",
"101 530 OFFCURVE",
"27 440 OFFCURVE",
"27 275 CURVE SMOOTH",
"27 110 OFFCURVE",
"101 20 OFFCURVE",
"236 20 CURVE SMOOTH",
"298 20 OFFCURVE",
"340 38 OFFCURVE",
"389 86 CURVE",
"391 86 LINE",
"391 70 LINE",
"391 -39 OFFCURVE",
"357 -80 OFFCURVE",
"266 -80 CURVE SMOOTH",
"206 -80 OFFCURVE",
"129 -62 OFFCURVE",
"79 -36 CURVE",
"59 -176 LINE",
"109 -203 OFFCURVE",
"197 -220 OFFCURVE",
"285 -220 CURVE SMOOTH"
);
},
{
closed = 1;
nodes = (
"251 170 OFFCURVE",
"219 208 OFFCURVE",
"219 275 CURVE SMOOTH",
"219 342 OFFCURVE",
"251 380 OFFCURVE",
"307 380 CURVE SMOOTH",
"356 380 OFFCURVE",
"391 351 OFFCURVE",
"391 310 CURVE SMOOTH",
"391 240 LINE SMOOTH",
"391 199 OFFCURVE",
"356 170 OFFCURVE",
"307 170 CURVE SMOOTH"
);
}
);
width = 641;
},
{
anchors = (
{
name = bottom;
position = "{293, -140}";
},
{
name = top;
position = "{293, 520}";
}
);
associatedMasterId = "D65C9A1E-0FCA-4B2D-8EDF-9F36CA9182A1";
layerId = "2CB2E316-DF26-4020-8926-4C268D4E13F3";
name = "Light {232}";
paths = (
{
closed = 1;
nodes = (
"427 -220 OFFCURVE",
"502 -139 OFFCURVE",
"502 45 CURVE SMOOTH",
"502 520 LINE",
"454 520 LINE",
"454 445 LINE",
"452 445 LINE",
"417 497 OFFCURVE",
"345 530 OFFCURVE",
"263 530 CURVE SMOOTH",
"124 530 OFFCURVE",
"42 435 OFFCURVE",
"42 275 CURVE SMOOTH",
"42 115 OFFCURVE",
"124 20 OFFCURVE",
"263 20 CURVE SMOOTH",
"345 20 OFFCURVE",
"418 53 OFFCURVE",
"451 105 CURVE",
"453 105 LINE",
"453 45 LINE SMOOTH",
"453 -113 OFFCURVE",
"396 -177 OFFCURVE",
"255 -177 CURVE SMOOTH",
"185 -177 OFFCURVE",
"123 -162 OFFCURVE",
"74 -132 CURVE",
"62 -173 LINE",
"113 -204 OFFCURVE",
"182 -220 OFFCURVE",
"258 -220 CURVE SMOOTH"
);
},
{
closed = 1;
nodes = (
"157 63 OFFCURVE",
"90 140 OFFCURVE",
"90 275 CURVE SMOOTH",
"90 410 OFFCURVE",
"157 487 OFFCURVE",
"271 487 CURVE SMOOTH",
"377 487 OFFCURVE",
"453 421 OFFCURVE",
"453 329 CURVE SMOOTH",
"453 221 LINE SMOOTH",
"453 129 OFFCURVE",
"377 63 OFFCURVE",
"271 63 CURVE SMOOTH"
);
}
);
width = 586;
}
);
leftKerningGroup = o;
leftMetricsKey = "=d";
rightKerningGroup = g;
rightMetricsKey = "=u";
unicode = 0067;
},
{
color = 10;
glyphname = h;
lastChange = "2021-02-27 02:38:05 +0000";
layers = (
{
anchors = (
{
name = bottom;
position = "{285, 0}";
},
{
name = center;
position = "{285, 430}";
},
{
name = top;
position = "{285, 730}";
}
);
layerId = "D65C9A1E-0FCA-4B2D-8EDF-9F36CA9182A1";
paths = (
{
closed = 1;
nodes = (
"110 0 LINE",
"110 320 LINE SMOOTH",
"110 432 OFFCURVE",
"196 510 OFFCURVE",
"320 510 CURVE SMOOTH",
"429 510 OFFCURVE",
"480 449 OFFCURVE",
"480 320 CURVE SMOOTH",
"480 0 LINE",
"500 0 LINE",
"500 320 LINE SMOOTH",
"500 460 OFFCURVE",
"441 530 OFFCURVE",
"320 530 CURVE SMOOTH",
"224 530 OFFCURVE",
"148 487 OFFCURVE",
"112 412 CURVE",
"110 412 LINE",
"110 730 LINE",
"90 730 LINE",
"90 0 LINE"
);
}
);
width = 572;
},
{
anchors = (
{
name = bottom;
position = "{298, 0}";
},
{
name = center;
position = "{298, 430}";
},
{
name = top;
position = "{298, 730}";
}
);
layerId = "9527F797-22C1-480E-A1FE-2CDBEBE1FD4C";
paths = (
{
closed = 1;
nodes = (
"180 0 LINE",
"180 309 LINE SMOOTH",
"181 385 OFFCURVE",
"241 440 OFFCURVE",
"325 440 CURVE SMOOTH",
"400 440 OFFCURVE",
"435 396 OFFCURVE",
"434 300 CURVE SMOOTH",
"434 0 LINE",
"542 0 LINE",
"542 320 LINE SMOOTH",
"543 464 OFFCURVE",
"484 530 OFFCURVE",
"355 530 CURVE SMOOTH",
"280 530 OFFCURVE",
"223 506 OFFCURVE",
"182 458 CURVE",
"180 458 LINE",
"180 730 LINE",
"72 730 LINE",
"72 0 LINE"
);
}
);
width = 600;
},
{
anchors = (
{
name = bottom;
position = "{310, 0}";
},
{
name = center;
position = "{310, 430}";
},
{
name = top;
position = "{310, 730}";
}
);
layerId = "9E6B41AB-2970-4C41-8B35-4DBE0D296A43";
paths = (
{
closed = 1;
nodes = (
"250 0 LINE",
"250 300 LINE SMOOTH",
"250 341 OFFCURVE",
"283 370 OFFCURVE",
"329 370 CURVE SMOOTH",
"372 370 OFFCURVE",
"388 345 OFFCURVE",
"388 280 CURVE SMOOTH",
"388 0 LINE",
"584 0 LINE",
"584 320 LINE SMOOTH",
"584 466 OFFCURVE",
"531 530 OFFCURVE",
"409 530 CURVE SMOOTH",
"342 530 OFFCURVE",
"299 511 OFFCURVE",
"252 460 CURVE",
"250 460 LINE",
"250 730 LINE",
"54 730 LINE",
"54 0 LINE"
);
}
);
width = 627;
},
{
anchors = (
{
name = bottom;
position = "{289, 0}";
},
{
name = center;
position = "{289, 430}";
},
{
name = top;
position = "{289, 730}";
}
);
associatedMasterId = "D65C9A1E-0FCA-4B2D-8EDF-9F36CA9182A1";
layerId = "02FE662A-EEF6-4625-B8CE-6C497DD97EB0";
name = "Light {232}";
paths = (
{
closed = 1;
nodes = (
"133 0 LINE",
"133 316 LINE SMOOTH",
"133 416 OFFCURVE",
"211 487 OFFCURVE",
"322 487 CURVE SMOOTH",
"419 487 OFFCURVE",
"465 432 OFFCURVE",
"465 313 CURVE SMOOTH",
"465 0 LINE",
"514 0 LINE",
"514 320 LINE SMOOTH",
"514 463 OFFCURVE",
"457 530 OFFCURVE",
"332 530 CURVE SMOOTH",
"245 530 OFFCURVE",
"172 497 OFFCURVE",
"135 441 CURVE",
"133 441 LINE",
"133 730 LINE",
"84 730 LINE",
"84 0 LINE"
);
}
);
width = 581;
}
);
leftKerningGroup = b;
leftMetricsKey = "=H*.9";
rightKerningGroup = h;
rightMetricsKey = "=|*.8";
unicode = 0068;
},
{
color = 11;
glyphname = hbar;
lastChange = "2021-02-27 02:38:05 +0000";
layers = (
{
anchors = (
{
name = bottom;
position = "{337, 0}";
},
{
name = center;
position = "{337, 430}";
},
{
name = top;
position = "{337, 750}";
}
);
components = (
{
name = h;
transform = "{1, 0, 0, 1, 67, 0}";
}
);
layerId = "D65C9A1E-0FCA-4B2D-8EDF-9F36CA9182A1";
paths = (
{
closed = 1;
nodes = (
"452 625 LINE",
"32 625 LINE",
"32 605 LINE",
"452 605 LINE"
);
}
);
width = 639;
},
{
anchors = (
{
name = bottom;
position = "{356, 0}";
},
{
name = center;
position = "{356, 430}";
},
{
name = top;
position = "{356, 750}";
}
);
components = (
{
alignment = -1;
name = h;
transform = "{1, 0, 0, 1, 66, 0}";
}
);
layerId = "9527F797-22C1-480E-A1FE-2CDBEBE1FD4C";
paths = (
{
closed = 1;
nodes = (
"448 660 LINE",
"28 660 LINE",
"28 570 LINE",
"448 570 LINE"
);
}
);
width = 666;
},
{
anchors = (
{
name = bottom;
position = "{375, 0}";
},
{
name = center;
position = "{375, 430}";
},
{
name = top;
position = "{375, 750}";
}
);
components = (
{
name = h;
transform = "{1, 0, 0, 1, 65, 0}";
}
);
layerId = "9E6B41AB-2970-4C41-8B35-4DBE0D296A43";
paths = (
{
closed = 1;
nodes = (
"444 685 LINE",
"24 685 LINE",
"24 545 LINE",
"444 545 LINE"
);
}
);
width = 692;
}
);
leftKerningGroup = W;
leftMetricsKey = "=W";
rightKerningGroup = h;
rightMetricsKey = "=h";
unicode = 0127;
},
{
color = 10;
glyphname = i;
lastChange = "2021-02-27 02:38:05 +0000";
layers = (
{
layerId = "9527F797-22C1-480E-A1FE-2CDBEBE1FD4C";
paths = (
{
closed = 1;
nodes = (
"189 620 LINE",
"189 730 LINE",
"79 730 LINE",
"79 620 LINE"
);
},
{
closed = 1;
nodes = (
"189 0 LINE",
"189 520 LINE",
"79 520 LINE",
"79 0 LINE"
);
}
);
width = 268;
},
{
layerId = "9E6B41AB-2970-4C41-8B35-4DBE0D296A43";
paths = (
{
closed = 1;
nodes = (
"259 570 LINE",
"259 730 LINE",
"59 730 LINE",
"59 570 LINE"
);
},
{
closed = 1;
nodes = (
"259 0 LINE",
"259 500 LINE",
"59 500 LINE",
"59 0 LINE"
);
}
);
width = 318;
},
{
layerId = "D65C9A1E-0FCA-4B2D-8EDF-9F36CA9182A1";
paths = (
{
closed = 1;
nodes = (
"159 670 LINE",
"159 730 LINE",
"99 730 LINE",
"99 670 LINE"
);
},
{
closed = 1;
nodes = (
"139 0 LINE",
"139 520 LINE",
"119 520 LINE",
"119 0 LINE"
);
}
);
width = 258;
}
);
leftKerningGroup = l;
leftMetricsKey = "=l";
rightKerningGroup = l;
rightMetricsKey = "=|";
unicode = 0069;
},
{
color = 11;
glyphname = idotless;
lastChange = "2021-02-27 02:38:05 +0000";
layers = (
{
anchors = (
{
name = bottom;
position = "{109, 0}";
},
{
name = ogonek;
position = "{119, 0}";
},
{
name = top;
position = "{109, 520}";
}
);
layerId = "D65C9A1E-0FCA-4B2D-8EDF-9F36CA9182A1";
paths = (
{
closed = 1;
nodes = (
"119 0 LINE",
"119 520 LINE",
"99 520 LINE",
"99 0 LINE"
);
}
);
width = 218;
},
{
anchors = (
{
name = bottom;
position = "{134, 0}";
},
{
name = ogonek;
position = "{189, 0}";
},
{
name = top;
position = "{134, 520}";
}
);
layerId = "9527F797-22C1-480E-A1FE-2CDBEBE1FD4C";
paths = (
{
closed = 1;
nodes = (
"189 0 LINE",
"189 520 LINE",
"79 520 LINE",
"79 0 LINE"
);
}
);
width = 268;
},
{
anchors = (
{
name = bottom;
position = "{159, 0}";
},
{
name = ogonek;
position = "{259, 0}";
},
{
name = top;
position = "{159, 520}";
}
);
layerId = "9E6B41AB-2970-4C41-8B35-4DBE0D296A43";
paths = (
{
closed = 1;
nodes = (
"259 0 LINE",
"259 500 LINE",
"59 500 LINE",
"59 0 LINE"
);
}
);
width = 318;
}
);
leftKerningGroup = l;
leftMetricsKey = "=l";
rightKerningGroup = l;
rightMetricsKey = "=|";
unicode = 0131;
},
{
color = 10;
glyphname = j;
lastChange = "2021-02-27 02:38:05 +0000";
layers = (
{
layerId = "9527F797-22C1-480E-A1FE-2CDBEBE1FD4C";
leftMetricsKey = "=l-170";
paths = (
{
closed = 1;
nodes = (
"154 -199 OFFCURVE",
"219 -139 OFFCURVE",
"219 53 CURVE SMOOTH",
"219 520 LINE",
"109 520 LINE",
"109 53 LINE SMOOTH",
"109 -79 OFFCURVE",
"75 -109 OFFCURVE",
"-91 -126 CURVE",
"-75 -220 LINE"
);
},
{
closed = 1;
nodes = (
"219 620 LINE",
"219 730 LINE",
"109 730 LINE",
"109 620 LINE"
);
}
);
width = 298;
},
{
layerId = "9E6B41AB-2970-4C41-8B35-4DBE0D296A43";
leftMetricsKey = "=l-140";
paths = (
{
closed = 1;
nodes = (
"214 -200 OFFCURVE",
"289 -136 OFFCURVE",
"289 70 CURVE SMOOTH",
"289 500 LINE",
"89 500 LINE",
"89 70 LINE SMOOTH",
"89 -39 OFFCURVE",
"69 -56 OFFCURVE",
"-81 -70 CURVE",
"-51 -220 LINE"
);
},
{
closed = 1;
nodes = (
"289 570 LINE",
"289 730 LINE",
"89 730 LINE",
"89 570 LINE"
);
}
);
width = 348;
},
{
layerId = "D65C9A1E-0FCA-4B2D-8EDF-9F36CA9182A1";
leftMetricsKey = "=l-200";
paths = (
{
closed = 1;
nodes = (
"94 -198 OFFCURVE",
"149 -142 OFFCURVE",
"149 35 CURVE SMOOTH",
"149 520 LINE",
"129 520 LINE",
"129 35 LINE SMOOTH",
"129 -131 OFFCURVE",
"82 -179 OFFCURVE",
"-101 -200 CURVE",
"-99 -220 LINE"
);
},
{
closed = 1;
nodes = (
"169 670 LINE",
"169 730 LINE",
"109 730 LINE",
"109 670 LINE"
);
}
);
width = 268;
}
);
leftKerningGroup = l;
leftMetricsKey = "=-150";
rightKerningGroup = g;
rightMetricsKey = "=l";
unicode = 006A;
},
{
color = 11;
glyphname = jdotless;
lastChange = "2021-02-27 02:38:05 +0000";
layers = (
{
anchors = (
{
name = bottom;
position = "{104, -160}";
},
{
name = top;
position = "{104, 520}";
}
);
background = {
components = (
{
name = j;
transform = "{1, 0, 0, 1, -15, 0}";
}
);
};
layerId = "D65C9A1E-0FCA-4B2D-8EDF-9F36CA9182A1";
paths = (
{
closed = 1;
nodes = (
"94 -198 OFFCURVE",
"149 -142 OFFCURVE",
"149 35 CURVE SMOOTH",
"149 520 LINE",
"129 520 LINE",
"129 35 LINE SMOOTH",
"129 -131 OFFCURVE",
"82 -179 OFFCURVE",
"-101 -200 CURVE",
"-99 -220 LINE"
);
}
);
width = 248;
},
{
anchors = (
{
name = bottom;
position = "{135, -160}";
},
{
name = top;
position = "{135, 520}";
}
);
background = {
components = (
{
name = j;
transform = "{1, 0, 0, 1, -15, 0}";
}
);
};
layerId = "9527F797-22C1-480E-A1FE-2CDBEBE1FD4C";
paths = (
{
closed = 1;
nodes = (
"154 -199 OFFCURVE",
"219 -139 OFFCURVE",
"219 53 CURVE SMOOTH",
"219 520 LINE",
"109 520 LINE",
"109 53 LINE SMOOTH",
"109 -79 OFFCURVE",
"75 -109 OFFCURVE",
"-91 -126 CURVE",
"-75 -220 LINE"
);
}
);
width = 298;
},
{
anchors = (
{
name = bottom;
position = "{167, -160}";
},
{
name = top;
position = "{167, 520}";
}
);
background = {
components = (
{
name = j;
transform = "{1, 0, 0, 1, -15, 0}";
}
);
};
layerId = "9E6B41AB-2970-4C41-8B35-4DBE0D296A43";
paths = (
{
closed = 1;
nodes = (
"214 -200 OFFCURVE",
"289 -136 OFFCURVE",
"289 70 CURVE SMOOTH",
"289 500 LINE",
"89 500 LINE",
"89 70 LINE SMOOTH",
"89 -39 OFFCURVE",
"69 -56 OFFCURVE",
"-81 -70 CURVE",
"-51 -220 LINE"
);
}
);
width = 348;
}
);
leftKerningGroup = l;
leftMetricsKey = "=j";
rightKerningGroup = g;
rightMetricsKey = "=j";
unicode = 0237;
},
{
color = 10;
glyphname = k;
lastChange = "2021-02-27 02:44:18 +0000";
layers = (
{
anchors = (
{
name = bottom;
position = "{240, 0}";
},
{
name = top;
position = "{240, 730}";
}
);
layerId = "D65C9A1E-0FCA-4B2D-8EDF-9F36CA9182A1";
rightMetricsKey = "=d*.4";
paths = (
{
closed = 1;
nodes = (
"112 0 LINE",
"112 262 LINE",
"114 262 LINE",
"476 0 LINE",
"510 0 LINE",
"137 270 LINE",
"493 520 LINE",
"459 520 LINE",
"114 278 LINE",
"112 278 LINE",
"112 730 LINE",
"90 730 LINE",
"90 0 LINE"
);
}
);
width = 546;
},
{
anchors = (
{
name = bottom;
position = "{268, 0}";
},
{
name = top;
position = "{268, 730}";
}
);
layerId = "9527F797-22C1-480E-A1FE-2CDBEBE1FD4C";
rightMetricsKey = "=d*.3";
paths = (
{
closed = 1;
nodes = (
"181 0 LINE",
"181 235 LINE",
"183 235 LINE",
"423 0 LINE",
"562 0 LINE",
"276 270 LINE",
"551 520 LINE",
"412 520 LINE",
"183 306 LINE",
"181 306 LINE",
"181 730 LINE",
"72 730 LINE",
"72 0 LINE"
);
}
);
width = 584;
},
{
anchors = (
{
name = bottom;
position = "{295, 0}";
},
{
name = top;
position = "{295, 730}";
}
);
layerId = "9E6B41AB-2970-4C41-8B35-4DBE0D296A43";
rightMetricsKey = "=d*.2";
paths = (
{
closed = 1;
nodes = (
"250 0 LINE",
"250 215 LINE",
"252 215 LINE",
"389 0 LINE",
"614 0 LINE",
"414 270 LINE",
"609 520 LINE",
"384 520 LINE",
"252 325 LINE",
"250 325 LINE",
"250 730 LINE",
"54 730 LINE",
"54 0 LINE"
);
}
);
width = 625;
}
);
leftKerningGroup = b;
leftMetricsKey = "=h";
rightKerningGroup = x;
rightMetricsKey = "=d*.2";
unicode = 006B;
},
{
color = 11;
glyphname = kgreenlandic;
lastChange = "2021-02-27 02:44:18 +0000";
layers = (
{
anchors = (
{
name = bottom;
position = "{240, 0}";
},
{
name = top;
position = "{240, 520}";
}
);
background = {
components = (
{
name = k;
transform = "{1, 0, 0, 1, -14, 0}";
}
);
};
layerId = "D65C9A1E-0FCA-4B2D-8EDF-9F36CA9182A1";
paths = (
{
closed = 1;
nodes = (
"112 0 LINE",
"112 262 LINE",
"114 262 LINE",
"476 0 LINE",
"510 0 LINE",
"137 270 LINE",
"493 520 LINE",
"459 520 LINE",
"114 278 LINE",
"112 278 LINE",
"112 520 LINE",
"90 520 LINE",
"90 0 LINE"
);
}
);
width = 546;
},
{
anchors = (
{
name = bottom;
position = "{268, 0}";
},
{
name = top;
position = "{268, 520}";
}
);
background = {
components = (
{
name = k;
transform = "{1, 0, 0, 1, -13, 0}";
}
);
};
layerId = "9527F797-22C1-480E-A1FE-2CDBEBE1FD4C";
paths = (
{
closed = 1;
nodes = (
"181 0 LINE",
"181 235 LINE",
"183 235 LINE",
"423 0 LINE",
"562 0 LINE",
"276 270 LINE",
"551 520 LINE",
"412 520 LINE",
"183 306 LINE",
"181 306 LINE",
"181 520 LINE",
"72 520 LINE",
"72 0 LINE"
);
}
);
width = 584;
},
{
anchors = (
{
name = bottom;
position = "{295, 0}";
},
{
name = top;
position = "{295, 520}";
}
);
background = {
components = (
{
name = k;
transform = "{1, 0, 0, 1, -13, 0}";
}
);
};
layerId = "9E6B41AB-2970-4C41-8B35-4DBE0D296A43";
paths = (
{
closed = 1;
nodes = (
"250 0 LINE",
"250 215 LINE",
"252 215 LINE",
"389 0 LINE",
"614 0 LINE",
"414 270 LINE",
"609 520 LINE",
"384 520 LINE",
"252 325 LINE",
"250 325 LINE",
"250 520 LINE",
"54 520 LINE",
"54 0 LINE"
);
}
);
width = 625;
}
);
leftKerningGroup = n;
leftMetricsKey = "=k";
rightKerningGroup = x;
rightMetricsKey = "=k";
unicode = 0138;
},
{
color = 10;
glyphname = l;
lastChange = "2021-02-27 02:38:05 +0000";
layers = (
{
anchors = (
{
name = bottom;
position = "{109, 0}";
},
{
name = center;
position = "{109, 430}";
},
{
name = pdcenter;
position = "{335, 375}";
},
{
name = top;
position = "{109, 730}";
},
{
name = topright;
position = "{193, 730}";
}
);
layerId = "D65C9A1E-0FCA-4B2D-8EDF-9F36CA9182A1";
paths = (
{
closed = 1;
nodes = (
"119 0 LINE",
"119 730 LINE",
"99 730 LINE",
"99 0 LINE"
);
}
);
width = 218;
},
{
anchors = (
{
name = bottom;
position = "{134, 0}";
},
{
name = center;
position = "{134, 430}";
},
{
name = pdcenter;
position = "{430, 375}";
},
{
name = top;
position = "{134, 730}";
},
{
name = topright;
position = "{248, 730}";
}
);
layerId = "9527F797-22C1-480E-A1FE-2CDBEBE1FD4C";
paths = (
{
closed = 1;
nodes = (
"189 0 LINE",
"189 730 LINE",
"79 730 LINE",
"79 0 LINE"
);
}
);
width = 268;
},
{
anchors = (
{
name = bottom;
position = "{159, 0}";
},
{
name = center;
position = "{159, 430}";
},
{
name = pdcenter;
position = "{524, 375}";
},
{
name = top;
position = "{159, 730}";
},
{
name = topright;
position = "{304, 730}";
}
);
layerId = "9E6B41AB-2970-4C41-8B35-4DBE0D296A43";
paths = (
{
closed = 1;
nodes = (
"259 0 LINE",
"259 730 LINE",
"59 730 LINE",
"59 0 LINE"
);
}
);
width = 318;
}
);
leftKerningGroup = l;
leftMetricsKey = "=h*1.1";
rightKerningGroup = l;
rightMetricsKey = "=|";
unicode = 006C;
},
{
color = 11;
glyphname = lslash;
lastChange = "2021-02-27 02:38:05 +0000";
layers = (
{
components = (
{
name = l;
transform = "{1, 0, 0, 1, 99, 0}";
}
);
layerId = "D65C9A1E-0FCA-4B2D-8EDF-9F36CA9182A1";
leftMetricsKey = "=t*.9";
paths = (
{
closed = 1;
nodes = (
"372 431 LINE",
"364 449 LINE",
"34 299 LINE",
"42 281 LINE"
);
}
);
width = 406;
},
{
components = (
{
alignment = -1;
name = l;
transform = "{1, 0, 0, 1, 97, 0}";
}
);
layerId = "9527F797-22C1-480E-A1FE-2CDBEBE1FD4C";
leftMetricsKey = "=t*.7";
paths = (
{
closed = 1;
nodes = (
"449 407 LINE",
"413 491 LINE",
"13 323 LINE",
"49 239 LINE"
);
}
);
width = 462;
},
{
components = (
{
name = l;
transform = "{1, 0, 0, 1, 104, 0}";
}
);
layerId = "9E6B41AB-2970-4C41-8B35-4DBE0D296A43";
leftMetricsKey = "=t*.5";
paths = (
{
closed = 1;
nodes = (
"531 393 LINE",
"476 523 LINE",
"7 337 LINE",
"62 207 LINE"
);
}
);
width = 538;
}
);
leftKerningGroup = o;
leftMetricsKey = "=t*.5";
rightKerningGroup = f;
rightMetricsKey = "=|";
unicode = 0142;
},
{
color = 10;
glyphname = m;
lastChange = "2021-02-27 02:38:05 +0000";
layers = (
{
layerId = "D65C9A1E-0FCA-4B2D-8EDF-9F36CA9182A1";
paths = (
{
closed = 1;
nodes = (
"110 0 LINE",
"110 320 LINE SMOOTH",
"110 426 OFFCURVE",
"190 510 OFFCURVE",
"289 510 CURVE SMOOTH",
"372 510 OFFCURVE",
"425 451 OFFCURVE",
"425 360 CURVE SMOOTH",
"425 0 LINE",
"445 0 LINE",
"445 320 LINE SMOOTH",
"445 437 OFFCURVE",
"514 510 OFFCURVE",
"624 510 CURVE SMOOTH",
"718 510 OFFCURVE",
"760 458 OFFCURVE",
"760 340 CURVE SMOOTH",
"760 0 LINE",
"780 0 LINE",
"780 340 LINE SMOOTH",
"780 469 OFFCURVE",
"730 530 OFFCURVE",
"624 530 CURVE SMOOTH",
"538 530 OFFCURVE",
"477 490 OFFCURVE",
"442 412 CURVE",
"440 412 LINE",
"425 485 OFFCURVE",
"367 530 OFFCURVE",
"289 530 CURVE SMOOTH",
"213 530 OFFCURVE",
"148 487 OFFCURVE",
"112 412 CURVE",
"110 412 LINE",
"110 520 LINE",
"90 520 LINE",
"90 0 LINE"
);
}
);
width = 852;
},
{
layerId = "9527F797-22C1-480E-A1FE-2CDBEBE1FD4C";
paths = (
{
closed = 1;
nodes = (
"178 0 LINE",
"178 310 LINE SMOOTH",
"178 384 OFFCURVE",
"229 440 OFFCURVE",
"296 440 CURVE SMOOTH",
"352 440 OFFCURVE",
"384 401 OFFCURVE",
"384 330 CURVE SMOOTH",
"384 0 LINE",
"490 0 LINE",
"490 310 LINE SMOOTH",
"490 389 OFFCURVE",
"536 440 OFFCURVE",
"608 440 CURVE SMOOTH",
"669 440 OFFCURVE",
"696 403 OFFCURVE",
"696 320 CURVE SMOOTH",
"696 0 LINE",
"802 0 LINE",
"802 345 LINE SMOOTH",
"802 473 OFFCURVE",
"752 530 OFFCURVE",
"639 530 CURVE SMOOTH",
"568 530 OFFCURVE",
"517 507 OFFCURVE",
"478 458 CURVE",
"476 458 LINE",
"456 505 OFFCURVE",
"406 530 OFFCURVE",
"337 530 CURVE SMOOTH",
"266 530 OFFCURVE",
"213 503 OFFCURVE",
"176 458 CURVE",
"174 458 LINE",
"173 520 LINE",
"72 520 LINE",
"72 0 LINE"
);
}
);
width = 860;
},
{
layerId = "9E6B41AB-2970-4C41-8B35-4DBE0D296A43";
paths = (
{
closed = 1;
nodes = (
"246 0 LINE",
"246 300 LINE SMOOTH",
"246 341 OFFCURVE",
"269 370 OFFCURVE",
"302 370 CURVE SMOOTH",
"331 370 OFFCURVE",
"343 349 OFFCURVE",
"343 300 CURVE SMOOTH",
"343 0 LINE",
"535 0 LINE",
"535 300 LINE SMOOTH",
"535 341 OFFCURVE",
"558 370 OFFCURVE",
"591 370 CURVE SMOOTH",
"620 370 OFFCURVE",
"632 349 OFFCURVE",
"632 300 CURVE SMOOTH",
"632 0 LINE",
"824 0 LINE",
"824 350 LINE SMOOTH",
"824 476 OFFCURVE",
"779 530 OFFCURVE",
"673 530 CURVE SMOOTH",
"607 530 OFFCURVE",
"559 509 OFFCURVE",
"513 460 CURVE",
"511 460 LINE",
"488 507 OFFCURVE",
"447 530 OFFCURVE",
"384 530 CURVE SMOOTH",
"324 530 OFFCURVE",
"281 509 OFFCURVE",
"240 460 CURVE",
"238 460 LINE",
"236 520 LINE",
"54 520 LINE",
"54 0 LINE"
);
}
);
width = 867;
},
{
associatedMasterId = "D65C9A1E-0FCA-4B2D-8EDF-9F36CA9182A1";
background = {
paths = (
{
closed = 1;
nodes = (
"132 0 LINE",
"132 257 LINE SMOOTH",
"132 392 OFFCURVE",
"193 487 OFFCURVE",
"281 487 CURVE SMOOTH",
"354 487 OFFCURVE",
"398 423 OFFCURVE",
"398 317 CURVE SMOOTH",
"398 0 LINE",
"447 0 LINE",
"447 292 LINE SMOOTH",
"447 406 OFFCURVE",
"509 487 OFFCURVE",
"596 487 CURVE SMOOTH",
"667 487 OFFCURVE",
"713 433 OFFCURVE",
"713 350 CURVE SMOOTH",
"713 0 LINE",
"762 0 LINE",
"762 358 LINE SMOOTH",
"762 468 OFFCURVE",
"707 530 OFFCURVE",
"609 530 CURVE SMOOTH",
"535 530 OFFCURVE",
"471 495 OFFCURVE",
"437 435 CURVE",
"435 435 LINE",
"411 497 OFFCURVE",
"363 530 OFFCURVE",
"294 530 CURVE SMOOTH",
"224 530 OFFCURVE",
"169 497 OFFCURVE",
"133 435 CURVE",
"131 435 LINE",
"130 520 LINE",
"83 520 LINE",
"83 0 LINE"
);
}
);
};
layerId = "0CBD3FAB-BA75-4DFC-AD86-B9F788B7BCE9";
name = "Light {232}";
paths = (
{
closed = 1;
nodes = (
"132 0 LINE",
"132 316 LINE SMOOTH",
"132 400 OFFCURVE",
"198 487 OFFCURVE",
"291 487 CURVE SMOOTH",
"369 487 OFFCURVE",
"411 439 OFFCURVE",
"411 350 CURVE SMOOTH",
"411 0 LINE",
"460 0 LINE",
"460 316 LINE SMOOTH",
"460 418 OFFCURVE",
"524 487 OFFCURVE",
"619 487 CURVE SMOOTH",
"704 487 OFFCURVE",
"739 438 OFFCURVE",
"739 316 CURVE SMOOTH",
"739 0 LINE",
"787 0 LINE",
"787 325 LINE SMOOTH",
"787 469 OFFCURVE",
"742 530 OFFCURVE",
"632 530 CURVE SMOOTH",
"554 530 OFFCURVE",
"490 499 OFFCURVE",
"454 441 CURVE",
"452 441 LINE",
"435 499 OFFCURVE",
"383 530 OFFCURVE",
"305 530 CURVE SMOOTH",
"230 530 OFFCURVE",
"167 494 OFFCURVE",
"133 441 CURVE",
"131 441 LINE",
"131 520 LINE",
"84 520 LINE",
"84 0 LINE"
);
}
);
width = 854;
}
);
leftKerningGroup = n;
leftMetricsKey = "=n";
rightKerningGroup = h;
rightMetricsKey = "=n";
unicode = 006D;
},
{
color = 10;
glyphname = n;
lastChange = "2021-02-27 02:38:05 +0000";
layers = (
{
anchors = (
{
name = bottom;
position = "{291, 0}";
},
{
name = top;
position = "{291, 520}";
}
);
layerId = "D65C9A1E-0FCA-4B2D-8EDF-9F36CA9182A1";
paths = (
{
closed = 1;
nodes = (
"110 0 LINE",
"110 320 LINE SMOOTH",
"110 432 OFFCURVE",
"196 510 OFFCURVE",
"320 510 CURVE SMOOTH",
"429 510 OFFCURVE",
"480 449 OFFCURVE",
"480 320 CURVE SMOOTH",
"480 0 LINE",
"500 0 LINE",
"500 320 LINE SMOOTH",
"500 460 OFFCURVE",
"441 530 OFFCURVE",
"320 530 CURVE SMOOTH",
"225 530 OFFCURVE",
"148 487 OFFCURVE",
"112 412 CURVE",
"110 412 LINE",
"110 520 LINE",
"90 520 LINE",
"90 0 LINE"
);
}
);
width = 572;
},
{
anchors = (
{
name = bottom;
position = "{303, 0}";
},
{
name = top;
position = "{303, 520}";
}
);
layerId = "9527F797-22C1-480E-A1FE-2CDBEBE1FD4C";
paths = (
{
closed = 1;
nodes = (
"180 0 LINE",
"180 310 LINE SMOOTH",
"180 385 OFFCURVE",
"241 440 OFFCURVE",
"325 440 CURVE SMOOTH",
"400 440 OFFCURVE",
"434 396 OFFCURVE",
"434 300 CURVE SMOOTH",
"434 0 LINE",
"542 0 LINE",
"542 320 LINE SMOOTH",
"542 464 OFFCURVE",
"483 530 OFFCURVE",
"355 530 CURVE SMOOTH",
"277 530 OFFCURVE",
"219 506 OFFCURVE",
"178 458 CURVE",
"176 458 LINE",
"175 520 LINE",
"72 520 LINE",
"72 0 LINE"
);
}
);
width = 600;
},
{
anchors = (
{
name = bottom;
position = "{316, 0}";
},
{
name = top;
position = "{316, 520}";
}
);
layerId = "9E6B41AB-2970-4C41-8B35-4DBE0D296A43";
paths = (
{
closed = 1;
nodes = (
"250 0 LINE",
"250 300 LINE SMOOTH",
"250 341 OFFCURVE",
"283 370 OFFCURVE",
"329 370 CURVE SMOOTH",
"371 370 OFFCURVE",
"388 345 OFFCURVE",
"388 280 CURVE SMOOTH",
"388 0 LINE",
"584 0 LINE",
"584 320 LINE SMOOTH",
"584 466 OFFCURVE",
"530 530 OFFCURVE",
"409 530 CURVE SMOOTH",
"339 530 OFFCURVE",
"290 509 OFFCURVE",
"244 460 CURVE",
"242 460 LINE",
"240 520 LINE",
"54 520 LINE",
"54 0 LINE"
);
}
);
width = 627;
},
{
anchors = (
{
name = bottom;
position = "{296, 0}";
},
{
name = top;
position = "{296, 520}";
}
);
associatedMasterId = "D65C9A1E-0FCA-4B2D-8EDF-9F36CA9182A1";
layerId = "899DC2DC-F451-4B84-9275-F30D30733E24";
name = "Light {232}";
paths = (
{
closed = 1;
nodes = (
"133 0 LINE",
"133 316 LINE SMOOTH",
"133 416 OFFCURVE",
"211 487 OFFCURVE",
"322 487 CURVE SMOOTH",
"419 487 OFFCURVE",
"465 432 OFFCURVE",
"465 313 CURVE SMOOTH",
"465 0 LINE",
"514 0 LINE",
"514 320 LINE SMOOTH",
"514 463 OFFCURVE",
"456 530 OFFCURVE",
"332 530 CURVE SMOOTH",
"245 530 OFFCURVE",
"172 497 OFFCURVE",
"135 441 CURVE",
"133 441 LINE",
"133 520 LINE",
"84 520 LINE",
"84 0 LINE"
);
}
);
width = 581;
}
);
leftKerningGroup = n;
leftMetricsKey = "=h";
rightKerningGroup = h;
rightMetricsKey = "=h";
unicode = 006E;
},
{
color = 11;
glyphname = eng;
lastChange = "2021-02-27 02:38:05 +0000";
layers = (
{
anchors = (
{
name = bottom;
position = "{291, 0}";
},
{
name = top;
position = "{291, 520}";
}
);
background = {
components = (
{
name = n;
transform = "{1, 0, 0, 1, -14, 0}";
}
);
};
layerId = "D65C9A1E-0FCA-4B2D-8EDF-9F36CA9182A1";
paths = (
{
closed = 1;
nodes = (
"457 -211 OFFCURVE",
"500 -164 OFFCURVE",
"500 -61 CURVE SMOOTH",
"500 320 LINE SMOOTH",
"500 460 OFFCURVE",
"441 530 OFFCURVE",
"320 530 CURVE SMOOTH",
"225 530 OFFCURVE",
"148 487 OFFCURVE",
"112 412 CURVE",
"110 412 LINE",
"110 520 LINE",
"90 520 LINE",
"90 0 LINE",
"110 0 LINE",
"110 320 LINE SMOOTH",
"110 432 OFFCURVE",
"196 510 OFFCURVE",
"320 510 CURVE SMOOTH",
"429 510 OFFCURVE",
"480 449 OFFCURVE",
"480 320 CURVE SMOOTH",
"480 -61 LINE SMOOTH",
"480 -153 OFFCURVE",
"445 -191 OFFCURVE",
"360 -191 CURVE SMOOTH",
"335 -191 OFFCURVE",
"309 -186 OFFCURVE",
"287 -177 CURVE",
"281 -196 LINE",
"305 -205 OFFCURVE",
"333 -211 OFFCURVE",
"360 -211 CURVE SMOOTH"
);
}
);
width = 572;
},
{
anchors = (
{
name = bottom;
position = "{303, 0}";
},
{
name = top;
position = "{303, 520}";
}
);
background = {
components = (
{
name = n;
transform = "{1, 0, 0, 1, -13, 0}";
}
);
};
layerId = "9527F797-22C1-480E-A1FE-2CDBEBE1FD4C";
paths = (
{
closed = 1;
nodes = (
"490 -221 OFFCURVE",
"542 -163 OFFCURVE",
"542 -26 CURVE SMOOTH",
"542 320 LINE SMOOTH",
"542 464 OFFCURVE",
"483 530 OFFCURVE",
"355 530 CURVE SMOOTH",
"277 530 OFFCURVE",
"219 506 OFFCURVE",
"178 458 CURVE",
"176 458 LINE",
"175 520 LINE",
"72 520 LINE",
"72 0 LINE",
"180 0 LINE",
"180 310 LINE SMOOTH",
"180 385 OFFCURVE",
"241 440 OFFCURVE",
"325 440 CURVE SMOOTH",
"400 440 OFFCURVE",
"434 396 OFFCURVE",
"434 300 CURVE SMOOTH",
"434 -26 LINE SMOOTH",
"434 -97 OFFCURVE",
"408 -126 OFFCURVE",
"344 -126 CURVE SMOOTH",
"319 -126 OFFCURVE",
"293 -122 OFFCURVE",
"269 -114 CURVE",
"254 -205 LINE",
"291 -216 OFFCURVE",
"329 -221 OFFCURVE",
"366 -221 CURVE SMOOTH"
);
}
);
width = 600;
},
{
anchors = (
{
name = bottom;
position = "{316, 0}";
},
{
name = top;
position = "{316, 520}";
}
);
background = {
components = (
{
name = n;
transform = "{1, 0, 0, 1, -13, 0}";
}
);
};
layerId = "9E6B41AB-2970-4C41-8B35-4DBE0D296A43";
paths = (
{
closed = 1;
nodes = (
"529 -229 OFFCURVE",
"584 -169 OFFCURVE",
"584 0 CURVE SMOOTH",
"584 320 LINE SMOOTH",
"584 466 OFFCURVE",
"530 530 OFFCURVE",
"409 530 CURVE SMOOTH",
"339 530 OFFCURVE",
"290 509 OFFCURVE",
"244 460 CURVE",
"242 460 LINE",
"240 520 LINE",
"54 520 LINE",
"54 0 LINE",
"250 0 LINE",
"250 300 LINE SMOOTH",
"250 341 OFFCURVE",
"283 370 OFFCURVE",
"329 370 CURVE SMOOTH",
"371 370 OFFCURVE",
"388 345 OFFCURVE",
"388 280 CURVE SMOOTH",
"388 0 LINE SMOOTH",
"388 -54 OFFCURVE",
"375 -70 OFFCURVE",
"329 -70 CURVE SMOOTH",
"307 -70 OFFCURVE",
"274 -66 OFFCURVE",
"246 -59 CURVE",
"226 -214 LINE",
"274 -223 OFFCURVE",
"324 -229 OFFCURVE",
"372 -229 CURVE SMOOTH"
);
}
);
width = 627;
},
{
anchors = (
{
name = bottom;
position = "{295, 0}";
},
{
name = top;
position = "{295, 520}";
}
);
associatedMasterId = "D65C9A1E-0FCA-4B2D-8EDF-9F36CA9182A1";
background = {
components = (
{
name = n;
transform = "{1, 0, 0, 1, 3, 0}";
}
);
};
layerId = "79FE56B5-3AAC-4AE6-A914-FF8F134DF163";
name = "Light {232}";
paths = (
{
closed = 1;
nodes = (
"468 -214 OFFCURVE",
"514 -164 OFFCURVE",
"514 -49 CURVE SMOOTH",
"514 320 LINE SMOOTH",
"514 461 OFFCURVE",
"459 530 OFFCURVE",
"346 530 CURVE SMOOTH",
"257 530 OFFCURVE",
"173 487 OFFCURVE",
"133 421 CURVE",
"131 421 LINE",
"131 520 LINE",
"84 520 LINE",
"84 0 LINE",
"133 0 LINE",
"133 282 LINE SMOOTH",
"133 394 OFFCURVE",
"225 487 OFFCURVE",
"336 487 CURVE SMOOTH",
"422 487 OFFCURVE",
"464 430 OFFCURVE",
"464 313 CURVE SMOOTH",
"464 -49 LINE SMOOTH",
"464 -135 OFFCURVE",
"432 -170 OFFCURVE",
"355 -170 CURVE SMOOTH",
"330 -170 OFFCURVE",
"304 -165 OFFCURVE",
"281 -156 CURVE",
"272 -199 LINE",
"301 -209 OFFCURVE",
"332 -214 OFFCURVE",
"362 -214 CURVE SMOOTH"
);
}
);
width = 581;
}
);
leftKerningGroup = n;
leftMetricsKey = "=h";
rightKerningGroup = g;
rightMetricsKey = "=h";
unicode = 014B;
},
{
color = 10;
glyphname = o;
lastChange = "2021-02-27 02:38:05 +0000";
layers = (
{
anchors = (
{
name = bottom;
position = "{285, 0}";
},
{
name = center;
position = "{285, 260}";
},
{
name = ogonek;
position = "{332, 0}";
},
{
name = top;
position = "{285, 520}";
},
{
name = topright;
position = "{431, 480}";
}
);
layerId = "D65C9A1E-0FCA-4B2D-8EDF-9F36CA9182A1";
paths = (
{
closed = 1;
nodes = (
"434 -10 OFFCURVE",
"525 92 OFFCURVE",
"525 260 CURVE SMOOTH",
"525 428 OFFCURVE",
"434 530 OFFCURVE",
"285 530 CURVE SMOOTH",
"136 530 OFFCURVE",
"45 428 OFFCURVE",
"45 260 CURVE SMOOTH",
"45 92 OFFCURVE",
"136 -10 OFFCURVE",
"285 -10 CURVE SMOOTH"
);
},
{
closed = 1;
nodes = (
"147 10 OFFCURVE",
"65 103 OFFCURVE",
"65 260 CURVE SMOOTH",
"65 417 OFFCURVE",
"147 510 OFFCURVE",
"285 510 CURVE SMOOTH",
"423 510 OFFCURVE",
"505 417 OFFCURVE",
"505 260 CURVE SMOOTH",
"505 103 OFFCURVE",
"423 10 OFFCURVE",
"285 10 CURVE SMOOTH"
);
}
);
width = 570;
},
{
anchors = (
{
name = bottom;
position = "{296, 0}";
},
{
name = center;
position = "{296, 260}";
},
{
name = ogonek;
position = "{362, 0}";
},
{
name = top;
position = "{296, 520}";
},
{
name = topright;
position = "{456, 482}";
}
);
layerId = "9527F797-22C1-480E-A1FE-2CDBEBE1FD4C";
paths = (
{
closed = 1;
nodes = (
"461 -10 OFFCURVE",
"556 88 OFFCURVE",
"556 260 CURVE SMOOTH",
"556 432 OFFCURVE",
"461 530 OFFCURVE",
"296 530 CURVE SMOOTH",
"131 530 OFFCURVE",
"36 432 OFFCURVE",
"36 260 CURVE SMOOTH",
"36 88 OFFCURVE",
"131 -10 OFFCURVE",
"296 -10 CURVE SMOOTH"
);
},
{
closed = 1;
nodes = (
"198 80 OFFCURVE",
"144 143 OFFCURVE",
"144 260 CURVE SMOOTH",
"144 377 OFFCURVE",
"198 440 OFFCURVE",
"296 440 CURVE SMOOTH",
"394 440 OFFCURVE",
"448 377 OFFCURVE",
"448 260 CURVE SMOOTH",
"448 143 OFFCURVE",
"394 80 OFFCURVE",
"296 80 CURVE SMOOTH"
);
}
);
width = 592;
},
{
anchors = (
{
name = bottom;
position = "{307, 0}";
},
{
name = center;
position = "{307, 260}";
},
{
name = ogonek;
position = "{393, 0}";
},
{
name = top;
position = "{307, 520}";
},
{
name = topright;
position = "{482, 484}";
}
);
layerId = "9E6B41AB-2970-4C41-8B35-4DBE0D296A43";
paths = (
{
closed = 1;
nodes = (
"489 -10 OFFCURVE",
"587 84 OFFCURVE",
"587 260 CURVE SMOOTH",
"587 436 OFFCURVE",
"489 530 OFFCURVE",
"307 530 CURVE SMOOTH",
"125 530 OFFCURVE",
"27 436 OFFCURVE",
"27 260 CURVE SMOOTH",
"27 84 OFFCURVE",
"125 -10 OFFCURVE",
"307 -10 CURVE SMOOTH"
);
},
{
closed = 1;
nodes = (
"248 130 OFFCURVE",
"223 170 OFFCURVE",
"223 260 CURVE SMOOTH",
"223 350 OFFCURVE",
"248 390 OFFCURVE",
"307 390 CURVE SMOOTH",
"365 390 OFFCURVE",
"391 350 OFFCURVE",
"391 260 CURVE SMOOTH",
"391 170 OFFCURVE",
"365 130 OFFCURVE",
"307 130 CURVE SMOOTH"
);
}
);
width = 614;
}
);
leftKerningGroup = o;
leftMetricsKey = "=h*.5";
rightKerningGroup = o;
rightMetricsKey = "=|";
unicode = 006F;
},
{
color = 11;
glyphname = oslash;
lastChange = "2021-02-17 08:29:57 +0000";
layers = (
{
anchors = (
{
name = bottom;
position = "{292, 0}";
},
{
name = center;
position = "{292, 260}";
},
{
name = ogonek;
position = "{339, 0}";
},
{
name = top;
position = "{292, 520}";
},
{
name = topright;
position = "{438, 480}";
}
);
components = (
{
name = o;
}
);
layerId = "D65C9A1E-0FCA-4B2D-8EDF-9F36CA9182A1";
paths = (
{
closed = 1;
nodes = (
"146 46 LINE",
"146 46 LINE",
"454 462 LINE",
"454 462 LINE",
"500 524 LINE",
"484 536 LINE",
"438 474 LINE",
"438 474 LINE",
"130 58 LINE",
"130 58 LINE",
"84 -4 LINE",
"100 -16 LINE"
);
}
);
width = 546;
},
{
anchors = (
{
name = bottom;
position = "{303, 0}";
},
{
name = center;
position = "{303, 260}";
},
{
name = ogonek;
position = "{369, 0}";
},
{
name = top;
position = "{303, 520}";
},
{
name = topright;
position = "{463, 482}";
}
);
components = (
{
name = o;
}
);
layerId = "9527F797-22C1-480E-A1FE-2CDBEBE1FD4C";
paths = (
{
closed = 1;
nodes = (
"186 35 LINE",
"186 35 LINE",
"484 437 LINE",
"484 437 LINE",
"535 506 LINE",
"471 554 LINE",
"420 485 LINE",
"420 485 LINE",
"122 83 LINE",
"122 83 LINE",
"71 14 LINE",
"135 -34 LINE"
);
}
);
width = 578;
},
{
anchors = (
{
name = bottom;
position = "{314, 0}";
},
{
name = center;
position = "{314, 260}";
},
{
name = ogonek;
position = "{400, 0}";
},
{
name = top;
position = "{314, 520}";
},
{
name = topright;
position = "{489, 484}";
}
);
components = (
{
name = o;
}
);
layerId = "9E6B41AB-2970-4C41-8B35-4DBE0D296A43";
paths = (
{
closed = 1;
nodes = (
"194 14 LINE",
"186 20 LINE",
"506 452 LINE",
"514 446 LINE",
"554 500 LINE",
"474 560 LINE",
"434 506 LINE",
"442 500 LINE",
"122 68 LINE",
"114 74 LINE",
"74 20 LINE",
"154 -40 LINE"
);
}
);
width = 610;
}
);
leftKerningGroup = o;
rightKerningGroup = o;
unicode = 00F8;
},
{
color = 11;
glyphname = oe;
lastChange = "2021-02-27 02:38:05 +0000";
layers = (
{
anchors = (
{
name = bottom;
position = "{516, 0}";
},
{
name = top;
position = "{516, 520}";
}
);
background = {
components = (
{
name = o.002;
transform = "{1, 0, 0, 1, 20, 0}";
},
{
name = e;
transform = "{1, 0, 0, 1, 460, 0}";
}
);
};
components = (
{
name = o;
}
);
layerId = "D65C9A1E-0FCA-4B2D-8EDF-9F36CA9182A1";
paths = (
{
closed = 1;
nodes = (
"826 -10 OFFCURVE",
"890 4 OFFCURVE",
"942 30 CURVE",
"933 48 LINE",
"884 24 OFFCURVE",
"824 10 OFFCURVE",
"764 10 CURVE SMOOTH",
"614 10 OFFCURVE",
"532 97 OFFCURVE",
"532 260 CURVE",
"532 260 LINE",
"532 418 OFFCURVE",
"612 510 OFFCURVE",
"747 510 CURVE SMOOTH",
"875 510 OFFCURVE",
"942 428 OFFCURVE",
"942 268 CURVE",
"952 278 LINE",
"522 278 LINE",
"522 258 LINE",
"962 258 LINE",
"962 263 OFFCURVE",
"962 263 OFFCURVE",
"962 268 CURVE SMOOTH",
"962 438 OFFCURVE",
"887 530 OFFCURVE",
"747 530 CURVE SMOOTH",
"600 530 OFFCURVE",
"512 428 OFFCURVE",
"512 260 CURVE SMOOTH",
"512 87 OFFCURVE",
"602 -10 OFFCURVE",
"764 -10 CURVE SMOOTH"
);
}
);
width = 1005;
},
{
anchors = (
{
name = bottom;
position = "{498, 0}";
},
{
name = top;
position = "{498, 520}";
}
);
background = {
anchors = (
{
name = bottom;
position = "{703, 0}";
},
{
name = ogonek;
position = "{920, 24}";
},
{
name = top;
position = "{703, 520}";
}
);
components = (
{
name = o.002;
transform = "{1, 0, 0, 1, 10, 0}";
},
{
name = e;
transform = "{1, 0, 0, 1, 412, 0}";
}
);
};
components = (
{
name = o;
}
);
layerId = "9527F797-22C1-480E-A1FE-2CDBEBE1FD4C";
paths = (
{
closed = 1;
nodes = (
"801 -10 OFFCURVE",
"869 3 OFFCURVE",
"920 24 CURVE",
"906 111 LINE",
"857 92 OFFCURVE",
"788 80 OFFCURVE",
"732 80 CURVE SMOOTH",
"617 80 OFFCURVE",
"561 132 OFFCURVE",
"561 240 CURVE",
"561 270 LINE",
"561 382 OFFCURVE",
"612 442 OFFCURVE",
"708 442 CURVE SMOOTH",
"799 442 OFFCURVE",
"844 387 OFFCURVE",
"844 274 CURVE",
"861 300 LINE",
"515 300 LINE",
"515 215 LINE",
"943 215 LINE",
"944 227 OFFCURVE",
"945 251 OFFCURVE",
"945 269 CURVE SMOOTH",
"945 436 OFFCURVE",
"860 530 OFFCURVE",
"708 530 CURVE SMOOTH",
"550 530 OFFCURVE",
"455 428 OFFCURVE",
"455 260 CURVE SMOOTH",
"455 87 OFFCURVE",
"556 -10 OFFCURVE",
"736 -10 CURVE SMOOTH"
);
}
);
width = 979;
},
{
anchors = (
{
name = bottom;
position = "{477, 0}";
},
{
name = top;
position = "{477, 520}";
}
);
background = {
anchors = (
{
name = bottom;
position = "{666, 0}";
},
{
name = ogonek;
position = "{896, 18}";
},
{
name = top;
position = "{666, 520}";
}
);
components = (
{
name = o.002;
transform = "{1, 0, 0, 1, -2, 0}";
},
{
name = e;
transform = "{1, 0, 0, 1, 364, 0}";
}
);
};
components = (
{
name = o;
}
);
layerId = "9E6B41AB-2970-4C41-8B35-4DBE0D296A43";
paths = (
{
closed = 1;
nodes = (
"775 -10 OFFCURVE",
"849 1 OFFCURVE",
"896 18 CURVE",
"876 158 LINE",
"829 142 OFFCURVE",
"755 130 OFFCURVE",
"698 130 CURVE SMOOTH",
"620 130 OFFCURVE",
"588 156 OFFCURVE",
"588 220 CURVE SMOOTH",
"588 280 LINE SMOOTH",
"588 367 OFFCURVE",
"612 405 OFFCURVE",
"666 405 CURVE SMOOTH",
"720 405 OFFCURVE",
"744 367 OFFCURVE",
"744 280 CURVE",
"767 315 LINE",
"506 315 LINE",
"506 200 LINE",
"922 200 LINE",
"924 211 OFFCURVE",
"926 246 OFFCURVE",
"926 270 CURVE SMOOTH",
"926 434 OFFCURVE",
"830 530 OFFCURVE",
"666 530 CURVE SMOOTH",
"498 530 OFFCURVE",
"396 428 OFFCURVE",
"396 260 CURVE SMOOTH",
"396 86 OFFCURVE",
"506 -10 OFFCURVE",
"706 -10 CURVE SMOOTH"
);
}
);
width = 952;
}
);
leftKerningGroup = o;
leftMetricsKey = "=o";
rightKerningGroup = o;
rightMetricsKey = "=e";
unicode = 0153;
},
{
color = 11;
glyphname = thorn;
lastChange = "2021-02-27 02:38:05 +0000";
layers = (
{
background = {
components = (
{
name = p;
transform = "{1, 0, 0, 1, 4, 0}";
}
);
};
layerId = "D65C9A1E-0FCA-4B2D-8EDF-9F36CA9182A1";
paths = (
{
closed = 1;
nodes = (
"110 -240 LINE",
"110 120 LINE",
"112 120 LINE",
"146 39 OFFCURVE",
"217 -10 OFFCURVE",
"310 -10 CURVE SMOOTH",
"445 -10 OFFCURVE",
"524 91 OFFCURVE",
"524 260 CURVE SMOOTH",
"524 429 OFFCURVE",
"445 530 OFFCURVE",
"310 530 CURVE SMOOTH",
"217 530 OFFCURVE",
"146 481 OFFCURVE",
"112 400 CURVE",
"110 400 LINE",
"110 760 LINE",
"90 760 LINE",
"90 -240 LINE"
);
},
{
closed = 1;
nodes = (
"188 10 OFFCURVE",
"110 100 OFFCURVE",
"110 235 CURVE SMOOTH",
"110 285 LINE SMOOTH",
"110 420 OFFCURVE",
"188 510 OFFCURVE",
"310 510 CURVE SMOOTH",
"433 510 OFFCURVE",
"504 419 OFFCURVE",
"504 260 CURVE SMOOTH",
"504 101 OFFCURVE",
"433 10 OFFCURVE",
"310 10 CURVE SMOOTH"
);
}
);
width = 569;
},
{
background = {
components = (
{
name = p;
}
);
};
layerId = "9527F797-22C1-480E-A1FE-2CDBEBE1FD4C";
paths = (
{
closed = 1;
nodes = (
"180 -240 LINE",
"180 68 LINE",
"182 68 LINE",
"223 16 OFFCURVE",
"278 -10 OFFCURVE",
"349 -10 CURVE SMOOTH",
"488 -10 OFFCURVE",
"569 89 OFFCURVE",
"569 260 CURVE SMOOTH",
"569 431 OFFCURVE",
"489 530 OFFCURVE",
"349 530 CURVE SMOOTH",
"278 530 OFFCURVE",
"223 504 OFFCURVE",
"182 452 CURVE",
"180 452 LINE",
"180 760 LINE",
"72 760 LINE",
"72 -240 LINE"
);
},
{
closed = 1;
nodes = (
"233 80 OFFCURVE",
"180 146 OFFCURVE",
"180 240 CURVE SMOOTH",
"180 280 LINE SMOOTH",
"180 374 OFFCURVE",
"233 440 OFFCURVE",
"322 440 CURVE SMOOTH",
"411 440 OFFCURVE",
"462 375 OFFCURVE",
"462 260 CURVE SMOOTH",
"462 145 OFFCURVE",
"411 80 OFFCURVE",
"322 80 CURVE SMOOTH"
);
}
);
width = 605;
},
{
background = {
components = (
{
name = p;
transform = "{1, 0, 0, 1, -4, 0}";
}
);
};
layerId = "9E6B41AB-2970-4C41-8B35-4DBE0D296A43";
paths = (
{
closed = 1;
nodes = (
"250 -240 LINE",
"250 60 LINE",
"252 60 LINE",
"297 11 OFFCURVE",
"343 -10 OFFCURVE",
"405 -10 CURVE SMOOTH",
"538 -10 OFFCURVE",
"614 88 OFFCURVE",
"614 260 CURVE SMOOTH",
"614 432 OFFCURVE",
"538 530 OFFCURVE",
"405 530 CURVE SMOOTH",
"343 530 OFFCURVE",
"297 509 OFFCURVE",
"252 460 CURVE",
"250 460 LINE",
"250 760 LINE",
"54 760 LINE",
"54 -240 LINE"
);
},
{
closed = 1;
nodes = (
"276 140 OFFCURVE",
"250 177 OFFCURVE",
"250 240 CURVE SMOOTH",
"250 280 LINE SMOOTH",
"250 343 OFFCURVE",
"276 380 OFFCURVE",
"334 380 CURVE SMOOTH",
"394 380 OFFCURVE",
"422 341 OFFCURVE",
"422 260 CURVE SMOOTH",
"422 179 OFFCURVE",
"394 140 OFFCURVE",
"334 140 CURVE SMOOTH"
);
}
);
width = 641;
},
{
associatedMasterId = "D65C9A1E-0FCA-4B2D-8EDF-9F36CA9182A1";
background = {
components = (
{
name = p;
transform = "{1, 0, 0, 1, 3, 0}";
}
);
};
layerId = "0BCAABAB-37FB-445D-B33E-60B4C38D96A8";
name = "Light {232}";
paths = (
{
closed = 1;
nodes = (
"133 -240 LINE",
"133 90 LINE",
"135 90 LINE",
"171 27 OFFCURVE",
"239 -10 OFFCURVE",
"323 -10 CURVE SMOOTH",
"461 -10 OFFCURVE",
"539 88 OFFCURVE",
"539 260 CURVE SMOOTH",
"539 432 OFFCURVE",
"461 530 OFFCURVE",
"323 530 CURVE SMOOTH",
"239 530 OFFCURVE",
"171 493 OFFCURVE",
"135 430 CURVE",
"133 430 LINE",
"133 760 LINE",
"84 760 LINE",
"84 -240 LINE"
);
},
{
closed = 1;
nodes = (
"203 33 OFFCURVE",
"133 115 OFFCURVE",
"133 237 CURVE SMOOTH",
"133 283 LINE SMOOTH",
"133 405 OFFCURVE",
"203 487 OFFCURVE",
"314 487 CURVE SMOOTH",
"425 487 OFFCURVE",
"490 404 OFFCURVE",
"490 260 CURVE SMOOTH",
"490 116 OFFCURVE",
"425 33 OFFCURVE",
"314 33 CURVE SMOOTH"
);
}
);
width = 581;
}
);
leftKerningGroup = b;
leftMetricsKey = "=b";
rightKerningGroup = o;
rightMetricsKey = "=b";
unicode = 00FE;
},
{
color = 10;
glyphname = r;
lastChange = "2021-02-27 02:38:05 +0000";
layers = (
{
anchors = (
{
name = bottom;
position = "{206, 0}";
},
{
name = top;
position = "{206, 520}";
}
);
layerId = "D65C9A1E-0FCA-4B2D-8EDF-9F36CA9182A1";
rightMetricsKey = "=|*.2";
paths = (
{
closed = 1;
nodes = (
"110 0 LINE",
"110 280 LINE SMOOTH",
"110 408 OFFCURVE",
"221 510 OFFCURVE",
"360 510 CURVE",
"360 530 LINE",
"249 530 OFFCURVE",
"150 466 OFFCURVE",
"112 370 CURVE",
"110 370 LINE",
"110 520 LINE",
"90 520 LINE",
"90 0 LINE"
);
}
);
width = 378;
},
{
anchors = (
{
name = bottom;
position = "{228, 0}";
},
{
name = top;
position = "{228, 520}";
}
);
layerId = "9527F797-22C1-480E-A1FE-2CDBEBE1FD4C";
rightMetricsKey = "=|*.25";
paths = (
{
closed = 1;
nodes = (
"181 0 LINE",
"181 250 LINE SMOOTH",
"181 353 OFFCURVE",
"284 435 OFFCURVE",
"412 435 CURVE",
"412 530 LINE",
"315 530 OFFCURVE",
"228 489 OFFCURVE",
"179 420 CURVE",
"177 420 LINE",
"176 520 LINE",
"72 520 LINE",
"72 0 LINE"
);
}
);
width = 430;
},
{
anchors = (
{
name = bottom;
position = "{227, 0}";
},
{
name = top;
position = "{227, 520}";
}
);
associatedMasterId = "D65C9A1E-0FCA-4B2D-8EDF-9F36CA9182A1";
layerId = "657C252B-5EEF-4E2C-9A2A-557819CBA416";
rightMetricsKey = "=|*.2";
name = "Light {232}";
paths = (
{
closed = 1;
nodes = (
"133 0 LINE",
"133 270 LINE SMOOTH",
"133 390 OFFCURVE",
"241 485 OFFCURVE",
"377 485 CURVE",
"377 530 LINE",
"271 530 OFFCURVE",
"175 479 OFFCURVE",
"134 402 CURVE",
"132 402 LINE",
"132 520 LINE",
"84 520 LINE",
"84 0 LINE"
);
}
);
width = 394;
},
{
anchors = (
{
name = bottom;
position = "{245, 0}";
},
{
name = top;
position = "{245, 520}";
}
);
layerId = "9E6B41AB-2970-4C41-8B35-4DBE0D296A43";
rightMetricsKey = "=|*.3";
paths = (
{
closed = 1;
nodes = (
"252 0 LINE",
"252 220 LINE SMOOTH",
"252 303 OFFCURVE",
"347 370 OFFCURVE",
"464 370 CURVE",
"464 530 LINE",
"381 530 OFFCURVE",
"306 496 OFFCURVE",
"246 430 CURVE",
"244 430 LINE",
"242 520 LINE",
"54 520 LINE",
"54 0 LINE"
);
}
);
width = 480;
}
);
leftKerningGroup = n;
leftMetricsKey = "=n";
rightKerningGroup = r;
rightMetricsKey = "=|*.3";
unicode = 0072;
},
{
color = 10;
glyphname = s;
lastChange = "2021-02-27 02:38:05 +0000";
layers = (
{
anchors = (
{
name = bottom;
position = "{230, 0}";
},
{
name = cedi;
position = "{181, 0}";
},
{
name = top;
position = "{230, 520}";
}
);
background = {
paths = (
{
closed = 0;
nodes = (
"52 35 LINE",
"100 13 OFFCURVE",
"165 0 OFFCURVE",
"226 0 CURVE SMOOTH",
"341 0 OFFCURVE",
"406 47 OFFCURVE",
"406 130 CURVE SMOOTH",
"406 320 OFFCURVE",
"56 221 OFFCURVE",
"56 400 CURVE SMOOTH",
"56 476 OFFCURVE",
"118 520 OFFCURVE",
"226 520 CURVE SMOOTH",
"285 520 OFFCURVE",
"359 507 OFFCURVE",
"396 490 CURVE"
);
}
);
};
layerId = "D65C9A1E-0FCA-4B2D-8EDF-9F36CA9182A1";
paths = (
{
closed = 1;
nodes = (
"346 -10 OFFCURVE",
"415 41 OFFCURVE",
"415 130 CURVE SMOOTH",
"415 234 OFFCURVE",
"318 258 OFFCURVE",
"229 280 CURVE SMOOTH",
"143 301 OFFCURVE",
"66 320 OFFCURVE",
"66 400 CURVE SMOOTH",
"66 470 OFFCURVE",
"123 510 OFFCURVE",
"226 510 CURVE SMOOTH",
"284 510 OFFCURVE",
"356 497 OFFCURVE",
"391 481 CURVE",
"400 499 LINE",
"361 517 OFFCURVE",
"286 530 OFFCURVE",
"226 530 CURVE SMOOTH",
"112 530 OFFCURVE",
"46 482 OFFCURVE",
"45 400 CURVE SMOOTH",
"45 304 OFFCURVE",
"138 281 OFFCURVE",
"224 260 CURVE SMOOTH",
"313 239 OFFCURVE",
"396 219 OFFCURVE",
"396 130 CURVE SMOOTH",
"396 53 OFFCURVE",
"335 10 OFFCURVE",
"226 10 CURVE SMOOTH",
"165 10 OFFCURVE",
"102 23 OFFCURVE",
"56 44 CURVE",
"47 26 LINE",
"97 3 OFFCURVE",
"163 -10 OFFCURVE",
"226 -10 CURVE SMOOTH"
);
}
);
width = 460;
},
{
anchors = (
{
name = bottom;
position = "{245, 0}";
},
{
name = cedi;
position = "{183, 0}";
},
{
name = top;
position = "{245, 520}";
}
);
layerId = "9527F797-22C1-480E-A1FE-2CDBEBE1FD4C";
paths = (
{
closed = 1;
nodes = (
"380 -10 OFFCURVE",
"456 45 OFFCURVE",
"456 143 CURVE SMOOTH",
"456 229 OFFCURVE",
"396 279 OFFCURVE",
"255 311 CURVE SMOOTH",
"170 333 OFFCURVE",
"146 348 OFFCURVE",
"146 382 CURVE SMOOTH",
"146 422 OFFCURVE",
"180 440 OFFCURVE",
"256 440 CURVE SMOOTH",
"312 440 OFFCURVE",
"370 430 OFFCURVE",
"425 410 CURVE",
"440 499 LINE",
"383 518 OFFCURVE",
"307 530 OFFCURVE",
"243 530 CURVE SMOOTH",
"109 530 OFFCURVE",
"36 479 OFFCURVE",
"36 385 CURVE SMOOTH",
"36 301 OFFCURVE",
"91 255 OFFCURVE",
"233 221 CURVE SMOOTH",
"320 200 OFFCURVE",
"346 183 OFFCURVE",
"346 146 CURVE SMOOTH",
"346 101 OFFCURVE",
"310 80 OFFCURVE",
"232 80 CURVE SMOOTH",
"172 80 OFFCURVE",
"111 92 OFFCURVE",
"53 116 CURVE",
"38 27 LINE",
"95 4 OFFCURVE",
"176 -10 OFFCURVE",
"245 -10 CURVE SMOOTH"
);
}
);
width = 492;
},
{
anchors = (
{
name = bottom;
position = "{262, 0}";
},
{
name = cedi;
position = "{186, 0}";
},
{
name = top;
position = "{262, 520}";
}
);
layerId = "9E6B41AB-2970-4C41-8B35-4DBE0D296A43";
paths = (
{
closed = 1;
nodes = (
"406 -10 OFFCURVE",
"497 54 OFFCURVE",
"497 155 CURVE SMOOTH",
"497 244 OFFCURVE",
"429 299 OFFCURVE",
"282 331 CURVE SMOOTH",
"242 342 OFFCURVE",
"228 351 OFFCURVE",
"227 367 CURVE SMOOTH",
"228 384 OFFCURVE",
"242 390 OFFCURVE",
"287 390 CURVE SMOOTH",
"344 390 OFFCURVE",
"389 381 OFFCURVE",
"460 359 CURVE",
"480 499 LINE",
"407 519 OFFCURVE",
"327 530 OFFCURVE",
"260 530 CURVE SMOOTH",
"107 530 OFFCURVE",
"27 475 OFFCURVE",
"27 370 CURVE SMOOTH",
"27 277 OFFCURVE",
"85 229 OFFCURVE",
"243 191 CURVE SMOOTH",
"288 179 OFFCURVE",
"298 172 OFFCURVE",
"297 157 CURVE SMOOTH",
"298 137 OFFCURVE",
"282 130 OFFCURVE",
"238 130 CURVE SMOOTH",
"179 130 OFFCURVE",
"123 141 OFFCURVE",
"50 167 CURVE",
"30 27 LINE",
"99 2 OFFCURVE",
"177 -10 OFFCURVE",
"265 -10 CURVE SMOOTH"
);
}
);
width = 524;
}
);
leftKerningGroup = s;
leftMetricsKey = "=h*.5";
rightKerningGroup = s;
rightMetricsKey = "=|";
unicode = 0073;
},
{
color = 11;
glyphname = germandbls;
lastChange = "2021-02-27 02:38:05 +0000";
layers = (
{
layerId = "D65C9A1E-0FCA-4B2D-8EDF-9F36CA9182A1";
rightMetricsKey = "=X*.7";
paths = (
{
closed = 1;
nodes = (
"456 -10 OFFCURVE",
"530 57 OFFCURVE",
"530 160 CURVE SMOOTH",
"530 224 OFFCURVE",
"505 264 OFFCURVE",
"402 360 CURVE SMOOTH",
"360 400 OFFCURVE",
"350 411 OFFCURVE",
"350 420 CURVE SMOOTH",
"350 427 OFFCURVE",
"356 436 OFFCURVE",
"389 473 CURVE SMOOTH",
"458 548 OFFCURVE",
"480 588 OFFCURVE",
"480 640 CURVE SMOOTH",
"480 719 OFFCURVE",
"414 760 OFFCURVE",
"290 760 CURVE SMOOTH",
"142 760 OFFCURVE",
"90 706 OFFCURVE",
"90 555 CURVE SMOOTH",
"90 0 LINE",
"110 0 LINE",
"110 555 LINE SMOOTH",
"110 696 OFFCURVE",
"154 740 OFFCURVE",
"290 740 CURVE SMOOTH",
"404 740 OFFCURVE",
"460 706 OFFCURVE",
"460 640 CURVE SMOOTH",
"460 594 OFFCURVE",
"441 559 OFFCURVE",
"374 486 CURVE SMOOTH",
"344 453 OFFCURVE",
"330 436 OFFCURVE",
"330 420 CURVE SMOOTH",
"330 401 OFFCURVE",
"348 383 OFFCURVE",
"388 345 CURVE SMOOTH",
"486 252 OFFCURVE",
"510 218 OFFCURVE",
"510 160 CURVE SMOOTH",
"510 69 OFFCURVE",
"446 10 OFFCURVE",
"345 10 CURVE SMOOTH",
"303 10 OFFCURVE",
"239 20 OFFCURVE",
"188 35 CURVE",
"182 15 LINE",
"237 0 OFFCURVE",
"301 -10 OFFCURVE",
"345 -10 CURVE SMOOTH"
);
}
);
width = 576;
},
{
layerId = "9527F797-22C1-480E-A1FE-2CDBEBE1FD4C";
rightMetricsKey = "=X*.9";
paths = (
{
closed = 1;
nodes = (
"491 -10 OFFCURVE",
"564 51 OFFCURVE",
"564 153 CURVE SMOOTH",
"564 207 OFFCURVE",
"542 247 OFFCURVE",
"470 324 CURVE SMOOTH",
"424 373 OFFCURVE",
"414 386 OFFCURVE",
"414 398 CURVE SMOOTH",
"414 408 OFFCURVE",
"424 424 OFFCURVE",
"458 469 CURVE SMOOTH",
"513 541 OFFCURVE",
"529 574 OFFCURVE",
"529 615 CURVE SMOOTH",
"529 707 OFFCURVE",
"446 760 OFFCURVE",
"303 760 CURVE SMOOTH",
"143 760 OFFCURVE",
"72 692 OFFCURVE",
"72 538 CURVE SMOOTH",
"72 0 LINE",
"180 0 LINE",
"180 537 LINE SMOOTH",
"180 637 OFFCURVE",
"209 665 OFFCURVE",
"308 665 CURVE SMOOTH",
"387 665 OFFCURVE",
"423 647 OFFCURVE",
"423 609 CURVE SMOOTH",
"423 583 OFFCURVE",
"407 555 OFFCURVE",
"353 489 CURVE SMOOTH",
"314 440 OFFCURVE",
"303 420 OFFCURVE",
"303 398 CURVE SMOOTH",
"303 372 OFFCURVE",
"319 345 OFFCURVE",
"361 300 CURVE SMOOTH",
"443 214 OFFCURVE",
"458 193 OFFCURVE",
"458 164 CURVE SMOOTH",
"458 116 OFFCURVE",
"417 85 OFFCURVE",
"353 85 CURVE SMOOTH",
"324 85 OFFCURVE",
"286 92 OFFCURVE",
"250 103 CURVE",
"235 8 LINE",
"283 -4 OFFCURVE",
"332 -10 OFFCURVE",
"370 -10 CURVE SMOOTH"
);
}
);
width = 604;
},
{
layerId = "9E6B41AB-2970-4C41-8B35-4DBE0D296A43";
rightMetricsKey = "=X*1.1";
paths = (
{
closed = 1;
nodes = (
"524 -10 OFFCURVE",
"599 47 OFFCURVE",
"599 145 CURVE SMOOTH",
"599 192 OFFCURVE",
"582 232 OFFCURVE",
"539 288 CURVE SMOOTH",
"508 327 OFFCURVE",
"485 365 OFFCURVE",
"485 377 CURVE SMOOTH",
"485 386 OFFCURVE",
"497 407 OFFCURVE",
"535 465 CURVE SMOOTH",
"571 521 OFFCURVE",
"585 556 OFFCURVE",
"585 590 CURVE SMOOTH",
"585 691 OFFCURVE",
"476 760 OFFCURVE",
"315 760 CURVE SMOOTH",
"137 760 OFFCURVE",
"54 684 OFFCURVE",
"54 520 CURVE SMOOTH",
"54 0 LINE",
"250 0 LINE",
"250 513 LINE SMOOTH",
"250 586 OFFCURVE",
"262 600 OFFCURVE",
"325 600 CURVE SMOOTH",
"373 600 OFFCURVE",
"395 590 OFFCURVE",
"395 568 CURVE SMOOTH",
"395 547 OFFCURVE",
"376 510 OFFCURVE",
"347 474 CURVE SMOOTH",
"308 425 OFFCURVE",
"295 400 OFFCURVE",
"295 375 CURVE SMOOTH",
"295 351 OFFCURVE",
"307 330 OFFCURVE",
"349 274 CURVE SMOOTH",
"391 218 OFFCURVE",
"403 196 OFFCURVE",
"403 177 CURVE SMOOTH",
"403 156 OFFCURVE",
"388 145 OFFCURVE",
"360 145 CURVE SMOOTH",
"346 145 OFFCURVE",
"326 148 OFFCURVE",
"300 155 CURVE",
"290 0 LINE",
"334 -7 OFFCURVE",
"366 -10 OFFCURVE",
"395 -10 CURVE SMOOTH"
);
}
);
width = 628;
}
);
leftKerningGroup = h;
leftMetricsKey = "=b";
rightKerningGroup = X;
rightMetricsKey = "=X*1.1";
unicode = 00DF;
},
{
color = 10;
glyphname = t;
lastChange = "2021-02-27 02:38:05 +0000";
layers = (
{
anchors = (
{
name = bottom;
position = "{242, 0}";
},
{
name = cedi;
position = "{251, 0}";
},
{
name = center;
position = "{242, 260}";
},
{
name = top;
position = "{242, 520}";
},
{
name = topright;
position = "{429, 520}";
}
);
layerId = "D65C9A1E-0FCA-4B2D-8EDF-9F36CA9182A1";
leftMetricsKey = "=f*1.4";
rightMetricsKey = "=c*.6";
paths = (
{
closed = 1;
nodes = (
"354 -10 OFFCURVE",
"385 -6 OFFCURVE",
"418 5 CURVE",
"412 24 LINE",
"383 14 OFFCURVE",
"355 10 OFFCURVE",
"322 10 CURVE SMOOTH",
"230 10 OFFCURVE",
"199 43 OFFCURVE",
"199 140 CURVE SMOOTH",
"199 500 LINE",
"415 500 LINE",
"415 520 LINE",
"199 520 LINE",
"199 690 LINE",
"179 690 LINE",
"179 520 LINE",
"38 520 LINE",
"38 500 LINE",
"179 500 LINE",
"179 140 LINE SMOOTH",
"179 32 OFFCURVE",
"219 -10 OFFCURVE",
"322 -10 CURVE SMOOTH"
);
}
);
width = 461;
},
{
anchors = (
{
name = bottom;
position = "{241, 0}";
},
{
name = cedi;
position = "{227, 0}";
},
{
name = center;
position = "{241, 260}";
},
{
name = top;
position = "{241, 520}";
},
{
name = topright;
position = "{460, 520}";
}
);
layerId = "9527F797-22C1-480E-A1FE-2CDBEBE1FD4C";
rightMetricsKey = "=c*.8";
paths = (
{
closed = 1;
nodes = (
"347 -10 OFFCURVE",
"385 -5 OFFCURVE",
"428 8 CURVE",
"418 100 LINE",
"392 91 OFFCURVE",
"360 85 OFFCURVE",
"329 85 CURVE SMOOTH",
"267 85 OFFCURVE",
"247 109 OFFCURVE",
"247 180 CURVE SMOOTH",
"247 430 LINE",
"428 430 LINE",
"428 520 LINE",
"247 520 LINE",
"247 690 LINE",
"138 690 LINE",
"138 520 LINE",
"18 520 LINE",
"18 430 LINE",
"138 430 LINE",
"138 150 LINE SMOOTH",
"138 36 OFFCURVE",
"187 -10 OFFCURVE",
"307 -10 CURVE SMOOTH"
);
}
);
width = 474;
},
{
anchors = (
{
name = bottom;
position = "{253, 0}";
},
{
name = cedi;
position = "{216, 0}";
},
{
name = center;
position = "{253, 260}";
},
{
name = top;
position = "{253, 520}";
},
{
name = topright;
position = "{505, 520}";
}
);
layerId = "9E6B41AB-2970-4C41-8B35-4DBE0D296A43";
leftMetricsKey = "=f*.8";
rightMetricsKey = "=c*1";
paths = (
{
closed = 1;
nodes = (
"354 -10 OFFCURVE",
"396 -4 OFFCURVE",
"450 10 CURVE",
"435 155 LINE",
"408 146 OFFCURVE",
"373 140 OFFCURVE",
"350 140 CURVE SMOOTH",
"317 140 OFFCURVE",
"308 153 OFFCURVE",
"308 200 CURVE SMOOTH",
"308 380 LINE",
"453 380 LINE",
"453 520 LINE",
"308 520 LINE",
"308 690 LINE",
"110 690 LINE",
"110 520 LINE",
"13 520 LINE",
"13 380 LINE",
"110 380 LINE",
"110 160 LINE SMOOTH",
"110 39 OFFCURVE",
"168 -10 OFFCURVE",
"305 -10 CURVE SMOOTH"
);
}
);
width = 496;
}
);
leftKerningGroup = f;
leftMetricsKey = "=f*.8";
rightKerningGroup = c;
rightMetricsKey = "=c*1.2";
unicode = 0074;
},
{
color = 11;
glyphname = tbar;
lastChange = "2020-12-09 07:59:53 +0000";
layers = (
{
components = (
{
name = t;
}
);
layerId = "D65C9A1E-0FCA-4B2D-8EDF-9F36CA9182A1";
paths = (
{
closed = 1;
nodes = (
"375 240 LINE",
"375 260 LINE",
"35 260 LINE",
"35 240 LINE"
);
}
);
width = 421;
},
{
components = (
{
alignment = -1;
name = t;
}
);
layerId = "9527F797-22C1-480E-A1FE-2CDBEBE1FD4C";
paths = (
{
closed = 1;
nodes = (
"418 210 LINE",
"418 300 LINE",
"18 300 LINE",
"18 210 LINE"
);
}
);
width = 473;
},
{
components = (
{
name = t;
}
);
layerId = "9E6B41AB-2970-4C41-8B35-4DBE0D296A43";
paths = (
{
closed = 1;
nodes = (
"474 190 LINE",
"474 330 LINE",
"14 330 LINE",
"14 190 LINE"
);
}
);
width = 525;
}
);
leftKerningGroup = f;
rightKerningGroup = c;
unicode = 0167;
},
{
color = 10;
glyphname = u;
lastChange = "2021-02-27 02:38:05 +0000";
layers = (
{
anchors = (
{
name = bottom;
position = "{276, 0}";
},
{
name = ogonek;
position = "{472, 0}";
},
{
name = top;
position = "{276, 520}";
},
{
name = top_ring;
position = "{276, 540}";
},
{
name = topright;
position = "{472, 480}";
}
);
layerId = "D65C9A1E-0FCA-4B2D-8EDF-9F36CA9182A1";
paths = (
{
closed = 1;
nodes = (
"340 -10 OFFCURVE",
"414 33 OFFCURVE",
"450 108 CURVE",
"452 108 LINE",
"452 0 LINE",
"472 0 LINE",
"472 520 LINE",
"452 520 LINE",
"452 200 LINE SMOOTH",
"452 88 OFFCURVE",
"368 10 OFFCURVE",
"247 10 CURVE SMOOTH",
"142 10 OFFCURVE",
"92 70 OFFCURVE",
"92 200 CURVE SMOOTH",
"92 520 LINE",
"72 520 LINE",
"72 200 LINE SMOOTH",
"72 59 OFFCURVE",
"130 -10 OFFCURVE",
"247 -10 CURVE SMOOTH"
);
}
);
width = 562;
},
{
anchors = (
{
name = bottom;
position = "{292, 0}";
},
{
name = ogonek;
position = "{518, 0}";
},
{
name = top;
position = "{292, 520}";
},
{
name = top_ring;
position = "{292, 540}";
},
{
name = topright;
position = "{503, 480}";
}
);
layerId = "9527F797-22C1-480E-A1FE-2CDBEBE1FD4C";
paths = (
{
closed = 1;
nodes = (
"316 -10 OFFCURVE",
"371 14 OFFCURVE",
"412 62 CURVE",
"414 62 LINE",
"415 0 LINE",
"518 0 LINE",
"518 520 LINE",
"410 520 LINE",
"410 210 LINE SMOOTH",
"410 135 OFFCURVE",
"351 80 OFFCURVE",
"270 80 CURVE SMOOTH",
"198 80 OFFCURVE",
"166 124 OFFCURVE",
"166 220 CURVE SMOOTH",
"166 520 LINE",
"58 520 LINE",
"58 200 LINE SMOOTH",
"58 56 OFFCURVE",
"115 -10 OFFCURVE",
"240 -10 CURVE SMOOTH"
);
}
);
width = 590;
},
{
anchors = (
{
name = bottom;
position = "{306, 0}";
},
{
name = ogonek;
position = "{563, 0}";
},
{
name = top;
position = "{306, 520}";
},
{
name = top_ring;
position = "{306, 540}";
},
{
name = topright;
position = "{533, 480}";
}
);
layerId = "9E6B41AB-2970-4C41-8B35-4DBE0D296A43";
paths = (
{
closed = 1;
nodes = (
"280 -10 OFFCURVE",
"328 11 OFFCURVE",
"373 60 CURVE",
"375 60 LINE",
"377 0 LINE",
"563 0 LINE",
"563 520 LINE",
"367 520 LINE",
"367 220 LINE SMOOTH",
"367 180 OFFCURVE",
"336 150 OFFCURVE",
"293 150 CURVE SMOOTH",
"254 150 OFFCURVE",
"239 175 OFFCURVE",
"239 240 CURVE SMOOTH",
"239 520 LINE",
"43 520 LINE",
"43 200 LINE SMOOTH",
"43 54 OFFCURVE",
"95 -10 OFFCURVE",
"213 -10 CURVE SMOOTH"
);
}
);
width = 617;
},
{
anchors = (
{
name = bottom;
position = "{281, 0}";
},
{
name = ogonek;
position = "{486, 0}";
},
{
name = top;
position = "{281, 520}";
},
{
name = top_ring;
position = "{281, 540}";
},
{
name = topright;
position = "{482, 480}";
}
);
associatedMasterId = "D65C9A1E-0FCA-4B2D-8EDF-9F36CA9182A1";
layerId = "245D3822-9188-491B-8A3B-367571E408B0";
name = "Light {232}";
paths = (
{
closed = 1;
nodes = (
"329 -10 OFFCURVE",
"399 23 OFFCURVE",
"436 79 CURVE",
"438 79 LINE",
"438 0 LINE",
"487 0 LINE",
"487 520 LINE",
"438 520 LINE",
"438 204 LINE SMOOTH",
"438 104 OFFCURVE",
"362 33 OFFCURVE",
"254 33 CURVE SMOOTH",
"160 33 OFFCURVE",
"116 88 OFFCURVE",
"116 207 CURVE SMOOTH",
"116 520 LINE",
"67 520 LINE",
"67 200 LINE SMOOTH",
"67 57 OFFCURVE",
"123 -10 OFFCURVE",
"244 -10 CURVE SMOOTH"
);
}
);
width = 571;
}
);
leftKerningGroup = u;
leftMetricsKey = "=|n";
rightKerningGroup = u;
rightMetricsKey = "=|n";
unicode = 0075;
},
{
color = 10;
glyphname = v;
lastChange = "2021-02-27 02:44:18 +0000";
layers = (
{
layerId = "D65C9A1E-0FCA-4B2D-8EDF-9F36CA9182A1";
paths = (
{
closed = 1;
nodes = (
"264 0 LINE",
"484 520 LINE",
"462 520 LINE",
"250 17 LINE",
"248 17 LINE",
"36 520 LINE",
"14 520 LINE",
"234 0 LINE"
);
}
);
width = 498;
},
{
layerId = "9527F797-22C1-480E-A1FE-2CDBEBE1FD4C";
paths = (
{
closed = 1;
nodes = (
"345 0 LINE",
"529 520 LINE",
"411 520 LINE",
"270 78 LINE",
"268 78 LINE",
"127 520 LINE",
"9 520 LINE",
"193 0 LINE"
);
}
);
width = 538;
},
{
layerId = "9E6B41AB-2970-4C41-8B35-4DBE0D296A43";
paths = (
{
closed = 1;
nodes = (
"426 0 LINE",
"574 520 LINE",
"372 520 LINE",
"290 120 LINE",
"288 120 LINE",
"206 520 LINE",
"4 520 LINE",
"152 0 LINE"
);
}
);
width = 578;
}
);
leftKerningGroup = v;
leftMetricsKey = "=|k*.4";
rightKerningGroup = v;
rightMetricsKey = "=|";
unicode = 0076;
},
{
color = 10;
glyphname = w;
lastChange = "2021-02-27 02:44:18 +0000";
layers = (
{
anchors = (
{
name = bottom;
position = "{368, 0}";
},
{
name = top;
position = "{368, 520}";
}
);
layerId = "D65C9A1E-0FCA-4B2D-8EDF-9F36CA9182A1";
leftMetricsKey = "=v*2";
paths = (
{
closed = 1;
nodes = (
"218 0 LINE",
"367 499 LINE",
"369 499 LINE",
"518 0 LINE",
"548 0 LINE",
"708 520 LINE",
"687 520 LINE",
"534 21 LINE",
"532 21 LINE",
"383 520 LINE",
"353 520 LINE",
"204 21 LINE",
"202 21 LINE",
"49 520 LINE",
"28 520 LINE",
"188 0 LINE"
);
}
);
width = 736;
},
{
anchors = (
{
name = bottom;
position = "{392, 0}";
},
{
name = top;
position = "{392, 520}";
}
);
layerId = "9527F797-22C1-480E-A1FE-2CDBEBE1FD4C";
leftMetricsKey = "=v*2.4";
paths = (
{
closed = 1;
nodes = (
"302 0 LINE",
"391 405 LINE",
"393 405 LINE",
"482 0 LINE",
"622 0 LINE",
"762 520 LINE",
"644 520 LINE",
"556 105 LINE",
"554 105 LINE",
"465 520 LINE",
"319 520 LINE",
"230 105 LINE",
"228 105 LINE",
"140 520 LINE",
"22 520 LINE",
"162 0 LINE"
);
}
);
width = 784;
},
{
anchors = (
{
name = bottom;
position = "{411, 0}";
},
{
name = top;
position = "{411, 520}";
}
);
layerId = "9E6B41AB-2970-4C41-8B35-4DBE0D296A43";
leftMetricsKey = "=v*2.8";
paths = (
{
closed = 1;
nodes = (
"366 0 LINE",
"410 350 LINE",
"412 350 LINE",
"456 0 LINE",
"691 0 LINE",
"811 520 LINE",
"617 520 LINE",
"577 170 LINE",
"575 170 LINE",
"529 520 LINE",
"293 520 LINE",
"247 170 LINE",
"245 170 LINE",
"205 520 LINE",
"11 520 LINE",
"131 0 LINE"
);
}
);
width = 822;
}
);
leftKerningGroup = v;
leftMetricsKey = "=v*2.8";
rightKerningGroup = v;
rightMetricsKey = "=|";
unicode = 0077;
},
{
color = 10;
glyphname = x;
lastChange = "2021-02-27 02:44:18 +0000";
layers = (
{
layerId = "D65C9A1E-0FCA-4B2D-8EDF-9F36CA9182A1";
leftMetricsKey = "=|k";
paths = (
{
closed = 1;
nodes = (
"62 0 LINE",
"255 247 LINE",
"257 247 LINE",
"450 0 LINE",
"476 0 LINE",
"269 263 LINE",
"471 520 LINE",
"445 520 LINE",
"257 279 LINE",
"255 279 LINE",
"67 520 LINE",
"41 520 LINE",
"243 263 LINE",
"36 0 LINE"
);
}
);
width = 512;
},
{
layerId = "9527F797-22C1-480E-A1FE-2CDBEBE1FD4C";
leftMetricsKey = "=|k*1.4";
paths = (
{
closed = 1;
nodes = (
"155 0 LINE",
"275 204 LINE",
"277 204 LINE",
"397 0 LINE",
"521 0 LINE",
"350 262 LINE",
"519 520 LINE",
"395 520 LINE",
"277 320 LINE",
"275 320 LINE",
"157 520 LINE",
"33 520 LINE",
"202 262 LINE",
"31 0 LINE"
);
}
);
width = 552;
},
{
layerId = "9E6B41AB-2970-4C41-8B35-4DBE0D296A43";
leftMetricsKey = "=|k*1.8";
paths = (
{
closed = 1;
nodes = (
"222 0 LINE",
"289 160 LINE",
"291 160 LINE",
"358 0 LINE",
"560 0 LINE",
"425 260 LINE",
"560 520 LINE",
"358 520 LINE",
"291 360 LINE",
"289 360 LINE",
"222 520 LINE",
"20 520 LINE",
"155 260 LINE",
"20 0 LINE"
);
}
);
width = 580;
}
);
leftKerningGroup = x;
leftMetricsKey = "=|k*1.8";
rightKerningGroup = x;
rightMetricsKey = "=|";
unicode = 0078;
},
{
color = 10;
glyphname = y;
lastChange = "2021-02-27 02:44:18 +0000";
layers = (
{
anchors = (
{
name = bottom;
position = "{257, 0}";
},
{
name = dotR;
position = "{275, -210}";
},
{
name = top;
position = "{257, 520}";
}
);
layerId = "D65C9A1E-0FCA-4B2D-8EDF-9F36CA9182A1";
leftMetricsKey = "=v*1.6";
rightMetricsKey = "=v";
paths = (
{
closed = 1;
nodes = (
"159 -210 LINE",
"492 520 LINE",
"470 520 LINE",
"249 35 LINE",
"247 35 LINE",
"43 520 LINE",
"22 518 LINE",
"238 9 LINE",
"137 -210 LINE"
);
}
);
width = 506;
},
{
anchors = (
{
name = bottom;
position = "{273, 0}";
},
{
name = dotR;
position = "{349, -210}";
},
{
name = top;
position = "{273, 520}";
}
);
layerId = "9527F797-22C1-480E-A1FE-2CDBEBE1FD4C";
leftMetricsKey = "=v*.9";
paths = (
{
closed = 1;
nodes = (
"240 -210 LINE",
"538 520 LINE",
"422 520 LINE",
"271 118 LINE",
"269 118 LINE",
"124 520 LINE",
"8 519 LINE",
"216 5 LINE",
"126 -210 LINE"
);
}
);
width = 543;
},
{
anchors = (
{
name = bottom;
position = "{296, 0}";
},
{
name = dotR;
position = "{430, -210}";
},
{
name = top;
position = "{296, 520}";
}
);
layerId = "9E6B41AB-2970-4C41-8B35-4DBE0D296A43";
leftMetricsKey = "=v*.2";
rightMetricsKey = "=v*.2";
paths = (
{
closed = 1;
nodes = (
"329 -210 LINE",
"591 520 LINE",
"381 520 LINE",
"301 170 LINE",
"299 170 LINE",
"211 520 LINE",
"1 520 LINE",
"202 0 LINE",
"124 -210 LINE"
);
}
);
width = 592;
}
);
leftKerningGroup = v;
leftMetricsKey = "=v*.2";
rightKerningGroup = v;
rightMetricsKey = "=v*.6";
unicode = 0079;
},
{
color = 10;
glyphname = z;
lastChange = "2021-02-27 02:38:05 +0000";
layers = (
{
anchors = (
{
name = bottom;
position = "{249, 0}";
},
{
name = center;
position = "{249, 260}";
},
{
name = top;
position = "{249, 520}";
}
);
layerId = "D65C9A1E-0FCA-4B2D-8EDF-9F36CA9182A1";
leftMetricsKey = "=h*.6";
paths = (
{
closed = 1;
nodes = (
"444 0 LINE",
"444 20 LINE",
"81 20 LINE",
"81 22 LINE",
"444 500 LINE",
"444 520 LINE",
"54 520 LINE",
"54 500 LINE",
"417 500 LINE",
"417 498 LINE",
"54 20 LINE",
"54 0 LINE"
);
}
);
width = 498;
},
{
anchors = (
{
name = bottom;
position = "{269, 0}";
},
{
name = center;
position = "{269, 260}";
},
{
name = top;
position = "{269, 520}";
}
);
layerId = "9527F797-22C1-480E-A1FE-2CDBEBE1FD4C";
leftMetricsKey = "=h*.75";
paths = (
{
closed = 1;
nodes = (
"484 0 LINE",
"484 90 LINE",
"195 90 LINE",
"195 92 LINE",
"484 430 LINE",
"484 520 LINE",
"54 520 LINE",
"54 430 LINE",
"343 430 LINE",
"343 428 LINE",
"54 90 LINE",
"54 0 LINE"
);
}
);
width = 538;
},
{
anchors = (
{
name = bottom;
position = "{284, 0}";
},
{
name = center;
position = "{284, 260}";
},
{
name = top;
position = "{284, 520}";
}
);
layerId = "9E6B41AB-2970-4C41-8B35-4DBE0D296A43";
leftMetricsKey = "=h*.9";
paths = (
{
closed = 1;
nodes = (
"519 0 LINE",
"519 140 LINE",
"296 140 LINE",
"296 142 LINE",
"519 380 LINE",
"519 520 LINE",
"49 520 LINE",
"49 380 LINE",
"272 380 LINE",
"272 378 LINE",
"49 140 LINE",
"49 0 LINE"
);
}
);
width = 568;
}
);
leftKerningGroup = z;
leftMetricsKey = "=h*.9";
rightKerningGroup = z;
rightMetricsKey = "=|";
unicode = 007A;
},
{
color = 11;
glyphname = f_f;
lastChange = "2021-02-27 02:44:18 +0000";
layers = (
{
background = {
components = (
{
name = f;
transform = "{1, 0, 0, 1, -4, 0}";
},
{
name = f;
transform = "{1, 0, 0, 1, 316, 0}";
}
);
};
layerId = "D65C9A1E-0FCA-4B2D-8EDF-9F36CA9182A1";
paths = (
{
closed = 1;
nodes = (
"211 0 LINE",
"211 500 LINE",
"511 500 LINE",
"511 0 LINE",
"531 0 LINE",
"531 500 LINE",
"735 500 LINE",
"735 520 LINE",
"531 520 LINE",
"531 620 LINE SMOOTH",
"531 711 OFFCURVE",
"568 750 OFFCURVE",
"655 750 CURVE SMOOTH",
"682 750 OFFCURVE",
"703 746 OFFCURVE",
"730 736 CURVE",
"737 755 LINE",
"707 766 OFFCURVE",
"683 770 OFFCURVE",
"655 770 CURVE SMOOTH",
"557 770 OFFCURVE",
"511 722 OFFCURVE",
"511 620 CURVE SMOOTH",
"511 520 LINE",
"211 520 LINE",
"211 620 LINE SMOOTH",
"211 711 OFFCURVE",
"248 750 OFFCURVE",
"335 750 CURVE SMOOTH",
"362 750 OFFCURVE",
"383 746 OFFCURVE",
"410 736 CURVE",
"417 755 LINE",
"387 766 OFFCURVE",
"363 770 OFFCURVE",
"335 770 CURVE SMOOTH",
"237 770 OFFCURVE",
"191 722 OFFCURVE",
"191 620 CURVE SMOOTH",
"191 520 LINE",
"27 520 LINE",
"27 500 LINE",
"191 500 LINE",
"191 0 LINE"
);
}
);
width = 764;
},
{
background = {
components = (
{
name = f;
transform = "{1, 0, 0, 1, -4, 0}";
},
{
name = f;
transform = "{1, 0, 0, 1, 356, 0}";
}
);
};
layerId = "9527F797-22C1-480E-A1FE-2CDBEBE1FD4C";
paths = (
{
closed = 1;
nodes = (
"269 0 LINE",
"269 430 LINE",
"520 430 LINE",
"520 0 LINE",
"629 0 LINE",
"629 430 LINE",
"799 430 LINE",
"799 520 LINE",
"629 520 LINE",
"629 577 LINE SMOOTH",
"629 650 OFFCURVE",
"653 677 OFFCURVE",
"718 677 CURVE SMOOTH",
"742 677 OFFCURVE",
"765 673 OFFCURVE",
"789 665 CURVE",
"802 755 LINE",
"774 764 OFFCURVE",
"738 770 OFFCURVE",
"701 770 CURVE SMOOTH",
"581 770 OFFCURVE",
"520 708 OFFCURVE",
"520 585 CURVE SMOOTH",
"520 520 LINE",
"269 520 LINE",
"269 577 LINE SMOOTH",
"269 650 OFFCURVE",
"293 677 OFFCURVE",
"358 677 CURVE SMOOTH",
"382 677 OFFCURVE",
"405 673 OFFCURVE",
"429 665 CURVE",
"442 755 LINE",
"414 764 OFFCURVE",
"378 770 OFFCURVE",
"341 770 CURVE SMOOTH",
"221 770 OFFCURVE",
"160 708 OFFCURVE",
"160 585 CURVE SMOOTH",
"160 520 LINE",
"22 520 LINE",
"22 430 LINE",
"160 430 LINE",
"160 0 LINE"
);
}
);
width = 824;
},
{
background = {
components = (
{
name = f;
transform = "{1, 0, 0, 1, -2, 0}";
},
{
name = f;
transform = "{1, 0, 0, 1, 396, 0}";
}
);
};
layerId = "9E6B41AB-2970-4C41-8B35-4DBE0D296A43";
paths = (
{
closed = 1;
nodes = (
"327 0 LINE",
"327 380 LINE",
"527 380 LINE",
"527 0 LINE",
"725 0 LINE",
"725 380 LINE",
"861 380 LINE",
"861 520 LINE",
"725 520 LINE",
"725 550 LINE SMOOTH",
"725 605 OFFCURVE",
"738 620 OFFCURVE",
"780 620 CURVE SMOOTH",
"799 620 OFFCURVE",
"821 617 OFFCURVE",
"846 610 CURVE",
"866 755 LINE",
"827 765 OFFCURVE",
"781 770 OFFCURVE",
"745 770 CURVE SMOOTH",
"603 770 OFFCURVE",
"527 693 OFFCURVE",
"527 550 CURVE SMOOTH",
"527 520 LINE",
"327 520 LINE",
"327 550 LINE SMOOTH",
"327 605 OFFCURVE",
"340 620 OFFCURVE",
"382 620 CURVE SMOOTH",
"401 620 OFFCURVE",
"423 617 OFFCURVE",
"448 610 CURVE",
"468 755 LINE",
"429 765 OFFCURVE",
"383 770 OFFCURVE",
"347 770 CURVE SMOOTH",
"205 770 OFFCURVE",
"129 693 OFFCURVE",
"129 550 CURVE SMOOTH",
"129 520 LINE",
"16 520 LINE",
"16 380 LINE",
"129 380 LINE",
"129 0 LINE"
);
}
);
width = 882;
}
);
leftKerningGroup = f;
leftMetricsKey = f;
rightKerningGroup = f;
rightMetricsKey = f;
},
{
glyphname = m_p_l_u_s_f_o_n_t_s;
lastChange = "2021-02-27 05:03:58 +0000";
layers = (
{
layerId = "D65C9A1E-0FCA-4B2D-8EDF-9F36CA9182A1";
paths = (
{
closed = 1;
nodes = (
"1810 0 LINE",
"1810 270 LINE",
"2130 270 LINE",
"2130 430 LINE",
"1810 430 LINE",
"1810 565 LINE",
"2150 565 LINE",
"2150 730 LINE",
"1610 730 LINE",
"1610 0 LINE"
);
},
{
closed = 1;
nodes = (
"2844 -10 OFFCURVE",
"2985 129 OFFCURVE",
"2985 365 CURVE SMOOTH",
"2985 601 OFFCURVE",
"2844 740 OFFCURVE",
"2605 740 CURVE SMOOTH",
"2366 740 OFFCURVE",
"2225 601 OFFCURVE",
"2225 365 CURVE SMOOTH",
"2225 129 OFFCURVE",
"2366 -10 OFFCURVE",
"2605 -10 CURVE SMOOTH"
);
},
{
closed = 1;
nodes = (
"2489 160 OFFCURVE",
"2430 229 OFFCURVE",
"2430 365 CURVE SMOOTH",
"2430 501 OFFCURVE",
"2489 570 OFFCURVE",
"2605 570 CURVE SMOOTH",
"2721 570 OFFCURVE",
"2780 501 OFFCURVE",
"2780 365 CURVE SMOOTH",
"2780 229 OFFCURVE",
"2721 160 OFFCURVE",
"2605 160 CURVE SMOOTH"
);
},
{
closed = 1;
nodes = (
"3275 0 LINE",
"3275 390 LINE",
"3277 390 LINE",
"3495 0 LINE",
"3695 0 LINE",
"3695 730 LINE",
"3495 730 LINE",
"3495 340 LINE",
"3493 340 LINE",
"3275 730 LINE",
"3075 730 LINE",
"3075 0 LINE"
);
},
{
closed = 1;
nodes = (
"4192 0 LINE",
"4192 560 LINE",
"4399 560 LINE",
"4399 730 LINE",
"3779 730 LINE",
"3779 560 LINE",
"3986 560 LINE",
"3986 0 LINE"
);
},
{
closed = 1;
nodes = (
"4946 -10 OFFCURVE",
"5059 69 OFFCURVE",
"5059 210 CURVE SMOOTH",
"5059 320 OFFCURVE",
"4991 384 OFFCURVE",
"4821 434 CURVE SMOOTH",
"4698 470 OFFCURVE",
"4669 488 OFFCURVE",
"4669 526 CURVE SMOOTH",
"4669 560 OFFCURVE",
"4699 575 OFFCURVE",
"4764 575 CURVE SMOOTH",
"4837 575 OFFCURVE",
"4920 555 OFFCURVE",
"4988 522 CURVE",
"5030 692 LINE",
"4961 722 OFFCURVE",
"4862 740 OFFCURVE",
"4767 740 CURVE SMOOTH",
"4569 740 OFFCURVE",
"4459 663 OFFCURVE",
"4459 525 CURVE SMOOTH",
"4459 410 OFFCURVE",
"4529 342 OFFCURVE",
"4693 297 CURVE SMOOTH",
"4822 261 OFFCURVE",
"4849 246 OFFCURVE",
"4849 210 CURVE SMOOTH",
"4849 175 OFFCURVE",
"4816 155 OFFCURVE",
"4759 155 CURVE SMOOTH",
"4687 155 OFFCURVE",
"4574 186 OFFCURVE",
"4507 224 CURVE",
"4465 54 LINE",
"4530 14 OFFCURVE",
"4633 -10 OFFCURVE",
"4746 -10 CURVE SMOOTH"
);
},
{
closed = 1;
nodes = (
"300 0 LINE",
"300 420 LINE",
"302 420 LINE",
"390 155 LINE",
"570 155 LINE",
"658 420 LINE",
"660 420 LINE",
"660 0 LINE",
"860 0 LINE",
"860 560 LINE",
"1065 560 LINE",
"1065 355 LINE",
"1235 355 LINE",
"1235 560 LINE",
"1440 560 LINE",
"1440 730 LINE",
"1235 730 LINE",
"1235 935 LINE",
"1065 935 LINE",
"1065 730 LINE",
"612 730 LINE",
"481 340 LINE",
"479 340 LINE",
"348 730 LINE",
"100 730 LINE",
"100 0 LINE"
);
}
);
width = 5129;
},
{
background = {
components = (
{
name = M;
},
{
name = plus;
transform = "{1, 0, 0, 1, 772, 355}";
},
{
name = F;
transform = "{1, 0, 0, 1, 1510, 0}";
},
{
name = O;
transform = "{1, 0, 0, 1, 2155, 0}";
},
{
name = N;
transform = "{1, 0, 0, 1, 2975, 0}";
},
{
name = T;
transform = "{1, 0, 0, 1, 3715, 0}";
},
{
name = S;
transform = "{1, 0, 0, 1, 4383, 0}";
}
);
};
layerId = "9E6B41AB-2970-4C41-8B35-4DBE0D296A43";
paths = (
{
closed = 1;
nodes = (
"1770 0 LINE",
"1770 270 LINE",
"2090 270 LINE",
"2090 430 LINE",
"1770 430 LINE",
"1770 565 LINE",
"2110 565 LINE",
"2110 730 LINE",
"1570 730 LINE",
"1570 0 LINE"
);
},
{
closed = 1;
nodes = (
"2804 -10 OFFCURVE",
"2945 129 OFFCURVE",
"2945 365 CURVE SMOOTH",
"2945 601 OFFCURVE",
"2804 740 OFFCURVE",
"2565 740 CURVE SMOOTH",
"2326 740 OFFCURVE",
"2185 601 OFFCURVE",
"2185 365 CURVE SMOOTH",
"2185 129 OFFCURVE",
"2326 -10 OFFCURVE",
"2565 -10 CURVE SMOOTH"
);
},
{
closed = 1;
nodes = (
"2449 160 OFFCURVE",
"2390 229 OFFCURVE",
"2390 365 CURVE SMOOTH",
"2390 501 OFFCURVE",
"2449 570 OFFCURVE",
"2565 570 CURVE SMOOTH",
"2681 570 OFFCURVE",
"2740 501 OFFCURVE",
"2740 365 CURVE SMOOTH",
"2740 229 OFFCURVE",
"2681 160 OFFCURVE",
"2565 160 CURVE SMOOTH"
);
},
{
closed = 1;
nodes = (
"3235 0 LINE",
"3235 390 LINE",
"3237 390 LINE",
"3455 0 LINE",
"3655 0 LINE",
"3655 730 LINE",
"3455 730 LINE",
"3455 340 LINE",
"3453 340 LINE",
"3235 730 LINE",
"3035 730 LINE",
"3035 0 LINE"
);
},
{
closed = 1;
nodes = (
"4152 0 LINE",
"4152 560 LINE",
"4359 560 LINE",
"4359 730 LINE",
"3739 730 LINE",
"3739 560 LINE",
"3946 560 LINE",
"3946 0 LINE"
);
},
{
closed = 1;
nodes = (
"4906 -10 OFFCURVE",
"5019 69 OFFCURVE",
"5019 210 CURVE SMOOTH",
"5019 320 OFFCURVE",
"4951 384 OFFCURVE",
"4781 434 CURVE SMOOTH",
"4658 470 OFFCURVE",
"4629 488 OFFCURVE",
"4629 526 CURVE SMOOTH",
"4629 560 OFFCURVE",
"4659 575 OFFCURVE",
"4724 575 CURVE SMOOTH",
"4797 575 OFFCURVE",
"4880 555 OFFCURVE",
"4948 522 CURVE",
"4990 692 LINE",
"4921 722 OFFCURVE",
"4822 740 OFFCURVE",
"4727 740 CURVE SMOOTH",
"4529 740 OFFCURVE",
"4419 663 OFFCURVE",
"4419 525 CURVE SMOOTH",
"4419 410 OFFCURVE",
"4489 342 OFFCURVE",
"4653 297 CURVE SMOOTH",
"4782 261 OFFCURVE",
"4809 246 OFFCURVE",
"4809 210 CURVE SMOOTH",
"4809 175 OFFCURVE",
"4776 155 OFFCURVE",
"4719 155 CURVE SMOOTH",
"4647 155 OFFCURVE",
"4534 186 OFFCURVE",
"4467 224 CURVE",
"4425 54 LINE",
"4490 14 OFFCURVE",
"4593 -10 OFFCURVE",
"4706 -10 CURVE SMOOTH"
);
},
{
closed = 1;
nodes = (
"260 0 LINE",
"260 420 LINE",
"262 420 LINE",
"350 155 LINE",
"530 155 LINE",
"618 420 LINE",
"620 420 LINE",
"620 0 LINE",
"820 0 LINE",
"820 560 LINE",
"1025 560 LINE",
"1025 355 LINE",
"1195 355 LINE",
"1195 560 LINE",
"1400 560 LINE",
"1400 730 LINE",
"1195 730 LINE",
"1195 935 LINE",
"1025 935 LINE",
"1025 730 LINE",
"572 730 LINE",
"441 340 LINE",
"439 340 LINE",
"308 730 LINE",
"60 730 LINE",
"60 0 LINE"
);
}
);
width = 5055;
},
{
layerId = "9527F797-22C1-480E-A1FE-2CDBEBE1FD4C";
paths = (
{
closed = 1;
nodes = (
"1790 0 LINE",
"1790 270 LINE",
"2110 270 LINE",
"2110 430 LINE",
"1790 430 LINE",
"1790 565 LINE",
"2130 565 LINE",
"2130 730 LINE",
"1590 730 LINE",
"1590 0 LINE"
);
},
{
closed = 1;
nodes = (
"2824 -10 OFFCURVE",
"2965 129 OFFCURVE",
"2965 365 CURVE SMOOTH",
"2965 601 OFFCURVE",
"2824 740 OFFCURVE",
"2585 740 CURVE SMOOTH",
"2346 740 OFFCURVE",
"2205 601 OFFCURVE",
"2205 365 CURVE SMOOTH",
"2205 129 OFFCURVE",
"2346 -10 OFFCURVE",
"2585 -10 CURVE SMOOTH"
);
},
{
closed = 1;
nodes = (
"2469 160 OFFCURVE",
"2410 229 OFFCURVE",
"2410 365 CURVE SMOOTH",
"2410 501 OFFCURVE",
"2469 570 OFFCURVE",
"2585 570 CURVE SMOOTH",
"2701 570 OFFCURVE",
"2760 501 OFFCURVE",
"2760 365 CURVE SMOOTH",
"2760 229 OFFCURVE",
"2701 160 OFFCURVE",
"2585 160 CURVE SMOOTH"
);
},
{
closed = 1;
nodes = (
"3255 0 LINE",
"3255 390 LINE",
"3257 390 LINE",
"3475 0 LINE",
"3675 0 LINE",
"3675 730 LINE",
"3475 730 LINE",
"3475 340 LINE",
"3473 340 LINE",
"3255 730 LINE",
"3055 730 LINE",
"3055 0 LINE"
);
},
{
closed = 1;
nodes = (
"4172 0 LINE",
"4172 560 LINE",
"4379 560 LINE",
"4379 730 LINE",
"3759 730 LINE",
"3759 560 LINE",
"3966 560 LINE",
"3966 0 LINE"
);
},
{
closed = 1;
nodes = (
"4926 -10 OFFCURVE",
"5039 69 OFFCURVE",
"5039 210 CURVE SMOOTH",
"5039 320 OFFCURVE",
"4971 384 OFFCURVE",
"4801 434 CURVE SMOOTH",
"4678 470 OFFCURVE",
"4649 488 OFFCURVE",
"4649 526 CURVE SMOOTH",
"4649 560 OFFCURVE",
"4679 575 OFFCURVE",
"4744 575 CURVE SMOOTH",
"4817 575 OFFCURVE",
"4900 555 OFFCURVE",
"4968 522 CURVE",
"5010 692 LINE",
"4941 722 OFFCURVE",
"4842 740 OFFCURVE",
"4747 740 CURVE SMOOTH",
"4549 740 OFFCURVE",
"4439 663 OFFCURVE",
"4439 525 CURVE SMOOTH",
"4439 410 OFFCURVE",
"4509 342 OFFCURVE",
"4673 297 CURVE SMOOTH",
"4802 261 OFFCURVE",
"4829 246 OFFCURVE",
"4829 210 CURVE SMOOTH",
"4829 175 OFFCURVE",
"4796 155 OFFCURVE",
"4739 155 CURVE SMOOTH",
"4667 155 OFFCURVE",
"4554 186 OFFCURVE",
"4487 224 CURVE",
"4445 54 LINE",
"4510 14 OFFCURVE",
"4613 -10 OFFCURVE",
"4726 -10 CURVE SMOOTH"
);
},
{
closed = 1;
nodes = (
"280 0 LINE",
"280 420 LINE",
"282 420 LINE",
"370 155 LINE",
"550 155 LINE",
"638 420 LINE",
"640 420 LINE",
"640 0 LINE",
"840 0 LINE",
"840 560 LINE",
"1045 560 LINE",
"1045 355 LINE",
"1215 355 LINE",
"1215 560 LINE",
"1420 560 LINE",
"1420 730 LINE",
"1215 730 LINE",
"1215 935 LINE",
"1045 935 LINE",
"1045 730 LINE",
"592 730 LINE",
"461 340 LINE",
"459 340 LINE",
"328 730 LINE",
"80 730 LINE",
"80 0 LINE"
);
}
);
width = 5091;
}
);
leftKerningGroup = H;
leftMetricsKey = "=M";
rightKerningGroup = S;
rightMetricsKey = "=S";
},
{
color = 11;
glyphname = ordfeminine;
lastChange = "2021-02-27 02:38:05 +0000";
layers = (
{
background = {
components = (
{
name = a;
transform = "{0.8, 0, 0, 0.8, -2, 314}";
}
);
};
layerId = "D65C9A1E-0FCA-4B2D-8EDF-9F36CA9182A1";
paths = (
{
closed = 1;
nodes = (
"242 306 OFFCURVE",
"305 338 OFFCURVE",
"338 389 CURVE",
"340 389 LINE",
"340 314 LINE",
"360 314 LINE",
"360 574 LINE SMOOTH",
"360 695 OFFCURVE",
"322 738 OFFCURVE",
"213 738 CURVE SMOOTH",
"152 738 OFFCURVE",
"95 724 OFFCURVE",
"42 698 CURVE",
"51 679 LINE",
"101 705 OFFCURVE",
"155 718 OFFCURVE",
"213 718 CURVE SMOOTH",
"310 718 OFFCURVE",
"340 684 OFFCURVE",
"340 574 CURVE",
"267 574 LINE SMOOTH",
"114 574 OFFCURVE",
"32 523 OFFCURVE",
"32 430 CURVE SMOOTH",
"32 354 OFFCURVE",
"86 306 OFFCURVE",
"172 306 CURVE SMOOTH"
);
},
{
closed = 1;
nodes = (
"97 326 OFFCURVE",
"52 365 OFFCURVE",
"52 430 CURVE SMOOTH",
"52 511 OFFCURVE",
"126 554 OFFCURVE",
"267 554 CURVE SMOOTH",
"340 554 LINE",
"340 466 LINE SMOOTH",
"340 388 OFFCURVE",
"266 326 OFFCURVE",
"172 326 CURVE SMOOTH"
);
}
);
width = 425;
},
{
background = {
components = (
{
name = a;
transform = "{0.8, 0, 0, 0.8, -1, 314}";
}
);
};
layerId = "9527F797-22C1-480E-A1FE-2CDBEBE1FD4C";
paths = (
{
closed = 1;
nodes = (
"212 306 OFFCURVE",
"267 324 OFFCURVE",
"299 352 CURVE",
"301 352 LINE",
"302 314 LINE",
"394 314 LINE",
"394 576 LINE SMOOTH",
"394 696 OFFCURVE",
"351 738 OFFCURVE",
"229 738 CURVE SMOOTH",
"161 738 OFFCURVE",
"91 725 OFFCURVE",
"37 703 CURVE",
"52 623 LINE",
"103 644 OFFCURVE",
"162 656 OFFCURVE",
"218 656 CURVE SMOOTH",
"282 656 OFFCURVE",
"297 642 OFFCURVE",
"297 584 CURVE",
"247 584 LINE SMOOTH",
"106 584 OFFCURVE",
"26 529 OFFCURVE",
"26 432 CURVE SMOOTH",
"26 355 OFFCURVE",
"77 306 OFFCURVE",
"160 306 CURVE SMOOTH"
);
},
{
closed = 1;
nodes = (
"146 386 OFFCURVE",
"122 405 OFFCURVE",
"122 440 CURVE SMOOTH",
"122 485 OFFCURVE",
"167 509 OFFCURVE",
"259 509 CURVE SMOOTH",
"297 509 LINE",
"297 464 LINE SMOOTH",
"297 421 OFFCURVE",
"249 386 OFFCURVE",
"191 386 CURVE SMOOTH"
);
}
);
width = 446;
},
{
background = {
components = (
{
name = a;
transform = "{0.8, 0, 0, 0.8, -2, 314}";
}
);
};
layerId = "9E6B41AB-2970-4C41-8B35-4DBE0D296A43";
paths = (
{
closed = 1;
nodes = (
"192 306 OFFCURVE",
"235 322 OFFCURVE",
"266 352 CURVE",
"268 352 LINE",
"269 314 LINE",
"428 314 LINE",
"428 578 LINE SMOOTH",
"428 695 OFFCURVE",
"378 738 OFFCURVE",
"245 738 CURVE SMOOTH",
"170 738 OFFCURVE",
"91 727 OFFCURVE",
"32 707 CURVE",
"51 586 LINE",
"104 604 OFFCURVE",
"171 616 OFFCURVE",
"223 616 CURVE SMOOTH",
"257 616 OFFCURVE",
"261 612 OFFCURVE",
"261 578 CURVE",
"228 578 LINE SMOOTH",
"95 578 OFFCURVE",
"20 526 OFFCURVE",
"20 434 CURVE SMOOTH",
"20 356 OFFCURVE",
"70 306 OFFCURVE",
"148 306 CURVE SMOOTH"
);
},
{
closed = 1;
nodes = (
"183 424 OFFCURVE",
"171 433 OFFCURVE",
"171 450 CURVE SMOOTH",
"171 473 OFFCURVE",
"195 484 OFFCURVE",
"252 484 CURVE SMOOTH",
"261 484 LINE",
"261 462 LINE SMOOTH",
"261 439 OFFCURVE",
"242 424 OFFCURVE",
"209 424 CURVE SMOOTH"
);
}
);
width = 467;
},
{
associatedMasterId = "D65C9A1E-0FCA-4B2D-8EDF-9F36CA9182A1";
background = {
paths = (
{
closed = 1;
nodes = (
"240 306 OFFCURVE",
"306 337 OFFCURVE",
"340 386 CURVE",
"332 386 LINE",
"332 314 LINE",
"378 314 LINE",
"378 573 LINE SMOOTH",
"378 695 OFFCURVE",
"337 738 OFFCURVE",
"223 738 CURVE SMOOTH",
"158 738 OFFCURVE",
"96 725 OFFCURVE",
"42 700 CURVE",
"54 662 LINE",
"105 685 OFFCURVE",
"162 698 OFFCURVE",
"220 698 CURVE SMOOTH",
"305 698 OFFCURVE",
"330 671 OFFCURVE",
"330 578 CURVE",
"265 578 LINE SMOOTH",
"114 578 OFFCURVE",
"30 526 OFFCURVE",
"30 431 CURVE SMOOTH",
"30 354 OFFCURVE",
"85 306 OFFCURVE",
"171 306 CURVE SMOOTH"
);
},
{
closed = 1;
nodes = (
"115 345 OFFCURVE",
"75 379 OFFCURVE",
"75 433 CURVE SMOOTH",
"75 503 OFFCURVE",
"141 539 OFFCURVE",
"269 539 CURVE SMOOTH",
"330 539 LINE",
"330 480 LINE SMOOTH",
"330 402 OFFCURVE",
"267 345 OFFCURVE",
"181 345 CURVE SMOOTH"
);
}
);
};
layerId = "02CE7075-E2BA-495E-B00B-7DF72736FD8B";
name = "Light {232}";
paths = (
{
closed = 1;
nodes = (
"232 306 OFFCURVE",
"294 332 OFFCURVE",
"326 371 CURVE",
"328 371 LINE",
"328 314 LINE",
"372 314 LINE",
"372 575 LINE SMOOTH",
"372 695 OFFCURVE",
"332 738 OFFCURVE",
"219 738 CURVE SMOOTH",
"156 738 OFFCURVE",
"94 724 OFFCURVE",
"41 700 CURVE",
"52 661 LINE",
"102 685 OFFCURVE",
"158 698 OFFCURVE",
"215 698 CURVE SMOOTH",
"301 698 OFFCURVE",
"326 670 OFFCURVE",
"326 577 CURVE",
"261 577 LINE SMOOTH",
"112 577 OFFCURVE",
"31 525 OFFCURVE",
"31 431 CURVE SMOOTH",
"31 354 OFFCURVE",
"84 306 OFFCURVE",
"169 306 CURVE SMOOTH"
);
},
{
closed = 1;
nodes = (
"114 346 OFFCURVE",
"76 378 OFFCURVE",
"76 433 CURVE SMOOTH",
"76 502 OFFCURVE",
"140 539 OFFCURVE",
"265 539 CURVE SMOOTH",
"326 539 LINE",
"326 465 LINE SMOOTH",
"326 399 OFFCURVE",
"261 346 OFFCURVE",
"179 346 CURVE SMOOTH"
);
}
);
width = 432;
}
);
leftKerningGroup = asterisk;
leftMetricsKey = "=a*.9";
rightKerningGroup = asterisk;
rightMetricsKey = "=a*.9";
unicode = 00AA;
},
{
color = 11;
glyphname = ordmasculine;
lastChange = "2021-02-27 02:38:05 +0000";
layers = (
{
background = {
components = (
{
name = o;
transform = "{0.8, 0, 0, 0.8, -1, 314}";
}
);
};
layerId = "D65C9A1E-0FCA-4B2D-8EDF-9F36CA9182A1";
paths = (
{
closed = 1;
nodes = (
"353 306 OFFCURVE",
"425 388 OFFCURVE",
"425 522 CURVE SMOOTH",
"425 656 OFFCURVE",
"353 738 OFFCURVE",
"233 738 CURVE SMOOTH",
"115 738 OFFCURVE",
"41 656 OFFCURVE",
"41 522 CURVE SMOOTH",
"41 388 OFFCURVE",
"115 306 OFFCURVE",
"233 306 CURVE SMOOTH"
);
},
{
closed = 1;
nodes = (
"126 326 OFFCURVE",
"62 398 OFFCURVE",
"62 522 CURVE SMOOTH",
"62 646 OFFCURVE",
"126 718 OFFCURVE",
"234 718 CURVE SMOOTH",
"341 718 OFFCURVE",
"406 646 OFFCURVE",
"406 522 CURVE SMOOTH",
"406 398 OFFCURVE",
"341 326 OFFCURVE",
"234 326 CURVE SMOOTH"
);
}
);
width = 466;
},
{
background = {
components = (
{
name = o;
transform = "{0.8, 0, 0, 0.8, -2, 314}";
}
);
};
layerId = "9527F797-22C1-480E-A1FE-2CDBEBE1FD4C";
paths = (
{
closed = 1;
nodes = (
"372 306 OFFCURVE",
"448 384 OFFCURVE",
"448 522 CURVE SMOOTH",
"448 660 OFFCURVE",
"372 738 OFFCURVE",
"240 738 CURVE SMOOTH",
"108 738 OFFCURVE",
"32 660 OFFCURVE",
"32 522 CURVE SMOOTH",
"32 384 OFFCURVE",
"108 306 OFFCURVE",
"240 306 CURVE SMOOTH"
);
},
{
closed = 1;
nodes = (
"166 388 OFFCURVE",
"128 434 OFFCURVE",
"128 522 CURVE SMOOTH",
"128 610 OFFCURVE",
"166 656 OFFCURVE",
"240 656 CURVE SMOOTH",
"314 656 OFFCURVE",
"352 610 OFFCURVE",
"352 522 CURVE SMOOTH",
"352 434 OFFCURVE",
"314 388 OFFCURVE",
"240 388 CURVE SMOOTH"
);
}
);
width = 480;
},
{
background = {
components = (
{
name = o;
transform = "{0.8, 0, 0, 0.8, -3, 314}";
}
);
};
layerId = "9E6B41AB-2970-4C41-8B35-4DBE0D296A43";
paths = (
{
closed = 1;
nodes = (
"394 306 OFFCURVE",
"472 381 OFFCURVE",
"472 522 CURVE SMOOTH",
"472 663 OFFCURVE",
"394 738 OFFCURVE",
"248 738 CURVE SMOOTH",
"102 738 OFFCURVE",
"24 663 OFFCURVE",
"24 522 CURVE SMOOTH",
"24 381 OFFCURVE",
"102 306 OFFCURVE",
"248 306 CURVE SMOOTH"
);
},
{
closed = 1;
nodes = (
"207 428 OFFCURVE",
"190 454 OFFCURVE",
"190 522 CURVE SMOOTH",
"190 590 OFFCURVE",
"207 616 OFFCURVE",
"248 616 CURVE SMOOTH",
"289 616 OFFCURVE",
"306 590 OFFCURVE",
"306 522 CURVE SMOOTH",
"306 454 OFFCURVE",
"289 428 OFFCURVE",
"248 428 CURVE SMOOTH"
);
}
);
width = 496;
}
);
leftKerningGroup = asterisk;
leftMetricsKey = "=o*.9";
rightKerningGroup = asterisk;
rightMetricsKey = "=|";
unicode = 00BA;
},
{
color = 10;
glyphname = "a-hira";
lastChange = "2021-02-10 06:34:19 +0000";
layers = (
{
background = {
paths = (
{
closed = 0;
nodes = (
"385 805 LINE",
"385 101 LINE"
);
},
{
closed = 0;
nodes = (
"890 655 LINE",
"110 655 LINE"
);
},
{
closed = 0;
nodes = (
"728 466 LINE",
"585 249 OFFCURVE",
"318 15 OFFCURVE",
"213 16 CURVE SMOOTH",
"159 17 OFFCURVE",
"120 79 OFFCURVE",
"120 167 CURVE SMOOTH",
"120 355 OFFCURVE",
"297 505 OFFCURVE",
"520 505 CURVE SMOOTH",
"738 505 OFFCURVE",
"880 403 OFFCURVE",
"880 247 CURVE SMOOTH",
"880 108 OFFCURVE",
"763 -5 OFFCURVE",
"600 -24 CURVE"
);
}
);
};
layerId = "D65C9A1E-0FCA-4B2D-8EDF-9F36CA9182A1";
paths = (
{
closed = 1;
nodes = (
"395 101 LINE",
"395 488 LINE",
"395 488 LINE",
"395 805 LINE",
"375 805 LINE",
"375 488 LINE",
"375 488 LINE",
"375 101 LINE"
);
},
{
closed = 1;
nodes = (
"890 645 LINE",
"890 665 LINE",
"110 665 LINE",
"110 645 LINE"
);
},
{
closed = 1;
nodes = (
"769 -14 OFFCURVE",
"890 103 OFFCURVE",
"890 247 CURVE SMOOTH",
"890 409 OFFCURVE",
"743 515 OFFCURVE",
"520 515 CURVE SMOOTH",
"292 515 OFFCURVE",
"110 361 OFFCURVE",
"110 167 CURVE SMOOTH",
"110 74 OFFCURVE",
"152 7 OFFCURVE",
"213 6 CURVE SMOOTH",
"321 5 OFFCURVE",
"590 239 OFFCURVE",
"736 460 CURVE",
"720 472 LINE",
"579 257 OFFCURVE",
"314 25 OFFCURVE",
"213 26 CURVE SMOOTH",
"165 27 OFFCURVE",
"130 85 OFFCURVE",
"130 167 CURVE SMOOTH",
"130 350 OFFCURVE",
"303 495 OFFCURVE",
"520 495 CURVE SMOOTH",
"733 495 OFFCURVE",
"870 397 OFFCURVE",
"870 247 CURVE SMOOTH",
"870 113 OFFCURVE",
"757 4 OFFCURVE",
"599 -14 CURVE",
"601 -34 LINE"
);
}
);
width = 1000;
},
{
layerId = "9527F797-22C1-480E-A1FE-2CDBEBE1FD4C";
paths = (
{
closed = 1;
nodes = (
"447 78 LINE",
"447 447 LINE",
"447 447 LINE",
"447 810 LINE",
"347 810 LINE",
"347 447 LINE",
"347 447 LINE",
"347 78 LINE"
);
},
{
closed = 1;
nodes = (
"900 605 LINE",
"900 690 LINE",
"100 690 LINE",
"100 605 LINE"
);
},
{
closed = 1;
nodes = (
"794 -30 OFFCURVE",
"910 93 OFFCURVE",
"910 241 CURVE SMOOTH",
"910 415 OFFCURVE",
"763 520 OFFCURVE",
"520 520 CURVE SMOOTH",
"274 520 OFFCURVE",
"90 368 OFFCURVE",
"90 164 CURVE SMOOTH",
"90 50 OFFCURVE",
"147 -25 OFFCURVE",
"237 -25 CURVE SMOOTH",
"376 -25 OFFCURVE",
"604 157 OFFCURVE",
"772 401 CURVE",
"691 451 LINE",
"558 262 OFFCURVE",
"338 71 OFFCURVE",
"252 71 CURVE SMOOTH",
"214 71 OFFCURVE",
"191 109 OFFCURVE",
"191 167 CURVE SMOOTH",
"191 318 OFFCURVE",
"340 433 OFFCURVE",
"536 433 CURVE SMOOTH",
"703 433 OFFCURVE",
"807 359 OFFCURVE",
"807 241 CURVE SMOOTH",
"807 136 OFFCURVE",
"726 55 OFFCURVE",
"598 34 CURVE",
"628 -56 LINE"
);
}
);
width = 1000;
},
{
layerId = "9E6B41AB-2970-4C41-8B35-4DBE0D296A43";
paths = (
{
closed = 1;
nodes = (
"488 55 LINE",
"488 405 LINE",
"498 405 LINE",
"498 815 LINE",
"318 815 LINE",
"318 405 LINE",
"328 405 LINE",
"328 55 LINE"
);
},
{
closed = 1;
nodes = (
"910 565 LINE",
"910 715 LINE",
"90 715 LINE",
"90 565 LINE"
);
},
{
closed = 1;
nodes = (
"818 -45 OFFCURVE",
"930 82 OFFCURVE",
"930 234 CURVE SMOOTH",
"930 421 OFFCURVE",
"783 525 OFFCURVE",
"520 525 CURVE SMOOTH",
"256 525 OFFCURVE",
"70 374 OFFCURVE",
"70 160 CURVE SMOOTH",
"70 26 OFFCURVE",
"142 -55 OFFCURVE",
"260 -55 CURVE SMOOTH",
"422 -55 OFFCURVE",
"616 91 OFFCURVE",
"788 341 CURVE",
"661 430 LINE",
"523 236 OFFCURVE",
"370 100 OFFCURVE",
"291 100 CURVE SMOOTH",
"260 100 OFFCURVE",
"245 121 OFFCURVE",
"245 166 CURVE SMOOTH",
"245 297 OFFCURVE",
"363 380 OFFCURVE",
"551 380 CURVE SMOOTH",
"676 380 OFFCURVE",
"750 326 OFFCURVE",
"750 235 CURVE SMOOTH",
"750 154 OFFCURVE",
"691 94 OFFCURVE",
"585 67 CURVE",
"655 -78 LINE"
);
}
);
width = 1000;
},
{
associatedMasterId = "9527F797-22C1-480E-A1FE-2CDBEBE1FD4C";
layerId = "ED9AD003-790A-45B3-87D4-A016D5568221";
name = "ExtraBold {767}";
paths = (
{
closed = 1;
nodes = (
"481 63 LINE",
"481 419 LINE",
"481 419 LINE",
"481 813 LINE",
"328 813 LINE",
"328 419 LINE",
"328 419 LINE",
"328 63 LINE"
);
},
{
closed = 1;
nodes = (
"907 578 LINE",
"907 707 LINE",
"93 707 LINE",
"93 578 LINE"
);
},
{
closed = 1;
nodes = (
"810 -40 OFFCURVE",
"923 86 OFFCURVE",
"923 236 CURVE SMOOTH",
"923 419 OFFCURVE",
"776 523 OFFCURVE",
"520 523 CURVE SMOOTH",
"262 523 OFFCURVE",
"77 372 OFFCURVE",
"77 161 CURVE SMOOTH",
"77 34 OFFCURVE",
"144 -45 OFFCURVE",
"252 -45 CURVE SMOOTH",
"407 -45 OFFCURVE",
"612 113 OFFCURVE",
"783 361 CURVE",
"671 437 LINE",
"535 245 OFFCURVE",
"359 90 OFFCURVE",
"278 90 CURVE SMOOTH",
"245 90 OFFCURVE",
"227 117 OFFCURVE",
"227 166 CURVE SMOOTH",
"227 304 OFFCURVE",
"355 398 OFFCURVE",
"546 398 CURVE SMOOTH",
"685 398 OFFCURVE",
"769 337 OFFCURVE",
"769 237 CURVE SMOOTH",
"769 148 OFFCURVE",
"703 81 OFFCURVE",
"589 56 CURVE",
"646 -71 LINE"
);
}
);
width = 1000;
}
);
unicode = 3042;
},
{
color = 11;
glyphname = "asmall-hira";
lastChange = "2021-02-11 01:46:26 +0000";
layers = (
{
background = {
components = (
{
alignment = -1;
name = "a-hira";
transform = "{0.8, 0, 0, 0.8, 100, -8}";
}
);
};
layerId = "D65C9A1E-0FCA-4B2D-8EDF-9F36CA9182A1";
paths = (
{
closed = 1;
nodes = (
"418 73 LINE",
"418 382 LINE",
"418 382 LINE",
"418 636 LINE",
"398 636 LINE",
"398 382 LINE",
"398 382 LINE",
"398 73 LINE"
);
},
{
closed = 1;
nodes = (
"812 506 LINE",
"812 526 LINE",
"188 526 LINE",
"188 506 LINE"
);
},
{
closed = 1;
nodes = (
"715.2 -19.2 OFFCURVE",
"812 74.4 OFFCURVE",
"812 189.6 CURVE SMOOTH",
"812 319.2 OFFCURVE",
"694.4 404 OFFCURVE",
"516 404 CURVE SMOOTH",
"333.6 404 OFFCURVE",
"188 280.8 OFFCURVE",
"188 125.6 CURVE SMOOTH",
"188 51.2 OFFCURVE",
"221.6 -2.4 OFFCURVE",
"270.4 -3.2 CURVE SMOOTH",
"356.8 -4 OFFCURVE",
"572 183.2 OFFCURVE",
"689 360 CURVE",
"672 371 LINE",
"560 201 OFFCURVE",
"348 16 OFFCURVE",
"271 17 CURVE SMOOTH",
"235 17 OFFCURVE",
"208 62 OFFCURVE",
"208 126 CURVE SMOOTH",
"208 269 OFFCURVE",
"344 384 OFFCURVE",
"516 384 CURVE SMOOTH",
"684 384 OFFCURVE",
"792 307 OFFCURVE",
"792 190 CURVE SMOOTH",
"792 85 OFFCURVE",
"703 0 OFFCURVE",
"579 -15 CURVE",
"581 -35 LINE"
);
}
);
width = 1000;
},
{
layerId = "9527F797-22C1-480E-A1FE-2CDBEBE1FD4C";
paths = (
{
closed = 1;
nodes = (
"462 55 LINE",
"462 349 LINE",
"466 349 LINE",
"466 640 LINE",
"368 640 LINE",
"368 349 LINE",
"372 349 LINE",
"372 55 LINE"
);
},
{
closed = 1;
nodes = (
"820 472 LINE",
"820 558 LINE",
"180 558 LINE",
"180 472 LINE"
);
},
{
closed = 1;
nodes = (
"738 -36 OFFCURVE",
"833 64 OFFCURVE",
"833 184 CURVE SMOOTH",
"833 327 OFFCURVE",
"713 413 OFFCURVE",
"516 413 CURVE SMOOTH",
"317 413 OFFCURVE",
"167 289 OFFCURVE",
"167 123 CURVE SMOOTH",
"167 30 OFFCURVE",
"215 -32 OFFCURVE",
"289 -33 CURVE SMOOTH",
"397 -33 OFFCURVE",
"582 120 OFFCURVE",
"709 310 CURVE",
"637 360 LINE",
"532 204 OFFCURVE",
"368 55 OFFCURVE",
"302 56 CURVE SMOOTH",
"278 56 OFFCURVE",
"263 83 OFFCURVE",
"263 126 CURVE SMOOTH",
"263 244 OFFCURVE",
"374 329 OFFCURVE",
"529 329 CURVE SMOOTH",
"656 329 OFFCURVE",
"735 274 OFFCURVE",
"735 185 CURVE SMOOTH",
"735 106 OFFCURVE",
"671 43 OFFCURVE",
"572 26 CURVE",
"604 -58 LINE"
);
}
);
width = 1000;
},
{
background = {
components = (
{
alignment = -1;
name = "a-hira";
transform = "{0.8, 0, 0, 0.8, 100, -8}";
}
);
};
layerId = "9E6B41AB-2970-4C41-8B35-4DBE0D296A43";
paths = (
{
closed = 1;
nodes = (
"500 36 LINE",
"500 316 LINE",
"508 316 LINE",
"508 644 LINE",
"344 644 LINE",
"344 316 LINE",
"352 316 LINE",
"352 36 LINE"
);
},
{
closed = 1;
nodes = (
"828 444 LINE",
"828 584 LINE",
"172 584 LINE",
"172 444 LINE"
);
},
{
closed = 1;
nodes = (
"760 -53 OFFCURVE",
"854 53 OFFCURVE",
"854 179 CURVE SMOOTH",
"854 335 OFFCURVE",
"732 422 OFFCURVE",
"516 422 CURVE SMOOTH",
"300 422 OFFCURVE",
"146 297 OFFCURVE",
"146 120 CURVE SMOOTH",
"146 8 OFFCURVE",
"208 -62 OFFCURVE",
"308 -62 CURVE SMOOTH",
"438 -62 OFFCURVE",
"592 56 OFFCURVE",
"728 259 CURVE",
"611 342 LINE",
"507 190 OFFCURVE",
"390 82 OFFCURVE",
"333 82 CURVE SMOOTH",
"314 82 OFFCURVE",
"306 94 OFFCURVE",
"306 125 CURVE SMOOTH",
"306 224 OFFCURVE",
"396 286 OFFCURVE",
"541 286 CURVE SMOOTH",
"636 286 OFFCURVE",
"690 247 OFFCURVE",
"690 180 CURVE SMOOTH",
"690 120 OFFCURVE",
"646 76 OFFCURVE",
"566 55 CURVE",
"626 -80 LINE"
);
}
);
width = 1000;
}
);
unicode = 3041;
},
{
color = 10;
glyphname = "i-hira";
lastChange = "2020-11-23 07:01:10 +0000";
layers = (
{
background = {
paths = (
{
closed = 0;
nodes = (
"605 329 LINE",
"553 162 OFFCURVE",
"421 10 OFFCURVE",
"329 10 CURVE SMOOTH",
"224 10 OFFCURVE",
"125 202 OFFCURVE",
"125 404 CURVE SMOOTH",
"125 489 OFFCURVE",
"142 603 OFFCURVE",
"170 700 CURVE SMOOTH"
);
},
{
closed = 0;
nodes = (
"759 710 LINE",
"850 556 OFFCURVE",
"905 323 OFFCURVE",
"905 92 CURVE SMOOTH"
);
}
);
};
layerId = "D65C9A1E-0FCA-4B2D-8EDF-9F36CA9182A1";
paths = (
{
closed = 1;
nodes = (
"426 0 OFFCURVE",
"561 155 OFFCURVE",
"615 326 CURVE",
"595 332 LINE",
"545 170 OFFCURVE",
"416 20 OFFCURVE",
"329 20 CURVE SMOOTH",
"231 20 OFFCURVE",
"135 208 OFFCURVE",
"135 404 CURVE SMOOTH",
"135 489 OFFCURVE",
"152 603 OFFCURVE",
"180 697 CURVE",
"160 703 LINE",
"132 606 OFFCURVE",
"115 491 OFFCURVE",
"115 404 CURVE SMOOTH",
"115 195 OFFCURVE",
"218 0 OFFCURVE",
"329 0 CURVE SMOOTH"
);
},
{
closed = 1;
nodes = (
"915 92 LINE",
"915 324 OFFCURVE",
"860 559 OFFCURVE",
"768 715 CURVE",
"750 705 LINE",
"840 553 OFFCURVE",
"895 322 OFFCURVE",
"895 92 CURVE"
);
}
);
width = 1000;
},
{
layerId = "9527F797-22C1-480E-A1FE-2CDBEBE1FD4C";
paths = (
{
closed = 1;
nodes = (
"440 -25 OFFCURVE",
"582 120 OFFCURVE",
"645 299 CURVE",
"550 347 LINE",
"502 212 OFFCURVE",
"397 88 OFFCURVE",
"331 88 CURVE SMOOTH",
"260 88 OFFCURVE",
"196 233 OFFCURVE",
"196 406 CURVE SMOOTH",
"196 494 OFFCURVE",
"212 596 OFFCURVE",
"243 704 CURVE",
"139 717 LINE",
"106 600 OFFCURVE",
"89 490 OFFCURVE",
"89 395 CURVE SMOOTH",
"89 157 OFFCURVE",
"190 -25 OFFCURVE",
"322 -25 CURVE SMOOTH"
);
},
{
closed = 1;
nodes = (
"939 71 LINE",
"939 319 OFFCURVE",
"889 555 OFFCURVE",
"798 733 CURVE",
"700 703 LINE",
"784 532 OFFCURVE",
"833 300 OFFCURVE",
"833 71 CURVE"
);
}
);
width = 1000;
},
{
layerId = "9E6B41AB-2970-4C41-8B35-4DBE0D296A43";
paths = (
{
closed = 1;
nodes = (
"453 -50 OFFCURVE",
"602 84 OFFCURVE",
"674 272 CURVE",
"504 362 LINE",
"458 253 OFFCURVE",
"377 155 OFFCURVE",
"333 155 CURVE SMOOTH",
"288 155 OFFCURVE",
"256 258 OFFCURVE",
"256 407 CURVE SMOOTH",
"256 498 OFFCURVE",
"271 589 OFFCURVE",
"306 710 CURVE",
"118 730 LINE",
"80 594 OFFCURVE",
"63 489 OFFCURVE",
"63 385 CURVE SMOOTH",
"63 119 OFFCURVE",
"161 -50 OFFCURVE",
"315 -50 CURVE SMOOTH"
);
},
{
closed = 1;
nodes = (
"963 50 LINE",
"963 313 OFFCURVE",
"917 551 OFFCURVE",
"828 750 CURVE",
"650 700 LINE",
"727 510 OFFCURVE",
"770 277 OFFCURVE",
"770 50 CURVE"
);
}
);
width = 1000;
}
);
unicode = 3044;
},
